<svg width="106" height="38" viewBox="0 0 106 38" fill="none" xmlns="http://www.w3.org/2000/svg">
<path d="M88.8678 12.3015C87.6678 12.3015 86.6678 12.7015 85.9678 13.5015C84.7678 14.7015 84.5677 16.8015 84.5677 19.0015C84.5677 21.2015 84.7678 23.3015 85.9678 24.5015C86.7678 25.3015 87.6678 25.7015 88.8678 25.7015C90.0678 25.7015 91.0678 25.3015 91.8678 24.5015C93.0678 23.3015 93.2678 21.2015 93.2678 19.0015C93.2678 16.8015 93.0678 14.7015 91.8678 13.5015C91.0678 12.7015 90.0678 12.3015 88.8678 12.3015Z" fill="#7D7D7D"/>
<path d="M57.0677 25.6014C60.7677 25.6014 61.2677 22.5014 61.2677 18.9014C61.2677 15.3014 60.7677 12.2014 57.0677 12.2014C53.3677 12.2014 52.8677 15.3014 52.8677 18.9014C52.8677 22.5014 53.4677 25.6014 57.0677 25.6014Z" fill="#7D7D7D"/>
<path d="M101.368 0.701416H74.0677V8.90142H77.9677V12.0014H74.0677V23.2014C74.0677 24.7014 74.7677 25.5014 76.2677 25.5014H77.9677V29.0014H75.5677C71.7677 29.0014 70.0677 26.3014 70.0677 23.4014V12.0014H67.7677V8.90142H70.0677V0.701416H4.76772C2.46772 0.701416 0.667725 2.50142 0.667725 4.80142V33.1014C0.667725 35.4014 2.46772 37.2014 4.76772 37.2014H48.8677V8.90142H52.8677V11.0014C54.3677 9.20142 56.0677 8.60142 58.1677 8.60142C60.2677 8.60142 61.9677 9.30142 63.0677 10.4014C64.9677 12.4014 65.3677 15.6014 65.3677 18.9014C65.3677 22.2014 65.0677 25.5014 63.0677 27.4014C61.9677 28.5014 60.2677 29.2014 58.1677 29.2014C56.0677 29.2014 54.3677 28.7014 52.8677 26.9014V37.3014H101.368C103.668 37.3014 105.468 35.5014 105.468 33.2014V4.80142C105.568 2.60142 103.668 0.701416 101.368 0.701416ZM25.1677 29.0014H21.1677V27.0014C19.7677 28.5014 17.8677 29.3014 15.7677 29.3014C13.6677 29.3014 11.9677 28.6014 10.7677 27.5014C9.26772 26.0014 8.76772 24.1014 8.76772 21.8014V8.90142H12.8677V21.2014C12.8677 24.3014 14.6677 25.7014 16.9677 25.7014C19.2677 25.7014 21.1677 24.3014 21.1677 21.2014V8.90142H25.2677V29.0014H25.1677ZM36.9677 29.3014C33.6677 29.3014 30.8677 28.7014 28.4677 26.4014L31.1677 23.7014C32.7677 25.4014 34.9677 25.8014 36.9677 25.8014C39.4677 25.8014 41.3677 24.9014 41.3677 23.0014C41.3677 21.6014 40.5677 20.8014 38.6677 20.6014L35.4677 20.3014C31.6677 19.9014 29.4677 18.3014 29.4677 14.7014C29.4677 10.7014 32.8677 8.50142 37.0677 8.50142C40.1677 8.50142 42.6677 9.10142 44.5677 10.8014L42.0677 13.4014C40.7677 12.3014 38.9677 11.9014 37.0677 11.9014C34.5677 11.9014 33.3677 12.9014 33.3677 14.5014C33.3677 15.9014 34.1677 16.6014 36.1677 16.8014L38.9677 17.0014C43.1677 17.4014 45.3677 19.2014 45.3677 22.7014C45.2677 27.1014 41.7677 29.3014 36.9677 29.3014ZM94.8677 26.9014C93.5677 28.3014 91.5677 29.3014 88.8677 29.3014C86.1677 29.3014 84.1677 28.3014 82.8677 26.9014C80.9677 24.9014 80.4677 22.4014 80.4677 19.0014C80.4677 15.6014 80.9677 13.1014 82.8677 11.1014C84.1677 9.80142 86.1677 8.70142 88.8677 8.70142C91.5677 8.70142 93.5677 9.70142 94.8677 11.1014C96.7677 13.1014 97.2677 15.6014 97.2677 19.0014C97.2677 22.4014 96.7677 24.9014 94.8677 26.9014Z" fill="#7D7D7D"/>
</svg>
