<svg width="106" height="38" viewBox="0 0 106 38" fill="none" xmlns="http://www.w3.org/2000/svg">
<path d="M88.8686 12.3015C87.6686 12.3015 86.6686 12.7015 85.9686 13.5015C84.7686 14.7015 84.5686 16.8015 84.5686 19.0015C84.5686 21.2015 84.7686 23.3015 85.9686 24.5015C86.7686 25.3015 87.6686 25.7015 88.8686 25.7015C90.0686 25.7015 91.0686 25.3015 91.8686 24.5015C93.0686 23.3015 93.2686 21.2015 93.2686 19.0015C93.2686 16.8015 93.0686 14.7015 91.8686 13.5015C91.0686 12.7015 90.0686 12.3015 88.8686 12.3015Z" fill="#003660"/>
<path d="M57.0686 25.6014C60.7686 25.6014 61.2686 22.5014 61.2686 18.9014C61.2686 15.3014 60.7686 12.2014 57.0686 12.2014C53.3686 12.2014 52.8686 15.3014 52.8686 18.9014C52.8686 22.5014 53.4686 25.6014 57.0686 25.6014Z" fill="#003660"/>
<path d="M101.369 0.701416H74.0686V8.90142H77.9686V12.0014H74.0686V23.2014C74.0686 24.7014 74.7686 25.5014 76.2686 25.5014H77.9686V29.0014H75.5686C71.7686 29.0014 70.0686 26.3014 70.0686 23.4014V12.0014H67.7686V8.90142H70.0686V0.701416H4.76858C2.46858 0.701416 0.668579 2.50142 0.668579 4.80142V33.1014C0.668579 35.4014 2.46858 37.2014 4.76858 37.2014H48.8686V8.90142H52.8686V11.0014C54.3686 9.20142 56.0686 8.60142 58.1686 8.60142C60.2686 8.60142 61.9686 9.30142 63.0686 10.4014C64.9686 12.4014 65.3686 15.6014 65.3686 18.9014C65.3686 22.2014 65.0686 25.5014 63.0686 27.4014C61.9686 28.5014 60.2686 29.2014 58.1686 29.2014C56.0686 29.2014 54.3686 28.7014 52.8686 26.9014V37.3014H101.369C103.669 37.3014 105.469 35.5014 105.469 33.2014V4.80142C105.569 2.60142 103.669 0.701416 101.369 0.701416ZM25.1686 29.0014H21.1686V27.0014C19.7686 28.5014 17.8686 29.3014 15.7686 29.3014C13.6686 29.3014 11.9686 28.6014 10.7686 27.5014C9.26858 26.0014 8.76858 24.1014 8.76858 21.8014V8.90142H12.8686V21.2014C12.8686 24.3014 14.6686 25.7014 16.9686 25.7014C19.2686 25.7014 21.1686 24.3014 21.1686 21.2014V8.90142H25.2686V29.0014H25.1686ZM36.9686 29.3014C33.6686 29.3014 30.8686 28.7014 28.4686 26.4014L31.1686 23.7014C32.7686 25.4014 34.9686 25.8014 36.9686 25.8014C39.4686 25.8014 41.3686 24.9014 41.3686 23.0014C41.3686 21.6014 40.5686 20.8014 38.6686 20.6014L35.4686 20.3014C31.6686 19.9014 29.4686 18.3014 29.4686 14.7014C29.4686 10.7014 32.8686 8.50142 37.0686 8.50142C40.1686 8.50142 42.6686 9.10142 44.5686 10.8014L42.0686 13.4014C40.7686 12.3014 38.9686 11.9014 37.0686 11.9014C34.5686 11.9014 33.3686 12.9014 33.3686 14.5014C33.3686 15.9014 34.1686 16.6014 36.1686 16.8014L38.9686 17.0014C43.1686 17.4014 45.3686 19.2014 45.3686 22.7014C45.2686 27.1014 41.7686 29.3014 36.9686 29.3014ZM94.8686 26.9014C93.5686 28.3014 91.5686 29.3014 88.8686 29.3014C86.1686 29.3014 84.1686 28.3014 82.8686 26.9014C80.9686 24.9014 80.4686 22.4014 80.4686 19.0014C80.4686 15.6014 80.9686 13.1014 82.8686 11.1014C84.1686 9.80142 86.1686 8.70142 88.8686 8.70142C91.5686 8.70142 93.5686 9.70142 94.8686 11.1014C96.7686 13.1014 97.2686 15.6014 97.2686 19.0014C97.2686 22.4014 96.7686 24.9014 94.8686 26.9014Z" fill="#003660"/>
</svg>
