<svg width="75" height="46" viewBox="0 0 75 46" fill="none" xmlns="http://www.w3.org/2000/svg">
<g clip-path="url(#clip0)">
<path d="M42.1977 3.89998L41.0017 8.65027C42.6959 5.29522 45.3866 2.7706 48.4763 0.544678C46.2173 3.16903 44.1578 5.79362 42.8953 8.41798C45.0215 5.42803 47.8784 3.76717 51.1007 2.67087C46.8152 6.49125 43.4136 10.5907 40.8224 14.71L38.7628 13.8132C39.1279 10.5243 40.3705 7.15579 42.1977 3.89998V3.89998Z" fill="#7D7D7D"/>
<path d="M36.6976 12.9397L40.6177 14.566C40.6177 15.5628 40.5367 18.6031 41.16 19.5C47.6796 27.8965 46.5827 44.7275 39.8393 45.1593C29.5704 45.1593 25.6541 38.1833 25.6541 31.7716C25.6541 25.9248 32.6633 22.038 36.8493 18.5832C37.9123 17.6531 37.7277 15.5974 36.6976 12.9397V12.9397Z" fill="#7D7D7D"/>
<path d="M40.6189 14.5078L42.0317 15.2285C41.8988 16.1584 42.0981 18.2184 43.028 18.7497C47.1476 21.3076 51.0341 24.0981 52.5624 26.8886C58.0106 36.722 48.742 45.8241 40.7359 44.9604C45.0878 41.7379 46.3502 35.1273 44.7224 27.9183C44.0581 25.0944 43.028 22.5365 41.2007 19.6463C40.4092 18.2276 40.6855 16.4681 40.6189 14.5078Z" fill="#7D7D7D"/>
<path d="M39.9388 14.2649L42.8621 14.6635C41.9984 17.5204 44.5566 19.5136 45.387 19.9789C47.2473 21.0088 49.0413 22.0717 50.4698 23.3673C53.1608 25.8255 54.6889 29.2805 54.6889 32.9348C54.6889 36.5557 53.0278 40.0438 50.2373 42.3692C47.6129 44.5618 43.992 45.4919 40.4706 45.4919C38.278 45.4919 36.3179 45.3925 34.192 44.6946C29.3419 43.0668 25.7208 38.9144 25.4218 33.9311C25.156 30.0443 26.0197 27.0877 29.043 23.9982C30.6041 22.3705 33.7602 20.5101 35.9197 19.0152C36.9829 18.2842 38.1123 16.2244 35.9528 12.3379L36.3848 12.0056L39.5851 14.1491L36.8832 13.0355C37.1158 13.3678 37.747 14.8627 37.88 15.2945C38.179 16.5236 38.0462 17.7199 37.7803 18.2511C36.4184 20.7096 34.093 21.3739 32.3988 22.7691C29.4088 25.2273 26.1533 27.1874 26.5186 33.9311C26.6848 37.253 29.276 41.306 33.1626 43.1996C35.3552 44.2628 37.88 44.6946 40.438 44.8274C42.7301 44.9271 47.1152 43.565 49.5071 41.5718C52.065 39.4459 53.4936 36.2234 53.4936 32.9348C53.4936 29.6125 52.1647 26.4567 49.6732 24.2308C48.2446 22.9353 45.8861 21.3739 44.4245 20.5432C42.9628 19.7128 41.1356 17.3874 41.7335 15.1617L39.9388 14.2649Z" fill="#333333"/>
<path d="M39.0419 19.1816C38.743 20.7099 38.4107 23.4671 37.0819 24.497C36.5171 24.8954 35.9523 25.2943 35.3544 25.6928C32.9626 27.3208 30.5705 28.8486 29.4745 32.7687C29.2419 33.5994 29.4414 34.4962 29.6408 35.3267C30.2387 37.7185 31.9329 40.3097 33.2618 41.838C33.2618 41.9045 33.5276 42.0706 33.5276 42.137C34.6239 43.4327 34.9562 43.7981 39.1086 44.728L39.0089 45.1933C36.5173 44.529 34.4578 43.9312 33.162 42.4359C33.162 42.4029 32.9295 42.1701 32.9295 42.1701C31.5342 40.5754 29.8398 37.9179 29.2088 35.4264C28.9763 34.4296 28.7771 33.6658 29.0427 32.6357C30.1721 28.583 32.6305 26.9883 35.1221 25.2941C35.6869 24.9287 36.3512 24.5962 36.8827 24.1645C37.9123 23.4007 38.4769 21.075 39.0419 19.1816V19.1816Z" fill="#333333"/>
<path d="M40.1043 25.4932C40.1376 27.2207 39.969 28.0873 40.4008 29.3166C40.6664 30.0473 41.5639 31.044 41.8298 32.0075C42.1952 33.3033 42.5931 34.7316 42.5595 35.5954C42.5595 36.5922 42.4972 38.4516 42.0655 40.445C41.7362 42.092 40.9774 43.5054 39.7014 44.3065C38.3944 44.0374 36.8598 43.5779 35.954 42.8014C34.1934 41.2734 32.634 38.7182 32.4345 36.4923C32.2686 34.6653 33.9603 31.9708 36.3188 30.6089C38.312 29.4462 38.7756 28.121 39.2073 25.9949C38.6095 27.8552 38.0479 29.4147 36.1212 30.4112C33.3307 31.8729 31.8989 34.3265 32.0317 36.6519C32.2309 39.6417 33.4282 41.6675 35.7867 43.2955C36.7833 43.9932 38.6451 44.7304 39.8079 44.9298V44.7778C40.6896 44.6127 41.8312 43.1644 42.3999 41.2052C42.8983 39.4446 43.0948 37.1912 43.0612 35.7626C43.0279 34.9322 42.6616 33.1336 41.997 31.5058C41.6317 30.609 41.0704 29.7122 40.7048 29.081C40.3066 28.4493 40.3038 27.0876 40.1043 25.4932Z" fill="#333333"/>
<path d="M39.9066 32.0076C39.9397 33.1703 40.4067 34.66 40.6059 36.1883C40.7723 37.3179 40.7001 38.4525 40.6667 39.4493C40.6339 40.6031 40.2495 42.6704 39.7242 43.6757C39.2288 43.4485 39.0351 43.1894 38.7132 42.7711C38.3148 42.2063 38.0441 41.6415 37.7782 40.9772C37.579 40.4788 37.3461 39.9084 37.2461 39.2441C37.1133 38.2475 37.1505 36.6884 38.2799 35.0937C39.1437 33.8313 39.3416 33.7353 39.6406 32.2736C39.2416 33.5691 38.9443 33.7012 38.0139 34.7973C36.9842 35.9933 36.8129 37.7549 36.8129 39.1833C36.8129 39.7814 37.0514 40.445 37.2841 41.076C37.5498 41.7405 37.7777 42.4022 38.1431 42.9003C38.6923 43.7081 39.3953 44.1674 39.7394 44.2534C39.7416 44.2538 39.7447 44.2529 39.747 44.2534C39.7543 44.2551 39.7628 44.2596 39.7698 44.2609V44.2229C40.4143 43.5043 40.8022 42.7904 40.9328 42.0718C41.0989 41.208 41.1371 40.3424 41.2368 39.3125C41.3363 38.4487 41.2641 37.2853 41.0316 36.0895C40.6996 34.5945 40.1391 33.0703 39.9066 32.0076L39.9066 32.0076Z" fill="#333333"/>
<path d="M40.0052 17.7864C40.0386 19.5136 40.1714 22.7364 40.6365 23.9986C40.7693 24.4303 41.9984 26.324 42.8619 28.6161C43.46 30.2108 43.5928 31.6724 43.6926 32.1042C44.0912 33.9978 43.5928 37.187 42.9283 40.21C42.5963 41.8378 41.4667 43.8642 40.1711 44.6616L39.9055 45.1267C40.6365 45.0934 42.4301 43.3328 43.0614 41.1402C44.1246 37.4195 44.5563 35.692 44.0582 31.5727C43.9918 31.1738 43.8256 29.8121 43.1944 28.3502C42.2642 26.1243 40.9354 23.9983 40.7695 23.5663C40.4703 22.8689 40.0716 19.8459 40.0052 17.7864V17.7864Z" fill="#333333"/>
<path d="M40.6286 15.4238C40.53 17.199 40.5037 17.8528 40.8357 19.1483C41.201 20.5769 43.0616 22.6364 43.8256 24.9951C45.2873 29.5131 44.9219 35.4264 43.8587 40.0439C43.4603 41.6714 41.5664 44.0304 39.673 44.7942L41.0682 45.1264C41.8322 45.0931 43.7921 43.2661 44.5563 41.1733C45.7852 37.8844 46.018 33.9645 45.5196 29.8452C45.4863 29.4465 44.8217 25.892 44.1907 24.397C43.2937 22.1713 41.699 20.178 41.5331 19.7464C41.2344 19.0155 40.578 17.498 40.6286 15.4238Z" fill="#333333"/>
<path d="M39.7064 14.1746H39.5725V44.8278H39.7064V14.1746Z" fill="#333333"/>
<path d="M2.16733 4.89673H28.8433C29.8397 4.89673 30.7034 5.72716 30.7034 6.75705V14.6301C30.7034 15.66 29.8397 16.4907 28.8433 16.4907H23.3621C22.1327 16.4907 21.6012 17.1881 21.6012 17.9854V43.7643C21.6012 44.6281 20.9036 45.2924 20.0732 45.2924H11.0041C10.1734 45.2924 9.50914 44.6281 9.50914 43.7643V17.7531C9.50914 16.9558 8.7782 16.4909 8.21363 16.4909H2.16733C1.13744 16.4909 0.307007 15.6602 0.307007 14.6304V6.75705C0.306764 5.72716 1.1372 4.89673 2.16733 4.89673V4.89673Z" fill="#7D7D7D"/>
<path d="M70.6072 15.3279H72.9657C73.8294 15.3279 74.5271 16.0255 74.5271 16.8559V25.294C74.5271 26.3903 74.5935 26.8221 73.2646 26.8221C70.6403 26.8221 69.4445 28.2173 69.4445 29.7454V43.9968C69.4445 44.6613 68.8133 45.2259 68.0493 45.2259H59.5778C58.8138 45.2259 58.1826 44.6613 58.1826 43.9968V27.752C58.1734 27.4664 58.179 27.0446 58.2159 26.8221C58.681 20.8091 63.3988 15.9983 69.3778 15.3943C69.5783 15.374 70.2874 15.3279 70.6072 15.3279V15.3279Z" fill="#7D7D7D"/>
</g>
<defs>
<clipPath id="clip0">
<rect width="74.4324" height="45" fill="white" transform="translate(0.235229 0.5)"/>
</clipPath>
</defs>
</svg>
