<svg width="76" height="46" viewBox="0 0 76 46" fill="none" xmlns="http://www.w3.org/2000/svg">
<g clip-path="url(#clip0)">
<path d="M42.8951 3.89998L41.6991 8.65027C43.3933 5.29522 46.084 2.7706 49.1737 0.544678C46.9147 3.16903 44.8552 5.79362 43.5927 8.41798C45.7189 5.42803 48.5758 3.76717 51.7981 2.67087C47.5126 6.49125 44.111 10.5907 41.5197 14.71L39.4602 13.8132C39.8253 10.5243 41.0679 7.15579 42.8951 3.89998V3.89998Z" fill="#ABCD03"/>
<path d="M37.395 12.9397L41.3151 14.566C41.3151 15.5628 41.234 18.6031 41.8574 19.5C48.377 27.8965 47.2801 44.7275 40.5367 45.1593C30.2678 45.1593 26.3514 38.1833 26.3514 31.7716C26.3514 25.9248 33.3607 22.038 37.5467 18.5832C38.6097 17.6531 38.4251 15.5974 37.395 12.9397V12.9397Z" fill="#FFFCDB"/>
<path d="M41.3163 14.5078L42.729 15.2285C42.5962 16.1584 42.7955 18.2184 43.7254 18.7497C47.8449 21.3076 51.7315 24.0981 53.2598 26.8886C58.708 36.722 49.4394 45.8241 41.4333 44.9604C45.7852 41.7379 47.0476 35.1273 45.4198 27.9183C44.7555 25.0944 43.7254 22.5365 41.8981 19.6463C41.1066 18.2276 41.3829 16.4681 41.3163 14.5078Z" fill="#7D4698"/>
<path d="M40.6362 14.2649L43.5595 14.6635C42.6958 17.5204 45.254 19.5136 46.0844 19.9789C47.9447 21.0088 49.7386 22.0717 51.1672 23.3673C53.8582 25.8255 55.3863 29.2805 55.3863 32.9348C55.3863 36.5557 53.7251 40.0438 50.9347 42.3692C48.3103 44.5618 44.6894 45.4919 41.168 45.4919C38.9754 45.4919 37.0153 45.3925 34.8894 44.6946C30.0393 43.0668 26.4182 38.9144 26.1192 33.9311C25.8534 30.0443 26.7171 27.0877 29.7404 23.9982C31.3015 22.3705 34.4576 20.5101 36.6171 19.0152C37.6803 18.2842 38.8097 16.2244 36.6502 12.3379L37.0822 12.0056L40.2825 14.1491L37.5806 13.0355C37.8131 13.3678 38.4444 14.8627 38.5774 15.2945C38.8764 16.5236 38.7436 17.7199 38.4777 18.2511C37.1158 20.7096 34.7904 21.3739 33.0962 22.7691C30.1062 25.2273 26.8507 27.1874 27.216 33.9311C27.3821 37.253 29.9734 41.306 33.86 43.1996C36.0525 44.2628 38.5774 44.6946 41.1354 44.8274C43.4274 44.9271 47.8126 43.565 50.2044 41.5718C52.7624 39.4459 54.191 36.2234 54.191 32.9348C54.191 29.6125 52.8621 26.4567 50.3706 24.2308C48.942 22.9353 46.5835 21.3739 45.1219 20.5432C43.6602 19.7128 41.833 17.3874 42.4309 15.1617L40.6362 14.2649Z" fill="black"/>
<path d="M39.7393 19.1816C39.4404 20.7099 39.1081 23.4671 37.7793 24.497C37.2145 24.8954 36.6497 25.2943 36.0518 25.6928C33.66 27.3208 31.2679 28.8486 30.1718 32.7687C29.9393 33.5994 30.1388 34.4962 30.3382 35.3267C30.9361 37.7185 32.6303 40.3097 33.9591 41.838C33.9591 41.9045 34.225 42.0706 34.225 42.137C35.3213 43.4327 35.6536 43.7981 39.806 44.728L39.7063 45.1933C37.2147 44.529 35.1552 43.9312 33.8594 42.4359C33.8594 42.4029 33.6269 42.1701 33.6269 42.1701C32.2316 40.5754 30.5372 37.9179 29.9062 35.4264C29.6737 34.4296 29.4745 33.6658 29.7401 32.6357C30.8695 28.583 33.3279 26.9883 35.8195 25.2941C36.3843 24.9287 37.0486 24.5962 37.5801 24.1645C38.6097 23.4007 39.1743 21.075 39.7393 19.1816V19.1816Z" fill="black"/>
<path d="M40.8017 25.4932C40.835 27.2207 40.6664 28.0873 41.0981 29.3166C41.3638 30.0473 42.2613 31.044 42.5272 32.0075C42.8926 33.3033 43.2905 34.7316 43.2569 35.5954C43.2569 36.5922 43.1946 38.4516 42.7628 40.445C42.4336 42.092 41.6748 43.5054 40.3988 44.3065C39.0918 44.0374 37.5572 43.5779 36.6514 42.8014C34.8908 41.2734 33.3314 38.7182 33.1319 36.4923C32.966 34.6653 34.6577 31.9708 37.0162 30.6089C39.0094 29.4462 39.473 28.121 39.9047 25.9949C39.3068 27.8552 38.7453 29.4147 36.8186 30.4112C34.0281 31.8729 32.5962 34.3265 32.7291 36.6519C32.9283 39.6417 34.1256 41.6675 36.4841 43.2955C37.4807 43.9932 39.3425 44.7304 40.5052 44.9298V44.7778C41.387 44.6127 42.5286 43.1644 43.0973 41.2052C43.5957 39.4446 43.7922 37.1912 43.7586 35.7626C43.7253 34.9322 43.359 33.1336 42.6944 31.5058C42.3291 30.609 41.7678 29.7122 41.4022 29.081C41.004 28.4493 41.0012 27.0876 40.8017 25.4932Z" fill="black"/>
<path d="M40.604 32.0076C40.6371 33.1703 41.1041 34.66 41.3033 36.1883C41.4697 37.3179 41.3975 38.4525 41.3641 39.4493C41.3313 40.6031 40.9469 42.6704 40.4216 43.6757C39.9261 43.4485 39.7325 43.1894 39.4106 42.7711C39.0122 42.2063 38.7415 41.6415 38.4756 40.9772C38.2764 40.4788 38.0435 39.9084 37.9435 39.2441C37.8107 38.2475 37.8479 36.6884 38.9773 35.0937C39.8411 33.8313 40.039 33.7353 40.338 32.2736C39.939 33.5691 39.6417 33.7012 38.7113 34.7973C37.6816 35.9933 37.5103 37.7549 37.5103 39.1833C37.5103 39.7814 37.7488 40.445 37.9815 41.076C38.2472 41.7405 38.4751 42.4022 38.8405 42.9003C39.3897 43.7081 40.0927 44.1674 40.4368 44.2534C40.439 44.2538 40.4421 44.2529 40.4444 44.2534C40.4517 44.2551 40.4601 44.2596 40.4671 44.2609V44.2229C41.1117 43.5043 41.4996 42.7904 41.6302 42.0718C41.7963 41.208 41.8345 40.3424 41.9342 39.3125C42.0337 38.4487 41.9615 37.2853 41.729 36.0895C41.3969 34.5945 40.8365 33.0703 40.604 32.0076L40.604 32.0076Z" fill="black"/>
<path d="M40.7026 17.7864C40.736 19.5136 40.8688 22.7364 41.3338 23.9986C41.4667 24.4303 42.6958 26.324 43.5593 28.6161C44.1574 30.2108 44.2902 31.6724 44.39 32.1042C44.7886 33.9978 44.2902 37.187 43.6257 40.21C43.2937 41.8378 42.164 43.8642 40.8685 44.6616L40.6029 45.1267C41.3339 45.0934 43.1275 43.3328 43.7587 41.1402C44.822 37.4195 45.2537 35.692 44.7556 31.5727C44.6891 31.1738 44.523 29.8121 43.8918 28.3502C42.9616 26.1243 41.6328 23.9983 41.4669 23.5663C41.1677 22.8689 40.769 19.8459 40.7026 17.7864V17.7864Z" fill="black"/>
<path d="M41.326 15.4238C41.2274 17.199 41.201 17.8528 41.5331 19.1483C41.8984 20.5769 43.759 22.6364 44.523 24.9951C45.9847 29.5131 45.6193 35.4264 44.5561 40.0439C44.1577 41.6714 42.2638 44.0304 40.3704 44.7942L41.7656 45.1264C42.5296 45.0931 44.4895 43.2661 45.2537 41.1733C46.4826 37.8844 46.7154 33.9645 46.217 29.8452C46.1836 29.4465 45.5191 25.892 44.8881 24.397C43.991 22.1713 42.3963 20.178 42.2304 19.7464C41.9317 19.0155 41.2754 17.498 41.326 15.4238Z" fill="black"/>
<path d="M40.4038 14.1746H40.2699V44.8278H40.4038V14.1746Z" fill="black"/>
<path d="M2.86472 4.89673H29.5407C30.537 4.89673 31.4008 5.72716 31.4008 6.75705V14.6301C31.4008 15.66 30.537 16.4907 29.5407 16.4907H24.0595C22.8301 16.4907 22.2986 17.1881 22.2986 17.9854V43.7643C22.2986 44.6281 21.601 45.2924 20.7706 45.2924H11.7015C10.8708 45.2924 10.2065 44.6281 10.2065 43.7643V17.7531C10.2065 16.9558 9.47558 16.4909 8.91102 16.4909H2.86472C1.83483 16.4909 1.00439 15.6602 1.00439 14.6304V6.75705C1.00415 5.72716 1.83458 4.89673 2.86472 4.89673V4.89673Z" fill="#7D4698"/>
<path d="M71.3046 15.3279H73.6631C74.5268 15.3279 75.2244 16.0255 75.2244 16.8559V25.294C75.2244 26.3903 75.2909 26.8221 73.962 26.8221C71.3377 26.8221 70.1419 28.2173 70.1419 29.7454V43.9968C70.1419 44.6613 69.5107 45.2259 68.7466 45.2259H60.2752C59.5112 45.2259 58.88 44.6613 58.88 43.9968V27.752C58.8708 27.4664 58.8764 27.0446 58.9133 26.8221C59.3784 20.8091 64.0962 15.9983 70.0752 15.3943C70.2757 15.374 70.9848 15.3279 71.3046 15.3279V15.3279Z" fill="#7D4698"/>
</g>
<defs>
<clipPath id="clip0">
<rect width="74.4324" height="45" fill="white" transform="translate(0.932617 0.5)"/>
</clipPath>
</defs>
</svg>
