<svg width="49" height="48" viewBox="0 0 49 48" fill="none" xmlns="http://www.w3.org/2000/svg">
<path fill-rule="evenodd" clip-rule="evenodd" d="M24.6677 0.593506C11.4077 0.593506 0.667725 11.3335 0.667725 24.5935C0.667725 35.2135 7.53772 44.1835 17.0777 47.3635C18.2777 47.5735 18.7277 46.8535 18.7277 46.2235C18.7277 45.6535 18.6977 43.7635 18.6977 41.7535C12.6677 42.8635 11.1077 40.2835 10.6277 38.9335C10.3577 38.2435 9.18772 36.1135 8.16772 35.5435C7.32772 35.0935 6.12772 33.9835 8.13772 33.9535C10.0277 33.9235 11.3777 35.6935 11.8277 36.4135C13.9877 40.0435 17.4377 39.0235 18.8177 38.3935C19.0277 36.8335 19.6577 35.7835 20.3477 35.1835C15.0077 34.5835 9.42772 32.5135 9.42772 23.3335C9.42772 20.7235 10.3577 18.5635 11.8877 16.8835C11.6477 16.2835 10.8077 13.8235 12.1277 10.5235C12.1277 10.5235 14.1377 9.89351 18.7277 12.9835C20.6477 12.4435 22.6877 12.1735 24.7277 12.1735C26.7677 12.1735 28.8077 12.4435 30.7277 12.9835C35.3177 9.86351 37.3277 10.5235 37.3277 10.5235C38.6477 13.8235 37.8077 16.2835 37.5677 16.8835C39.0977 18.5635 40.0277 20.6935 40.0277 23.3335C40.0277 32.5435 34.4177 34.5835 29.0777 35.1835C29.9477 35.9335 30.6977 37.3735 30.6977 39.6235C30.6977 42.8335 30.6677 45.4135 30.6677 46.2235C30.6677 46.8535 31.1177 47.6035 32.3177 47.3635C41.7977 44.1835 48.6677 35.1835 48.6677 24.5935C48.6677 11.3335 37.9277 0.593506 24.6677 0.593506Z" fill="#7D7D7D"/>
</svg>
