<svg width="48" height="48" viewBox="0 0 48 48" fill="none" xmlns="http://www.w3.org/2000/svg">
<path fill-rule="evenodd" clip-rule="evenodd" d="M3.54711 0C1.58805 0 0 1.53994 0 3.43842V44.5617C0 46.4607 1.58805 48 3.54711 48H44.4528C46.4118 48 48 46.4607 48 44.5617V3.43842C48 1.53994 46.4118 0 44.4528 0H3.54711ZM14.9323 11.8025C14.9323 13.8825 13.3686 15.5469 10.8563 15.5469H10.8094C8.39169 15.5469 6.82836 13.8825 6.82836 11.8025C6.82836 9.67575 8.43963 8.05755 10.904 8.05755C13.3686 8.05755 14.8855 9.67575 14.9323 11.8025ZM14.4585 18.5062V40.1808H7.25424V18.5062H14.4585ZM18.4448 40.1808H25.6488V28.0769C25.6488 27.4291 25.6956 26.7819 25.8858 26.3189C26.4066 25.0246 27.592 23.6841 29.5822 23.6841C32.1891 23.6841 33.2319 25.6717 33.2319 28.5855V40.1808H40.4355V27.753C40.4355 21.0955 36.8814 17.9976 32.1414 17.9976C28.3199 17.9976 26.6063 20.0981 25.649 21.575V18.5062H18.4448C18.5393 20.5401 18.4448 40.1808 18.4448 40.1808ZM25.649 21.575V21.6497H25.6009L25.649 21.575Z" fill="#7D7D7D"/>
</svg>
