<svg width="48" height="48" viewBox="0 0 48 48" fill="none" xmlns="http://www.w3.org/2000/svg">
<path fill-rule="evenodd" clip-rule="evenodd" d="M6 6C2.68629 6 0 8.68629 0 12V36C0 39.3138 2.68629 42 6 42H42C45.3138 42 48 39.3138 48 36V12C48 8.68629 45.3138 6 42 6H6ZM7.6641 12.5039C6.28551 11.5848 4.4229 11.9573 3.50385 13.3359C2.58479 14.7145 2.95731 16.5771 4.3359 17.4961L22.3359 29.4962C23.3436 30.168 24.6564 30.168 25.6641 29.4962L43.6641 17.4961C45.0426 16.5771 45.4152 14.7145 44.4963 13.3359C43.5771 11.9573 41.7144 11.5848 40.3359 12.5039L24 23.3945L7.6641 12.5039Z" fill="#7D7D7D"/>
</svg>
