<svg width="48" height="48" viewBox="0 0 48 48" fill="none" xmlns="http://www.w3.org/2000/svg">
<path d="M15.095 43.3581C33.2082 43.3581 43.1154 28.3515 43.1154 15.3377C43.1154 14.9115 43.1154 14.4872 43.0866 14.0648C45.0141 12.6707 46.6779 10.9445 48 8.96719C46.2027 9.7636 44.2959 10.2859 42.3438 10.5166C44.3994 9.28587 45.9381 7.3501 46.6734 5.06959C44.7402 6.2167 42.6252 7.02513 40.4199 7.45998C38.9349 5.88114 36.9711 4.83568 34.8324 4.48534C32.6934 4.13503 30.4989 4.49941 28.5879 5.52208C26.677 6.54478 25.1564 8.16874 24.2615 10.1427C23.3665 12.1166 23.1471 14.3305 23.6371 16.4417C19.7218 16.2455 15.8914 15.228 12.3948 13.4554C8.89821 11.6827 5.81346 9.19458 3.3408 6.15247C2.08146 8.32045 1.69574 10.8869 2.2622 13.3293C2.82866 15.7717 4.30467 17.9064 6.38976 19.2987C4.82253 19.2522 3.2895 18.8295 1.92 18.0661C1.92 18.1064 1.92 18.1486 1.92 18.1909C1.92062 20.4646 2.7077 22.668 4.14774 24.4276C5.58777 26.1871 7.59213 27.3944 9.8208 27.8446C8.37096 28.24 6.84975 28.2978 5.37408 28.0136C6.00339 29.9704 7.22853 31.6815 8.87823 32.9079C10.5279 34.134 12.5196 34.8141 14.5747 34.8525C11.0875 37.5933 6.77964 39.081 2.34432 39.0765C1.56077 39.075 0.777993 39.0276 0 38.9346C4.50363 41.8245 9.74382 43.3575 15.095 43.3506" fill="#7D7D7D"/>
</svg>
