<svg width="48" height="48" viewBox="0 0 48 48" fill="none" xmlns="http://www.w3.org/2000/svg">
<path d="M24 5.29761C10.7451 5.29761 0 16.0427 0 29.2976C0 33.8737 1.2813 38.1502 3.5037 41.7892L9.7737 35.1319L41.5086 35.3302L41.2788 45.9523C45.4401 41.6362 48 35.7661 48 29.2976C48 16.0427 37.2549 5.29761 24 5.29761Z" fill="#7D7D7D"/>
<path d="M13.1506 12.1377C11.9809 12.066 11.0845 11.0553 11.1526 9.88438L11.3113 7.32028C11.3809 6.19858 12.3163 5.31958 13.4404 5.31958C13.4824 5.31958 13.5247 5.32078 13.567 5.32348L16.1296 5.48218C16.6966 5.51668 17.2177 5.77078 17.5951 6.19798C17.9731 6.62518 18.1615 7.17478 18.1252 7.74478L17.968 10.299C17.9587 10.4466 17.929 10.5636 17.9107 10.6275L17.8195 11.0736L16.1332 12.3222L13.1506 12.1377Z" fill="#7D7D7D"/>
<path d="M13.4408 4.03198C11.6378 4.03198 10.1381 5.44138 10.0265 7.24078L9.86776 9.80038L9.86746 9.80518L9.86716 9.80968C9.75796 11.6874 11.1962 13.3083 13.073 13.4232L15.5855 13.5786L16.5224 13.6365L17.2769 13.0779L18.1895 12.4026L18.9824 11.8155L19.1645 10.9254C19.2005 10.7889 19.2395 10.605 19.2536 10.38L19.4108 7.82338C19.4684 6.90988 19.1657 6.02938 18.5591 5.34358C17.9552 4.66018 17.1191 4.25218 16.2062 4.19668L13.6508 4.03828H13.6472L13.6433 4.03798C13.5761 4.03408 13.508 4.03198 13.4408 4.03198ZM15.3542 9.61828L15.4484 8.09578L13.9256 8.00158L13.8311 9.52438L15.3542 9.61828ZM13.4408 6.60748C13.4576 6.60748 13.4747 6.60808 13.4918 6.60898L16.0502 6.76768C16.2743 6.78118 16.481 6.88168 16.6301 7.05058C16.7801 7.22008 16.8548 7.43758 16.8404 7.66288L16.6829 10.2201C16.6805 10.2597 16.6646 10.2945 16.6571 10.3323L15.7445 11.0079L13.2305 10.8525C12.7667 10.824 12.4115 10.4235 12.4385 9.95938L12.5972 7.40008C12.6248 6.95338 12.9953 6.60748 13.4408 6.60748Z" fill="#282828"/>
<path d="M24.0004 17.7378C13.9798 17.7378 5.85645 25.8612 5.85645 35.8819C5.85645 39.6082 6.98025 43.0714 8.90655 45.9526H39.823C41.4502 42.9805 42.1444 39.4615 42.1444 35.8819C42.1444 26.6076 34.021 17.7378 24.0004 17.7378Z" fill="#7D7D7D"/>
<path d="M24 16.4495C13.2852 16.4495 4.56812 25.1666 4.56812 35.8813C4.56812 39.5653 5.59892 43.0135 7.38692 45.952H10.491C8.38949 43.1404 7.14389 39.6535 7.14389 35.8813C7.14389 26.5867 14.7054 19.025 24 19.025C28.4148 19.025 32.6433 20.8733 35.9064 24.2294C39.0522 27.4643 40.8564 31.7113 40.8564 35.8813C40.8564 38.7364 40.3848 42.6163 38.3349 45.952H41.2746C42.6933 43.0963 43.4319 39.682 43.4319 35.8813C43.4319 31.0465 41.3622 26.1452 37.7532 22.4336C34.0008 18.5747 29.1165 16.4495 24 16.4495Z" fill="#282827"/>
<path d="M20.3366 41.1483C20.3366 42.1104 19.5569 42.8901 18.5948 42.8901C17.6327 42.8901 16.853 42.1104 16.853 41.1483C16.853 40.1862 17.6327 39.4065 18.5948 39.4065C19.5569 39.4065 20.3366 40.1862 20.3366 41.1483Z" fill="#282827"/>
<path d="M31.1473 41.1483C31.1473 42.1104 30.3676 42.8901 29.4054 42.8901C28.4433 42.8901 27.6636 42.1104 27.6636 41.1483C27.6636 40.1862 28.4433 39.4065 29.4054 39.4065C30.3676 39.4065 31.1473 40.1862 31.1473 41.1483Z" fill="#282827"/>
<path d="M4.20337 40.4572L13.8718 30.2032L11.5447 37.4989C19.093 32.0059 27.0172 32.8744 32.5971 34.513C38.5194 36.2518 42.6657 31.0213 38.6067 25.4417C36.678 22.79 34.0323 20.5883 31.0272 19.253C23.1451 15.7517 15.2206 17.7932 9.87487 23.1932C4.21207 28.9136 4.20337 35.2582 4.20337 40.4572Z" fill="#7D7D7D"/>
<path d="M23.0914 18.8094C21.9691 18.8094 20.8546 18.9213 19.7593 19.1466C16.4188 19.8336 13.3174 21.5463 10.7902 24.0993C6.59226 28.3398 5.71986 32.891 5.53866 37.1639L16.8196 25.1997L13.8331 34.562C19.4455 31.6277 25.8628 31.1936 32.9598 33.2774C35.2182 33.9404 37.2651 33.4379 38.3022 31.9661C39.3675 30.4538 39.0921 28.2981 37.5654 26.1993C35.7411 23.6913 33.2334 21.6426 30.5043 20.43C28.0837 19.3548 25.5691 18.8094 23.0914 18.8094ZM2.91577 43.7003V40.4573C2.91577 35.0822 2.91577 28.3929 8.95956 22.2873C11.8456 19.3722 15.4006 17.4138 19.2403 16.6239C23.2825 15.7923 27.5389 16.2945 31.5501 18.0762C34.686 19.4694 37.5621 21.8163 39.6483 24.684C41.8212 27.6714 42.1122 31.0301 40.4076 33.4493C38.7411 35.8148 35.5335 36.7169 32.2341 35.7485C24.6247 33.5141 17.9185 34.4534 12.3025 38.5403L9.12246 40.8542L10.924 35.2067L2.91577 43.7003Z" fill="#282827"/>
<path d="M28.6317 16.771C27.4854 19.7578 24.1614 21.4255 21.0816 20.5585C17.6118 19.5814 15.7797 16.7929 16.2195 13.2559C16.6572 9.73839 19.0341 6.65439 21.774 2.85278C19.5234 7.64349 21.4353 8.09229 22.0401 8.06829C22.6377 8.04459 23.5101 8.14659 24.7518 8.55849C28.1349 9.68139 29.9232 13.4056 28.6317 16.771Z" fill="#7D7D7D"/>
<path d="M19.7488 7.98648C18.5602 9.85008 17.7256 11.5823 17.4976 13.4147C17.1367 16.3166 18.607 18.5236 21.4309 19.3186C23.8825 20.0089 26.5171 18.6872 27.4297 16.3097C27.9244 15.0203 27.8728 13.6256 27.2845 12.3824C26.6956 11.138 25.6522 10.2139 24.3463 9.78075C23.2003 9.40035 22.4869 9.34008 22.0915 9.35508C21.2038 9.38988 20.3845 8.97648 19.9015 8.24808C19.8457 8.16408 19.7947 8.07708 19.7488 7.98648ZM22.7419 22.0754C22.0741 22.0754 21.3994 21.9856 20.7328 21.7978C18.733 21.2347 17.1349 20.1217 16.1116 18.5791C15.0913 17.0413 14.6869 15.1457 14.9416 13.0967C15.3916 9.47958 17.6209 6.39798 20.2021 2.82975C20.3761 2.58915 20.5519 2.34615 20.7295 2.09985L22.9396 3.40038C21.8488 5.72268 21.9739 6.58245 22.0312 6.77865C22.9087 6.75195 23.9605 6.93888 25.1575 7.33608C27.1378 7.99338 28.72 9.39405 29.6125 11.2807C30.5046 13.1659 30.5832 15.2798 29.8342 17.2325C28.6978 20.1932 25.8004 22.0754 22.7419 22.0754Z" fill="#282827"/>
<path d="M25.3775 28.1778C24.9266 28.1778 24.5042 27.9774 24.2192 27.6282L23.3528 26.5671C22.8506 25.9521 22.9226 25.0524 23.5031 24.5238C23.3156 24.432 23.1479 24.2997 23.0117 24.1329L22.814 23.8908C22.2938 23.2539 22.3889 22.3128 23.0255 21.7929L23.15 21.6912L21.881 20.1336C21.3167 19.4424 21.4202 18.4197 22.112 17.8545C22.4021 17.6181 22.7657 17.4888 23.1371 17.4888C23.6249 17.4888 24.0824 17.7054 24.3917 18.0834L29.8046 24.7455C30.3681 25.4358 30.2646 26.4585 29.5727 27.0237C29.3819 27.1797 29.1533 27.2919 28.9127 27.3474C28.7933 27.375 28.6703 27.3888 28.5476 27.3888C28.1258 27.3888 27.7271 27.2271 27.4268 26.9394L26.3225 27.8409C26.0564 28.0581 25.7207 28.1778 25.3775 28.1778Z" fill="#7D7D7D"/>
<path d="M25.2072 17.4155C24.6969 16.7921 23.9424 16.4348 23.1375 16.4348C22.5243 16.4348 21.9243 16.6484 21.4482 17.036C20.304 17.9708 20.1336 19.6583 21.0657 20.8001L21.7707 21.6656C21.2529 22.556 21.309 23.7128 21.9981 24.5567L22.1307 24.7193C21.819 25.5416 21.9417 26.5043 22.5369 27.233L23.4033 28.2944C23.889 28.8896 24.6087 29.231 25.3776 29.231C25.9632 29.231 26.5356 29.0273 26.9892 28.6568L27.5082 28.2332C27.8328 28.3697 28.1853 28.4423 28.548 28.4423C28.7502 28.4423 28.9527 28.4192 29.1498 28.3736C29.547 28.2821 29.9238 28.0973 30.2398 27.8393C31.3813 26.9066 31.5517 25.2191 30.6199 24.0773L25.2123 17.4218L25.2072 17.4155ZM23.1375 18.542C23.3016 18.542 23.4645 18.6134 23.5767 18.7508L28.9872 25.4096C29.1852 25.6523 29.1489 26.0093 28.9065 26.2073C28.8366 26.2643 28.7577 26.3015 28.6758 26.3204C28.6338 26.3303 28.5909 26.3351 28.548 26.3351C28.3836 26.3351 28.2207 26.264 28.1085 26.1266L27.5697 25.4627L25.6566 27.0242C25.5747 27.0914 25.476 27.1238 25.3776 27.1238C25.2498 27.1238 25.1229 27.0683 25.0356 26.9615L24.1692 25.9004C24.0168 25.7138 24.0447 25.439 24.2313 25.2866L26.1537 23.7173L25.3683 22.7489L24.4173 23.5259C24.3393 23.5892 24.2457 23.6201 24.1527 23.6201C24.0315 23.6201 23.9112 23.5676 23.8284 23.4665L23.6304 23.2238C23.4777 23.0369 23.5053 22.7615 23.6922 22.6088L24.6321 21.8414L22.698 19.4675C22.5 19.2251 22.5363 18.8681 22.7787 18.6701C22.8846 18.584 23.0115 18.542 23.1375 18.542Z" fill="#282828"/>
</svg>
