<svg width="49" height="48" viewBox="0 0 49 48" fill="none" xmlns="http://www.w3.org/2000/svg">
<path fill-rule="evenodd" clip-rule="evenodd" d="M24.6686 0.593506C11.4086 0.593506 0.668579 11.3335 0.668579 24.5935C0.668579 35.2135 7.53858 44.1835 17.0786 47.3635C18.2786 47.5735 18.7286 46.8535 18.7286 46.2235C18.7286 45.6535 18.6986 43.7635 18.6986 41.7535C12.6686 42.8635 11.1086 40.2835 10.6286 38.9335C10.3586 38.2435 9.18858 36.1135 8.16858 35.5435C7.32858 35.0935 6.12858 33.9835 8.13858 33.9535C10.0286 33.9235 11.3786 35.6935 11.8286 36.4135C13.9886 40.0435 17.4386 39.0235 18.8186 38.3935C19.0286 36.8335 19.6586 35.7835 20.3486 35.1835C15.0086 34.5835 9.42858 32.5135 9.42858 23.3335C9.42858 20.7235 10.3586 18.5635 11.8886 16.8835C11.6486 16.2835 10.8086 13.8235 12.1286 10.5235C12.1286 10.5235 14.1386 9.89351 18.7286 12.9835C20.6486 12.4435 22.6886 12.1735 24.7286 12.1735C26.7686 12.1735 28.8086 12.4435 30.7286 12.9835C35.3186 9.86351 37.3286 10.5235 37.3286 10.5235C38.6486 13.8235 37.8086 16.2835 37.5686 16.8835C39.0986 18.5635 40.0286 20.6935 40.0286 23.3335C40.0286 32.5435 34.4186 34.5835 29.0786 35.1835C29.9486 35.9335 30.6986 37.3735 30.6986 39.6235C30.6986 42.8335 30.6686 45.4135 30.6686 46.2235C30.6686 46.8535 31.1186 47.6035 32.3186 47.3635C41.7986 44.1835 48.6686 35.1835 48.6686 24.5935C48.6686 11.3335 37.9286 0.593506 24.6686 0.593506Z" fill="#1B1F23"/>
</svg>
