<svg width="48" height="48" viewBox="0 0 48 48" fill="none" xmlns="http://www.w3.org/2000/svg">
<path fill-rule="evenodd" clip-rule="evenodd" d="M3.52474 0C1.57804 0 0 1.53994 0 3.43842V44.5616C0 46.4607 1.57804 48 3.52474 48H44.1726C46.1192 48 47.6974 46.4607 47.6974 44.5616V3.43842C47.6974 1.53994 46.1192 0 44.1726 0H3.52474ZM14.4586 40.1809V18.5063H7.25431V40.1809H14.4586ZM10.8564 15.547C13.3687 15.547 14.9324 13.8826 14.9324 11.8026C14.8855 9.6758 13.3687 8.05761 10.9041 8.05761C8.43971 8.05761 6.82844 9.6758 6.82844 11.8026C6.82844 13.8826 8.39178 15.547 10.8095 15.547H10.8563H10.8564ZM18.445 40.1809H25.649V28.0769C25.649 27.4291 25.6958 26.782 25.8861 26.3189C26.4069 25.0246 27.5923 23.6841 29.5825 23.6841C32.1893 23.6841 33.2321 25.6717 33.2321 28.5855V40.1809H40.4358V27.753C40.4358 21.0955 36.8816 17.9977 32.1417 17.9977C28.3201 17.9977 26.6066 20.0981 25.6492 21.575V18.5063H18.445C18.5396 20.5401 18.445 40.1809 18.445 40.1809ZM25.6492 21.575V21.6497H25.6011L25.6492 21.575Z" fill="#006699"/>
</svg>
