<svg width="49" height="48" viewBox="0 0 49 48" fill="none" xmlns="http://www.w3.org/2000/svg">
<g clip-path="url(#clip0)">
<path d="M15.7923 43.3581C33.9055 43.3581 43.8127 28.3515 43.8127 15.3377C43.8127 14.9115 43.8127 14.4872 43.7839 14.0648C45.7114 12.6707 47.3752 10.9445 48.6973 8.96719C46.9 9.7636 44.9932 10.2859 43.0411 10.5166C45.0967 9.28587 46.6354 7.3501 47.3707 5.06959C45.4375 6.2167 43.3225 7.02513 41.1172 7.45998C39.6322 5.88114 37.6684 4.83568 35.5297 4.48534C33.3907 4.13503 31.1962 4.49941 29.2852 5.52208C27.3743 6.54478 25.8537 8.16874 24.9587 10.1427C24.0638 12.1166 23.8443 14.3305 24.3344 16.4417C20.419 16.2455 16.5887 15.228 13.0921 13.4554C9.59548 11.6827 6.51073 9.19458 4.03807 6.15247C2.77872 8.32045 2.39301 10.8869 2.95946 13.3293C3.52592 15.7717 5.00194 17.9064 7.08703 19.2987C5.5198 19.2522 3.98677 18.8295 2.61727 18.0661C2.61727 18.1064 2.61727 18.1486 2.61727 18.1909C2.61789 20.4646 3.40497 22.668 4.84501 24.4276C6.28504 26.1871 8.2894 27.3944 10.5181 27.8446C9.06823 28.24 7.54702 28.2978 6.07135 28.0136C6.70066 29.9704 7.9258 31.6815 9.5755 32.9079C11.2252 34.134 13.2168 34.8141 15.272 34.8525C11.7848 37.5933 7.47691 39.081 3.04159 39.0765C2.25804 39.075 1.47526 39.0276 0.697266 38.9346C5.2009 41.8245 10.4411 43.3575 15.7923 43.3506" fill="#1DA1F2"/>
</g>
<defs>
<clipPath id="clip0">
<rect width="48" height="48" fill="white" transform="translate(0.697266)"/>
</clipPath>
</defs>
</svg>
