<svg width="48" height="30" viewBox="0 0 48 30" fill="none" xmlns="http://www.w3.org/2000/svg">
<g clip-path="url(#clip0)">
<path fill-rule="evenodd" clip-rule="evenodd" d="M38.4084 25.4954C38.4035 25.4993 38.3986 25.5029 38.3937 25.5068L38.2637 25.3511C35.5849 27.5544 32.1821 28.7462 28.6706 28.7462C24.6523 28.7462 20.8874 27.2293 18.0639 24.448C15.2404 21.7032 13.6835 18.0191 13.6835 14.1181C13.6835 11.1205 14.5886 8.19491 16.3623 5.73877C18.1001 3.31878 20.4893 1.51291 23.3129 0.465491L23.2045 0.176514C20.3444 1.2601 17.883 3.10212 16.1452 5.55825C14.3352 8.0864 13.3579 11.0482 13.3579 14.1181C13.3579 18.0912 14.9508 21.8475 17.8468 24.6647C18.1191 24.9298 18.4025 25.1797 18.6908 25.4221L18.3173 25.8567C21.177 28.2767 24.8694 29.6131 28.6706 29.6131C32.3992 29.6131 35.9829 28.3129 38.843 26.0014L38.4084 25.4954Z" fill="#C2C2C2"/>
<path fill-rule="evenodd" clip-rule="evenodd" d="M16.5073 5.08875C16.4351 4.83594 16.3989 4.61928 16.3989 4.36647C16.3989 3.28289 17.1228 2.30747 18.426 2.30747C18.7157 2.30747 18.969 2.34363 19.1862 2.41596C19.4033 2.23547 19.6567 2.05465 19.9101 1.91032C19.4758 1.65751 18.969 1.51318 18.426 1.51318C16.8332 1.51318 15.4938 2.77726 15.4938 4.36647C15.4938 4.90827 15.675 5.45006 15.928 5.88333C16.0006 5.77519 16.073 5.66672 16.1452 5.59439C16.2539 5.41355 16.3989 5.2334 16.5073 5.08875Z" fill="#C2C2C2"/>
<path fill-rule="evenodd" clip-rule="evenodd" d="M20.4169 2.27148C20.1636 2.41581 19.9464 2.56046 19.7293 2.74095C20.1998 3.10226 20.4532 3.71604 20.4532 4.36633C20.4532 5.4499 19.6568 6.38882 18.4261 6.38882C17.7381 6.38882 17.1951 6.09988 16.8333 5.63042C16.7608 5.73889 16.6883 5.81122 16.6158 5.91936C16.5074 6.06402 16.399 6.20835 16.3262 6.35268C16.8695 6.85866 17.5935 7.18379 18.4261 7.18379C20.0548 7.18379 21.3584 5.95555 21.3584 4.36633C21.3584 3.53556 20.9962 2.77711 20.4169 2.27148Z" fill="#C2C2C2"/>
<path fill-rule="evenodd" clip-rule="evenodd" d="M15.2403 11.7344C15.2403 12.6013 14.7335 13.3598 13.9734 13.6488V14.1182V14.5157C15.2041 14.1905 16.1452 13.107 16.1452 11.7344C16.1452 10.7593 15.6024 9.89237 14.806 9.35059C14.6973 9.63953 14.6248 9.89237 14.5164 10.1452C14.9869 10.5426 15.2403 11.1206 15.2403 11.7344Z" fill="#C2C2C2"/>
<path fill-rule="evenodd" clip-rule="evenodd" d="M13.3941 13.7931H13.2131C11.9824 13.7931 11.1494 12.8542 11.1494 11.7345C11.1494 10.687 11.8737 9.71196 13.2131 9.71196C13.5028 9.71196 13.7924 9.74777 14.0092 9.85629C14.0821 9.60311 14.1542 9.35064 14.263 9.09784C13.9371 8.98932 13.575 8.91699 13.2131 8.91699C11.5841 8.91699 10.2809 10.1814 10.2809 11.7345C10.2809 13.3598 11.5841 14.5877 13.2131 14.5877H13.3941C13.3941 14.4434 13.3578 14.2626 13.3578 14.1183C13.3578 14.0098 13.3941 13.9016 13.3941 13.7931Z" fill="#C2C2C2"/>
<path fill-rule="evenodd" clip-rule="evenodd" d="M15.3128 17.1523C16.6159 17.1523 17.3399 18.1274 17.3399 19.1748C17.3399 20.1137 16.7609 20.9445 15.8558 21.1614C16.0004 21.4143 16.1454 21.6309 16.29 21.8837C17.4123 21.4866 18.245 20.475 18.245 19.1748C18.245 17.6217 16.9056 16.3577 15.3128 16.3577C14.9147 16.3577 14.5163 16.43 14.1908 16.5743C14.2267 16.8271 14.2629 17.1161 14.3355 17.3689C14.6251 17.2246 14.9507 17.1523 15.3128 17.1523Z" fill="#C2C2C2"/>
<path fill-rule="evenodd" clip-rule="evenodd" d="M13.2855 19.1748C13.2855 18.633 13.4667 18.1274 13.8285 17.7302C13.756 17.4413 13.6838 17.1523 13.6476 16.8633C12.8874 17.3689 12.3806 18.2358 12.3806 19.1748C12.3806 20.8005 13.6838 22.0281 15.3129 22.0281C15.4213 22.0281 15.5663 22.0281 15.675 21.9922C15.53 21.7394 15.3491 21.4866 15.2041 21.2338C14.0459 21.1614 13.2855 20.2945 13.2855 19.1748Z" fill="#C2C2C2"/>
<path fill-rule="evenodd" clip-rule="evenodd" d="M29.5394 16.4658V19.7527C29.5394 20.5112 29.286 21.2334 28.3087 21.2334C27.3311 21.2334 27.0777 20.5112 27.0777 19.7527V16.4658H26.1729V19.9332C26.1729 21.125 26.933 22.0281 28.3087 22.0281C29.6844 22.0281 30.4442 21.125 30.4442 19.9332V16.4658H29.5394Z" fill="#C2C2C2"/>
<path fill-rule="evenodd" clip-rule="evenodd" d="M30.2635 6.3169H32.7252V7.07534H29.3584V1.62158H30.2635V6.3169Z" fill="#C2C2C2"/>
<path fill-rule="evenodd" clip-rule="evenodd" d="M0 9.02563H3.18563V9.81989H0.904814V11.1205H3.14939V11.9151H0.904814V13.6848H3.18563V14.4794H0V9.02563Z" fill="#C2C2C2"/>
<path fill-rule="evenodd" clip-rule="evenodd" d="M17.9916 8.73657L21.7565 12.6011V9.02556H22.6613V14.696L18.8964 10.9037V14.4793H17.9916V8.73657Z" fill="#C2C2C2"/>
<path fill-rule="evenodd" clip-rule="evenodd" d="M40.4359 9.02563H41.341V14.4794H40.4359V9.02563Z" fill="#C2C2C2"/>
<path fill-rule="evenodd" clip-rule="evenodd" d="M8.79657 17.2604V18.5606H10.7512V19.3194H8.79657V21.9196H7.89172V16.4658H10.824V17.2604H8.79657Z" fill="#C2C2C2"/>
<path fill-rule="evenodd" clip-rule="evenodd" d="M12.4167 5.0165H12.453L13.3216 1.62143H14.1908L12.6701 7.29217L10.7515 3.21064L8.83305 7.29217L7.27649 1.62143H8.18134L9.05023 5.0165L10.7515 1.51294L12.4167 5.0165Z" fill="#C2C2C2"/>
<path fill-rule="evenodd" clip-rule="evenodd" d="M33.3406 11.0841H33.3044L32.4355 14.4792H31.5669L33.0872 8.80884L35.0059 12.9262L36.9246 8.80884L38.4812 14.4792H37.576L36.7071 11.0841H36.6709L35.0059 14.6238L33.3406 11.0841Z" fill="#C2C2C2"/>
<path fill-rule="evenodd" clip-rule="evenodd" d="M33.8112 18.5246L32.9423 21.9198H32.0375L33.5578 16.249L35.5127 20.3305L37.4314 16.249L38.9514 21.9198H38.0466L37.1777 18.5246L35.5127 22.0282L33.8112 18.5246Z" fill="#C2C2C2"/>
<path fill-rule="evenodd" clip-rule="evenodd" d="M21.6478 16.4658C22.1546 16.4658 22.7338 16.4658 23.1681 16.7186C23.6389 16.9715 23.9283 17.5133 23.9283 18.0189C23.9283 18.8135 23.3856 19.4637 22.5888 19.5357L24.3266 21.9196H23.3131L21.684 19.6081H21.0685V21.9196H20.1637V16.4658H21.6478ZM21.0685 18.8858H21.4669C22.1908 18.8858 23.0597 18.9216 23.0597 18.055C23.0597 17.1881 22.1546 17.2243 21.4306 17.2243H21.0685V18.8858Z" fill="#C2C2C2"/>
<path fill-rule="evenodd" clip-rule="evenodd" d="M24.7248 1.62134C25.2315 1.62134 25.8108 1.62134 26.2451 1.87415C26.716 2.12697 26.9691 2.66876 26.9691 3.17439C26.9691 3.96932 26.4626 4.61927 25.6299 4.69127L27.4036 7.07509H26.3901L24.7248 4.7636H24.1455V7.07509H23.2407V1.62134H24.7248ZM24.1455 4.04132H24.5439C25.2678 4.04132 26.1005 4.07748 26.1005 3.21055C26.1005 2.34362 25.1953 2.3801 24.5076 2.3801H24.1455V4.04132Z" fill="#C2C2C2"/>
<path fill-rule="evenodd" clip-rule="evenodd" d="M35.2229 6.3169H35.7297C36.9244 6.3169 38.0464 5.88325 38.0464 4.33021C38.0464 2.741 36.9244 2.38002 35.7297 2.38002H35.2229V6.3169ZM34.3177 1.62158H35.8018C37.5396 1.62158 38.9515 2.45202 38.9515 4.33021C38.9515 6.20842 37.5759 7.07534 35.8018 7.07534H34.3177V1.62158Z" fill="#C2C2C2"/>
<path fill-rule="evenodd" clip-rule="evenodd" d="M47.3139 13.5403C47.0242 13.7208 46.6983 13.7931 46.3003 13.7931C45.1055 13.7931 44.2732 12.89 44.2732 11.7703C44.2732 10.687 44.9971 9.71163 46.3003 9.71163C46.6983 9.71163 47.0242 9.78396 47.3139 9.92829L47.7482 9.27831C47.3501 9.06165 46.8433 8.91699 46.3003 8.91699C44.7075 8.91699 43.368 10.1814 43.368 11.7703C43.368 13.3598 44.7075 14.5877 46.3003 14.5877C46.8433 14.5877 47.3501 14.4793 47.7845 14.2265L47.3139 13.5403Z" fill="#C2C2C2"/>
<path fill-rule="evenodd" clip-rule="evenodd" d="M8.83301 13.5403C8.54337 13.7208 8.21748 13.7931 7.8557 13.7931C6.62468 13.7931 5.79203 12.89 5.79203 11.7703C5.79203 10.687 6.51593 9.71163 7.8557 9.71163C8.21748 9.71163 8.54337 9.78396 8.83301 9.92829L9.30351 9.27831C8.86925 9.06165 8.36214 8.91699 7.8557 8.91699C6.22661 8.91699 4.92346 10.1814 4.92346 11.7703C4.92346 13.3598 6.22661 14.5877 7.8557 14.5877C8.36214 14.5877 8.86925 14.4793 9.30351 14.2265L8.83301 13.5403Z" fill="#C2C2C2"/>
<path fill-rule="evenodd" clip-rule="evenodd" d="M29.5033 11.7705C29.5033 10.6869 28.7794 9.71183 27.4762 9.71183C26.1367 9.71183 25.4125 10.6869 25.4125 11.7705C25.4125 12.8903 26.2452 13.793 27.4762 13.793C28.6706 13.793 29.5033 12.8903 29.5033 11.7705ZM30.4084 11.7705C30.4084 13.3597 29.0687 14.588 27.4762 14.588C25.8471 14.588 24.5439 13.3597 24.5439 11.7705C24.5439 10.1813 25.8471 8.91724 27.4762 8.91724C29.0687 8.91724 30.4084 10.1813 30.4084 11.7705Z" fill="#C2C2C2"/>
</g>
<defs>
<clipPath id="clip0">
<rect width="48" height="29.6471" fill="white" transform="translate(0 0.176514)"/>
</clipPath>
</defs>
</svg>
