<svg width="49" height="30" viewBox="0 0 49 30" fill="none" xmlns="http://www.w3.org/2000/svg">
<path fill-rule="evenodd" clip-rule="evenodd" d="M39.279 25.6485C39.2741 25.6524 39.2691 25.656 39.2642 25.66L39.1337 25.5035C36.4427 27.7168 33.0246 28.9139 29.4972 28.9139C25.4608 28.9139 21.6789 27.3902 18.8427 24.5964C16.0064 21.8392 14.4425 18.1385 14.4425 14.2199C14.4425 11.2087 15.3517 8.26991 17.1334 5.80268C18.8791 3.37177 21.2791 1.55776 24.1153 0.505614L24.0064 0.215332C21.1335 1.30381 18.661 3.15415 16.9153 5.62137C15.0972 8.16093 14.1155 11.1361 14.1155 14.2199C14.1155 18.2108 15.7155 21.9842 18.6246 24.814C18.8981 25.0804 19.1828 25.3314 19.4724 25.5749L19.0972 26.0114C21.9699 28.4423 25.6789 29.7848 29.4972 29.7848C33.2427 29.7848 36.8426 28.4787 39.7155 26.1567L39.279 25.6485Z" fill="#004B86"/>
<path fill-rule="evenodd" clip-rule="evenodd" d="M17.2791 5.14956C17.2066 4.89561 17.1702 4.67798 17.1702 4.42402C17.1702 3.33555 17.8974 2.35573 19.2065 2.35573C19.4974 2.35573 19.7519 2.39205 19.9701 2.4647C20.1882 2.2834 20.4427 2.10177 20.6972 1.95679C20.261 1.70284 19.7519 1.55786 19.2065 1.55786C17.6065 1.55786 16.261 2.82764 16.261 4.42402C16.261 4.96826 16.443 5.5125 16.6972 5.94775C16.77 5.8391 16.8429 5.73013 16.9154 5.65747C17.0246 5.47584 17.1702 5.29487 17.2791 5.14956" fill="#141414"/>
<path fill-rule="evenodd" clip-rule="evenodd" d="M21.2064 2.31958C20.9519 2.46456 20.7337 2.60986 20.5156 2.79116C20.9883 3.1541 21.2428 3.77066 21.2428 4.42388C21.2428 5.51235 20.4428 6.45552 19.2066 6.45552C18.5155 6.45552 17.97 6.16524 17.6066 5.69365C17.5337 5.80263 17.4609 5.87528 17.3881 5.98393C17.2792 6.12924 17.1703 6.27422 17.0972 6.41919C17.643 6.92743 18.3702 7.25404 19.2066 7.25404C20.8426 7.25404 22.152 6.02026 22.152 4.42388C22.152 3.58936 21.7883 2.82749 21.2064 2.31958" fill="#141414"/>
<path fill-rule="evenodd" clip-rule="evenodd" d="M16.0063 11.8252C16.0063 12.6961 15.4972 13.458 14.7336 13.7482V14.2198V14.6191C15.9699 14.2925 16.9152 13.204 16.9152 11.8252C16.9152 10.8457 16.3701 9.9749 15.5701 9.43066C15.4608 9.72095 15.388 9.9749 15.2791 10.2289C15.7518 10.6281 16.0063 11.2087 16.0063 11.8252" fill="#141414"/>
<path fill-rule="evenodd" clip-rule="evenodd" d="M14.1519 13.8932H13.9701C12.7339 13.8932 11.8971 12.9501 11.8971 11.8253C11.8971 10.7731 12.6247 9.79364 13.9701 9.79364C14.2611 9.79364 14.552 9.82964 14.7698 9.93861C14.843 9.68433 14.9154 9.4307 15.0247 9.17675C14.6973 9.06777 14.3336 8.99512 13.9701 8.99512C12.3337 8.99512 11.0247 10.2652 11.0247 11.8253C11.0247 13.458 12.3337 14.6914 13.9701 14.6914H14.1519C14.1519 14.5465 14.1154 14.3648 14.1154 14.2199C14.1154 14.1109 14.1519 14.0022 14.1519 13.8932" fill="#141414"/>
<path fill-rule="evenodd" clip-rule="evenodd" d="M16.0792 17.2674C17.3882 17.2674 18.1154 18.2469 18.1154 19.2991C18.1154 20.2422 17.5339 21.0768 16.6246 21.2947C16.7699 21.5487 16.9156 21.7663 17.0609 22.0203C18.1882 21.6213 19.0246 20.6052 19.0246 19.2991C19.0246 17.739 17.6792 16.4692 16.0792 16.4692C15.6793 16.4692 15.2792 16.5419 14.9521 16.6869C14.9882 16.9408 15.0246 17.2311 15.0975 17.4851C15.3884 17.3401 15.7154 17.2674 16.0792 17.2674" fill="#141414"/>
<path fill-rule="evenodd" clip-rule="evenodd" d="M14.0427 19.2992C14.0427 18.755 14.2247 18.2471 14.5882 17.8481C14.5153 17.5579 14.4429 17.2676 14.4064 16.9773C13.6429 17.4852 13.1338 18.356 13.1338 19.2992C13.1338 20.9323 14.4429 22.1654 16.0793 22.1654C16.1882 22.1654 16.3338 22.1654 16.443 22.1294C16.2974 21.8754 16.1157 21.6215 15.97 21.3675C14.8066 21.2949 14.0427 20.424 14.0427 19.2992" fill="#141414"/>
<path fill-rule="evenodd" clip-rule="evenodd" d="M30.37 16.5781V19.8799C30.37 20.6417 30.1155 21.3673 29.1338 21.3673C28.1517 21.3673 27.8972 20.6417 27.8972 19.8799V16.5781H26.9883V20.0612C26.9883 21.2583 27.7519 22.1655 29.1338 22.1655C30.5156 22.1655 31.2789 21.2583 31.2789 20.0612V16.5781H30.37Z" fill="#141414"/>
<path fill-rule="evenodd" clip-rule="evenodd" d="M31.0972 6.38325H33.57V7.14512H30.188V1.66675H31.0972V6.38325Z" fill="#141414"/>
<path fill-rule="evenodd" clip-rule="evenodd" d="M0.697266 9.10425H3.89727V9.90211H1.60617V11.2085H3.86087V12.0067H1.60617V13.7844H3.89727V14.5826H0.697266V9.10425Z" fill="#141414"/>
<path fill-rule="evenodd" clip-rule="evenodd" d="M18.77 8.81396L22.5519 12.6959V9.10425H23.4608V14.8002L19.6789 10.9909V14.5826H18.77V8.81396Z" fill="#141414"/>
<path fill-rule="evenodd" clip-rule="evenodd" d="M41.3157 9.10425H42.2249V14.5826H41.3157V9.10425Z" fill="#141414"/>
<path fill-rule="evenodd" clip-rule="evenodd" d="M9.53366 17.3763V18.6824H11.4971V19.4446H9.53366V22.0565H8.62476V16.5781H11.5702V17.3763H9.53366Z" fill="#141414"/>
<path fill-rule="evenodd" clip-rule="evenodd" d="M13.17 5.07699H13.2064L14.0789 1.6666H14.9521L13.4246 7.36292L11.4972 3.26298L9.57019 7.36292L8.00659 1.6666H8.91549L9.78831 5.07699L11.4972 1.55762L13.17 5.07699Z" fill="#141414"/>
<path fill-rule="evenodd" clip-rule="evenodd" d="M34.1882 11.1721H34.1518L33.279 14.5825H32.4065L33.9337 8.88647L35.861 13.0224L37.7884 8.88647L39.352 14.5825H38.4428L37.5699 11.1721H37.5335L35.861 14.7278L34.1882 11.1721Z" fill="#141414"/>
<path fill-rule="evenodd" clip-rule="evenodd" d="M34.6609 18.646L33.788 22.0564H32.8792L34.4063 16.3601L36.3701 20.46L38.2974 16.3601L39.8243 22.0564H38.9154L38.0426 18.646L36.3701 22.1654L34.6609 18.646Z" fill="#141414"/>
<path fill-rule="evenodd" clip-rule="evenodd" d="M22.4427 16.5781C22.9517 16.5781 23.5336 16.5781 23.9699 16.8321C24.4429 17.086 24.7335 17.6303 24.7335 18.1382C24.7335 18.9364 24.1883 19.5896 23.388 19.6619L25.1336 22.0565H24.1155L22.4791 19.7346H21.8608V22.0565H20.9519V16.5781H22.4427ZM21.8608 19.009H22.261C22.9882 19.009 23.861 19.045 23.861 18.1745C23.861 17.3037 22.9517 17.34 22.2246 17.34H21.8608V19.009Z" fill="#141414"/>
<path fill-rule="evenodd" clip-rule="evenodd" d="M25.5335 1.6665C26.0426 1.6665 26.6244 1.6665 27.0607 1.92046C27.5337 2.17441 27.7879 2.71865 27.7879 3.22656C27.7879 4.02508 27.2791 4.67797 26.4427 4.75029L28.2244 7.14487H27.2063L25.5335 4.82295H24.9516V7.14487H24.0427V1.6665H25.5335ZM24.9516 4.09741H25.3518C26.079 4.09741 26.9154 4.13373 26.9154 3.26289C26.9154 2.39204 26.0062 2.4287 25.3154 2.4287H24.9516V4.09741Z" fill="#141414"/>
<path fill-rule="evenodd" clip-rule="evenodd" d="M36.0792 6.38325H36.5882C37.7884 6.38325 38.9154 5.94766 38.9154 4.38761C38.9154 2.79122 37.7884 2.42861 36.5882 2.42861H36.0792V6.38325ZM35.1699 1.66675H36.6607C38.4063 1.66675 39.8246 2.50094 39.8246 4.38761C39.8246 6.27427 38.4428 7.14512 36.6607 7.14512H35.1699V1.66675Z" fill="#141414"/>
<path fill-rule="evenodd" clip-rule="evenodd" d="M48.2246 13.6393C47.9337 13.8206 47.6063 13.8932 47.2065 13.8932C46.0063 13.8932 45.1702 12.9861 45.1702 11.8613C45.1702 10.7731 45.8974 9.79331 47.2065 9.79331C47.6063 9.79331 47.9337 9.86596 48.2246 10.0109L48.6608 9.35805C48.261 9.14042 47.7519 8.99512 47.2065 8.99512C45.6065 8.99512 44.261 10.2652 44.261 11.8613C44.261 13.458 45.6065 14.6914 47.2065 14.6914C47.7519 14.6914 48.261 14.5825 48.6972 14.3285L48.2246 13.6393Z" fill="#141414"/>
<path fill-rule="evenodd" clip-rule="evenodd" d="M9.57002 13.6393C9.27908 13.8206 8.95173 13.8932 8.5883 13.8932C7.35172 13.8932 6.51531 12.9861 6.51531 11.8613C6.51531 10.7731 7.2425 9.79331 8.5883 9.79331C8.95173 9.79331 9.27908 9.86596 9.57002 10.0109L10.0427 9.35805C9.60643 9.14042 9.09703 8.99512 8.5883 8.99512C6.95189 8.99512 5.64282 10.2652 5.64282 11.8613C5.64282 13.458 6.95189 14.6914 8.5883 14.6914C9.09703 14.6914 9.60643 14.5825 10.0427 14.3285L9.57002 13.6393Z" fill="#141414"/>
<path fill-rule="evenodd" clip-rule="evenodd" d="M30.3338 11.8615C30.3338 10.773 29.6066 9.79355 28.2975 9.79355C26.9521 9.79355 26.2245 10.773 26.2245 11.8615C26.2245 12.9863 27.061 13.8932 28.2975 13.8932C29.4974 13.8932 30.3338 12.9863 30.3338 11.8615ZM31.243 11.8615C31.243 13.4579 29.8972 14.6917 28.2975 14.6917C26.6611 14.6917 25.3521 13.4579 25.3521 11.8615C25.3521 10.2651 26.6611 8.99536 28.2975 8.99536C29.8972 8.99536 31.243 10.2651 31.243 11.8615Z" fill="#141414"/>
</svg>
