<svg width="49" height="48" viewBox="0 0 49 48" fill="none" xmlns="http://www.w3.org/2000/svg">
<path d="M24.6677 0C11.4326 0 0.667725 10.7649 0.667725 24C0.667725 37.2351 11.4326 48 24.6677 48C37.9029 48 48.6677 37.2351 48.6677 24C48.6677 10.7649 37.9029 0 24.6677 0ZM24.6677 44.039C13.6154 44.039 4.62868 35.0524 4.62868 24C4.62868 12.9476 13.6154 3.96096 24.6677 3.96096C35.7201 3.96096 44.7068 12.9476 44.7068 24C44.7068 35.0524 35.7201 44.039 24.6677 44.039V44.039Z" fill="#7D7D7D"/>
<path d="M33.2285 16.5147V12.8625H26.6801V8.83765H22.6553V12.8625H16.1069V17.7072H26.2542L16.1069 31.4854V35.1376H22.6553V39.1518H26.6801V35.1376H33.2285V30.2928H23.0706L33.2285 16.5147Z" fill="#7D7D7D"/>
</svg>
