<svg width="49" height="48" viewBox="0 0 49 48" fill="none" xmlns="http://www.w3.org/2000/svg">
<path d="M24.3944 1.9585C12.223 1.9585 2.32336 11.8581 2.32336 24.0295C2.32336 36.2008 12.223 46.1005 24.3944 46.1005C36.5657 46.1005 46.4653 36.2008 46.4653 24.0295C46.4653 11.8581 36.5657 1.9585 24.3944 1.9585ZM24.3944 42.4579C14.2303 42.4579 5.96596 34.1935 5.96596 24.0295C5.96596 13.8655 14.2303 5.60109 24.3944 5.60109C34.5584 5.60109 42.8228 13.8655 42.8228 24.0295C42.8228 34.1935 34.5584 42.4579 24.3944 42.4579V42.4579Z" fill="#231F20"/>
<path d="M24.3944 41.4198C33.9988 41.4198 41.7848 33.6339 41.7848 24.0294C41.7848 14.4249 33.9988 6.63892 24.3944 6.63892C14.7899 6.63892 7.00391 14.4249 7.00391 24.0294C7.00391 33.6339 14.7899 41.4198 24.3944 41.4198Z" fill="#F4B728"/>
<path d="M16.5216 30.8935V34.2619H22.5436V37.9535H26.245V34.2619H32.267V29.8066H22.9255L32.267 17.1359V13.7675H26.245V10.0857H22.5436V13.7675H16.5216V18.2326H25.8631L16.5216 30.8935Z" fill="#231F20"/>
</svg>
