<svg width="33" height="34" viewBox="0 0 33 34" fill="none" xmlns="http://www.w3.org/2000/svg">
<path fill-rule="evenodd" clip-rule="evenodd" d="M12.9082 2.48288L12.5379 0.982879C10.9288 1.37681 9.38925 2.01382 7.97226 2.87194L8.76444 4.1985C10.0518 3.42195 11.4487 2.84359 12.9082 2.48288ZM20.0894 2.48288L20.4597 0.982879C22.0715 1.37765 23.614 2.01458 25.0347 2.87194L24.2332 4.1985C22.9458 3.42195 21.5489 2.84359 20.0894 2.48288ZM0.481638 13.0391C0.87644 11.4289 1.51338 9.88789 2.3707 8.46882L3.69726 9.26569C2.9207 10.553 2.34235 11.9499 1.98164 13.4094L0.481638 13.0391ZM1.71445 14.7594C1.602 15.501 1.54559 16.25 1.5457 17.0001C1.54576 17.7501 1.60217 18.4991 1.71445 19.2407L0.186325 19.4704C-0.0621085 17.8313 -0.0621085 16.1641 0.186325 14.5251L1.71445 14.7594ZM24.2332 29.8016L25.0254 31.1235C23.6092 31.9811 22.0715 32.6195 20.4644 33.0173L20.0941 31.5173C21.5524 31.1573 22.9479 30.5789 24.2332 29.8016ZM31.2832 19.2407C31.3955 18.4991 31.4519 17.7501 31.4519 17.0001C31.452 16.25 31.3956 15.501 31.2832 14.7594L32.8113 14.5251C33.0597 16.1641 33.0597 17.8313 32.8113 19.4704L31.2832 19.2407ZM31.016 20.586L32.516 20.9563C32.122 22.5683 31.4851 24.111 30.6269 25.5313L29.3004 24.7344C30.0777 23.4458 30.6561 22.0473 31.016 20.586ZM14.0285 33.3126L14.2582 31.7844C15.7435 32.0095 17.2542 32.0095 18.7394 31.7844L18.9691 33.3126C17.3316 33.561 15.666 33.561 14.0285 33.3126ZM25.3676 29.0329C26.5771 28.1437 27.6453 27.077 28.5363 25.8688L29.7832 26.7969C28.7971 28.1252 27.6185 29.299 26.2863 30.2798L25.3676 29.0329ZM28.5363 8.13132C27.6454 6.9217 26.5772 5.85343 25.3676 4.96257L26.2957 3.71569C27.6251 4.69829 28.8006 5.87373 29.7832 7.20319L28.5363 8.13132ZM7.63007 4.96257C6.42046 5.85343 5.35218 6.9217 4.46132 8.13132L3.21445 7.20319C4.19705 5.87373 5.37248 4.69829 6.70194 3.71569L7.63007 4.96257ZM29.3004 9.26569L30.6269 8.46882C31.4842 9.88624 32.1211 11.4257 32.516 13.0344L31.016 13.4048C30.6561 11.9465 30.0776 10.551 29.3004 9.26569ZM18.7394 2.21569C17.2542 1.99066 15.7435 1.99066 14.2582 2.21569L14.0285 0.687566C15.666 0.439106 17.3316 0.439106 18.9691 0.687566L18.7394 2.21569ZM2.06132 31.4329L5.25351 30.6923L5.60507 32.2063L2.41289 32.9423C2.18135 32.9938 1.9413 32.9938 1.70976 32.9423C1.51178 32.8959 1.32488 32.811 1.15974 32.6924C0.994606 32.5737 0.85448 32.4237 0.74738 32.2509C0.64028 32.078 0.568307 31.8858 0.535577 31.6851C0.502848 31.4844 0.510004 31.2792 0.556637 31.0813L1.30195 27.8891L2.80664 28.2407L2.06132 31.4329ZM3.13007 26.8579L1.6207 26.511L2.00039 24.8798C1.3294 23.6418 0.819035 22.3234 0.481638 20.9563L1.98164 20.586C2.33188 22.0142 2.89271 23.3823 3.6457 24.6454L3.13007 26.8579ZM6.62694 30.3735L8.83944 29.8579L8.8535 29.8485C10.1118 30.6032 11.4751 31.1671 12.8988 31.5219L12.5285 33.0219C11.1608 32.6867 9.84206 32.1762 8.60507 31.5032L6.97851 31.8829L6.62694 30.3735ZM3.09726 17.0048C3.09726 9.60319 9.09257 3.5985 16.4988 3.59382C19.0314 3.59313 21.5127 4.3081 23.6566 5.65632C29.9191 9.60319 31.7941 17.8813 27.8519 24.1438C23.9097 30.4063 15.6316 32.286 9.36444 28.3438L3.86601 29.6329L5.15507 24.1298C3.81443 21.9948 3.10134 19.5258 3.09726 17.0048Z" fill="#7D7D7D"/>
</svg>
