<svg width="49" height="48" viewBox="0 0 49 48" fill="none" xmlns="http://www.w3.org/2000/svg">
<g clip-path="url(#clip0)">
<path d="M0.697388 0V48H48.6974V0H0.697388Z" fill="#3A76F0"/>
<path d="M20.7365 7.98288L21.1068 9.48288C19.6473 9.84359 18.2504 10.4219 16.9631 11.1985L16.1709 9.87194C17.5879 9.01382 19.1274 8.37681 20.7365 7.98288V7.98288ZM28.6584 7.98288L28.288 9.48288C29.7475 9.84359 31.1444 10.4219 32.4318 11.1985L33.2333 9.87194C31.8126 9.01458 30.2701 8.37765 28.6584 7.98288V7.98288ZM10.5693 15.4688C9.71199 16.8879 9.07505 18.4289 8.68025 20.0391L10.1802 20.4094C10.541 18.9499 11.1193 17.553 11.8959 16.2657L10.5693 15.4688ZM9.74431 24.0001C9.74419 23.25 9.8006 22.501 9.91306 21.7594L8.38493 21.5251C8.1365 23.1641 8.1365 24.8313 8.38493 26.4704L9.91306 26.2407C9.80078 25.4991 9.74437 24.7501 9.74431 24.0001V24.0001ZM33.224 38.1235L32.4318 36.8016C31.1465 37.5789 29.751 38.1573 28.2927 38.5173L28.663 40.0173C30.2701 39.6195 31.8078 38.9811 33.224 38.1235ZM39.6505 24.0001C39.6505 24.7501 39.5941 25.4991 39.4818 26.2407L41.0099 26.4704C41.2583 24.8313 41.2583 23.1641 41.0099 21.5251L39.4818 21.7594C39.5942 22.501 39.6506 23.25 39.6505 24.0001V24.0001ZM40.7146 27.9563L39.2146 27.586C38.8547 29.0473 38.2763 30.4458 37.499 31.7344L38.8255 32.5313C39.6837 31.111 40.3207 29.5683 40.7146 27.9563V27.9563ZM26.938 38.7844C25.4528 39.0095 23.9421 39.0095 22.4568 38.7844L22.2271 40.3126C23.8646 40.561 25.5302 40.561 27.1677 40.3126L26.938 38.7844ZM36.7349 32.8688C35.844 34.077 34.7757 35.1437 33.5662 36.0329L34.4849 37.2798C35.8171 36.299 36.9957 35.1252 37.9818 33.7969L36.7349 32.8688ZM33.5662 11.9626C34.7758 12.8534 35.844 13.9217 36.7349 15.1313L37.9818 14.2032C36.9992 12.8737 35.8237 11.6983 34.4943 10.7157L33.5662 11.9626ZM12.6599 15.1313C13.5508 13.9217 14.6191 12.8534 15.8287 11.9626L14.9006 10.7157C13.5711 11.6983 12.3957 12.8737 11.4131 14.2032L12.6599 15.1313ZM38.8255 15.4688L37.499 16.2657C38.2762 17.551 38.8547 18.9465 39.2146 20.4048L40.7146 20.0344C40.3198 18.4257 39.6828 16.8862 38.8255 15.4688V15.4688ZM22.4568 9.21569C23.9421 8.99066 25.4528 8.99066 26.938 9.21569L27.1677 7.68757C25.5302 7.43911 23.8646 7.43911 22.2271 7.68757L22.4568 9.21569ZM13.4521 37.6923L10.2599 38.4329L11.0052 35.2407L9.50056 34.8891L8.75525 38.0813C8.70861 38.2792 8.70146 38.4844 8.73419 38.6851C8.76692 38.8858 8.83889 39.078 8.94599 39.2509C9.05309 39.4237 9.19321 39.5737 9.35835 39.6924C9.52348 39.811 9.71039 39.8959 9.90837 39.9423C10.1399 39.9938 10.38 39.9938 10.6115 39.9423L13.8037 39.2063L13.4521 37.6923ZM9.81931 33.511L11.3287 33.8579L11.8443 31.6454C11.0913 30.3823 10.5305 29.0142 10.1802 27.586L8.68025 27.9563C9.01764 29.3234 9.52801 30.6418 10.199 31.8798L9.81931 33.511ZM17.0381 36.8579L14.8256 37.3735L15.1771 38.8829L16.8037 38.5032C18.0407 39.1762 19.3594 39.6867 20.7271 40.0219L21.0974 38.5219C19.6737 38.1671 18.3104 37.6032 17.0521 36.8485L17.0381 36.8579ZM24.6974 10.5938C17.2912 10.5985 11.2959 16.6032 11.2959 24.0048C11.2999 26.5258 12.013 28.9948 13.3537 31.1298L12.0646 36.6329L17.563 35.3438C23.8302 39.286 32.1084 37.4063 36.0505 31.1438C39.9927 24.8813 38.1177 16.6032 31.8552 12.6563C29.7113 11.3081 27.23 10.5931 24.6974 10.5938" fill="white"/>
</g>
<defs>
<clipPath id="clip0">
<rect width="48" height="48" fill="white" transform="translate(0.697388)"/>
</clipPath>
</defs>
</svg>
