<svg width="48" height="34" viewBox="0 0 48 34" fill="none" xmlns="http://www.w3.org/2000/svg">
<path fill-rule="evenodd" clip-rule="evenodd" d="M33.3865 5.43723C31.9189 2.82172 29.1622 1.06015 26.0031 1.06015C23.6262 1.06015 21.4774 2.0579 19.9337 3.66593C18.2352 1.44521 15.5566 0.012207 12.5424 0.012207C7.40848 0.012207 3.24671 4.16851 3.24671 9.29562C3.24671 10.6078 3.51962 11.8559 4.01137 12.9874C1.6234 14.3831 0.0168457 16.9915 0.0168457 19.9791C0.0168457 24.4369 3.59324 28.0506 8.00514 28.0506C8.5681 28.0506 9.11717 27.9916 9.64716 27.8797C10.8588 31.168 14.0172 33.5124 17.7229 33.5124C21.2806 33.5124 24.3341 31.3511 25.6442 28.2686C26.6411 28.755 27.7608 29.0281 28.9441 29.0281C31.7711 29.0281 34.2349 27.4703 35.5273 25.165C36.1845 25.2976 36.8641 25.3674 37.5599 25.3674C43.2582 25.3674 47.8779 20.7074 47.8779 14.9586C47.8779 9.20996 43.2582 4.54987 37.5599 4.54987C36.0744 4.54987 34.6626 4.86714 33.3865 5.43723ZM27.9733 11.5172C28.0823 11.5375 28.184 11.5621 28.2756 11.5906L28.3164 11.6035L28.3068 11.6449C28.2728 11.793 28.2364 11.919 28.1989 12.0199C28.1617 12.1203 28.1136 12.2262 28.0565 12.3349L28.038 12.3705L28.0003 12.3569C27.939 12.3346 27.8748 12.315 27.8094 12.2988C27.7455 12.2829 27.6694 12.2747 27.583 12.2747C27.4696 12.2747 27.3658 12.2895 27.2745 12.319C27.1857 12.3479 27.1048 12.3983 27.034 12.4692C26.9621 12.5413 26.898 12.6421 26.8443 12.7689C26.7895 12.8975 26.7447 13.064 26.7115 13.2635C26.6995 13.3064 26.6912 13.3428 26.6861 13.3773C26.683 13.3977 26.6791 13.4183 26.6744 13.4392H27.7053V13.4851C27.7053 13.6048 27.698 13.7185 27.6837 13.8224C27.6689 13.9274 27.6381 14.0445 27.5921 14.1713L27.5811 14.2016H26.5435L25.8964 17.873C25.8285 18.2525 25.7435 18.578 25.6438 18.8405C25.5431 19.1053 25.4158 19.323 25.2656 19.4875C25.114 19.6537 24.935 19.775 24.7339 19.8479C24.5342 19.92 24.2991 19.9568 24.0349 19.9568C23.9086 19.9568 23.786 19.9465 23.6704 19.9263C23.554 19.9057 23.4511 19.8778 23.3641 19.843L23.3295 19.8292L23.3359 19.7926C23.3589 19.66 23.3882 19.5393 23.4224 19.434C23.4569 19.3274 23.5039 19.2203 23.5617 19.116L23.5814 19.0807L23.6189 19.0957C23.6727 19.1172 23.7343 19.1349 23.802 19.1484C23.8699 19.162 23.9398 19.1688 24.0094 19.1688C24.1341 19.1688 24.2479 19.1524 24.3473 19.1201C24.4426 19.0893 24.5279 19.0259 24.6012 18.9319C24.6769 18.8346 24.7475 18.6946 24.8106 18.5161C24.8745 18.3351 24.9324 18.0964 24.9827 17.8062L25.6268 14.2016H24.931V14.1556C24.931 14.0413 24.9384 13.9295 24.9527 13.8226C24.967 13.7154 24.998 13.5965 25.0443 13.4694L25.0552 13.4392H25.7532L25.7892 13.2311C25.8864 12.6529 26.0806 12.2134 26.3662 11.9248C26.654 11.6342 27.0634 11.4868 27.583 11.4868C27.7316 11.4868 27.863 11.4971 27.9733 11.5172ZM10.2592 16.044C10.2036 15.9063 10.1291 15.7872 10.038 15.6902C9.94724 15.5937 9.83731 15.5119 9.71137 15.4475C9.58801 15.3845 9.45596 15.3293 9.31908 15.2835L8.94532 15.1562C8.84521 15.1228 8.7502 15.0888 8.66305 15.055C8.57934 15.0228 8.50405 14.983 8.43941 14.9373C8.37727 14.8932 8.32735 14.8396 8.29133 14.7774C8.25614 14.7172 8.23826 14.6421 8.23826 14.5546C8.23826 14.386 8.30855 14.272 8.4533 14.2059C8.60804 14.1354 8.78872 14.0997 8.99014 14.0997C9.18341 14.0997 9.36678 14.1207 9.53523 14.162C9.70442 14.2037 9.85278 14.2474 9.97622 14.2922L10.0156 14.3064L10.0335 14.2685C10.0793 14.1709 10.1188 14.0627 10.1507 13.947C10.1824 13.8318 10.2042 13.7151 10.2158 13.5999L10.2193 13.5642L10.1854 13.5522C10.0251 13.4949 9.83592 13.4445 9.62311 13.4018C9.40891 13.359 9.1874 13.3374 8.96477 13.3374C8.42431 13.3374 8.00749 13.4551 7.72587 13.6874C7.44166 13.9217 7.29756 14.242 7.29756 14.6395C7.29756 14.9391 7.3847 15.1812 7.55649 15.359C7.72457 15.5329 7.996 15.6909 8.36301 15.8285L8.66222 15.9396C8.76761 15.9728 8.8679 16.0081 8.9606 16.0447C9.05024 16.08 9.1297 16.1225 9.19684 16.1707C9.26185 16.2176 9.31455 16.2756 9.35353 16.3432C9.39178 16.4093 9.41113 16.4959 9.41113 16.6002C9.41113 16.6927 9.3865 16.777 9.33797 16.8509C9.28778 16.9275 9.22092 16.9929 9.13933 17.0456C9.05617 17.0991 8.9568 17.1399 8.84373 17.1667C8.5685 17.2326 8.24975 17.2153 7.94229 17.1537C7.76217 17.1178 7.59511 17.0686 7.44573 17.0076L7.40295 16.9903L7.38581 17.033C7.34034 17.146 7.29858 17.2628 7.26144 17.3802C7.22384 17.4987 7.19884 17.6174 7.18736 17.7332L7.18384 17.7689L7.21773 17.7811C7.39406 17.8437 7.58788 17.8942 7.79356 17.9316C7.99915 17.9685 8.24187 17.9874 8.51488 17.9874C8.78428 17.9874 9.03441 17.9524 9.25833 17.8835C9.48355 17.8141 9.6784 17.7159 9.83759 17.5914C9.99799 17.466 10.1237 17.3121 10.2113 17.1341C10.2989 16.9562 10.3433 16.7565 10.3433 16.5409C10.3433 16.3491 10.3151 16.182 10.2592 16.044ZM13.8549 13.7349C13.5532 13.471 13.109 13.3374 12.5343 13.3374C12.3183 13.3374 12.0904 13.3545 11.8571 13.3886C11.6236 13.4228 11.3415 13.4868 11.1476 13.5497L11.1159 13.5598V13.593C11.1159 13.8604 11.1722 14.0937 11.2833 14.2867L11.3015 14.3185L11.3366 14.3076C11.4984 14.2575 11.7318 14.2016 11.9015 14.171C12.0713 14.1406 12.2555 14.125 12.4495 14.125C12.7602 14.125 12.9993 14.1876 13.16 14.3109C13.317 14.4314 13.3967 14.6534 13.3967 14.9704V15.0793C13.3267 15.0706 13.2449 15.063 13.1531 15.0562C13.0363 15.0477 12.8852 15.0433 12.7042 15.0433C12.4579 15.0433 12.2196 15.0739 11.9961 15.1342C11.7714 15.1946 11.5694 15.2885 11.3956 15.4127C11.221 15.538 11.0806 15.6974 10.9787 15.8868C10.8766 16.0765 10.8247 16.2995 10.8247 16.5495C10.8247 16.8043 10.8692 17.0254 10.9566 17.206C11.0445 17.3876 11.1707 17.539 11.3315 17.656C11.4914 17.7724 11.7027 17.883 11.929 17.9454C12.1662 18.0107 12.3998 18.0249 12.6784 18.0035C12.8973 17.9868 13.2023 17.9309 13.4078 17.7055C13.4078 17.7055 13.4492 17.9516 13.5361 17.9772C13.6171 18.0012 13.7556 18.0035 13.8853 18.0035C14.2133 18.0035 14.3119 17.9133 14.3119 17.9133V15.0044C14.3119 14.4275 14.1582 14.0005 13.8549 13.7349ZM13.3967 15.8344V16.7097C13.3122 16.8681 13.127 17.0511 12.9824 17.109C12.7558 17.1997 12.604 17.2251 12.3522 17.1998C12.2457 17.189 12.1473 17.1596 12.0598 17.1117C11.9736 17.0648 11.9006 16.9957 11.8429 16.9064C11.7859 16.8183 11.7569 16.6927 11.7569 16.5324C11.7569 16.2799 11.8407 16.0979 12.0135 15.9757C12.1884 15.8517 12.4495 15.7888 12.7891 15.7888C12.8774 15.7888 12.9875 15.7945 13.1161 15.8058C13.2247 15.8151 13.3189 15.8247 13.3967 15.8344ZM20.4027 13.9264C20.5585 14.1082 20.6786 14.3278 20.7595 14.5787C20.8397 14.8286 20.8805 15.1031 20.8805 15.3949C20.8805 15.4739 20.8776 15.559 20.8719 15.6482C20.8661 15.7367 20.8604 15.8119 20.8548 15.8745L20.8512 15.9162H17.8941C17.9118 16.3527 18.0306 16.6772 18.2473 16.8809C18.4723 17.0923 18.8115 17.1995 19.2557 17.1995C19.6501 17.1995 20.0299 17.1292 20.385 16.9905L20.4231 16.9756L20.4422 17.0116C20.489 17.0993 20.5276 17.2073 20.5567 17.3326C20.5854 17.4563 20.603 17.5803 20.6089 17.7015L20.6104 17.7335L20.581 17.746C20.3926 17.826 20.1824 17.8869 19.9556 17.9273C19.7299 17.9672 19.4773 17.9874 19.2048 17.9874C18.8048 17.9874 18.4565 17.9306 18.1696 17.8187C17.8811 17.7062 17.6397 17.5452 17.452 17.34C17.2646 17.1355 17.1255 16.8897 17.0389 16.6096C16.953 16.3322 16.9095 16.0235 16.9095 15.6919C16.9095 15.3666 16.9516 15.058 17.0344 14.7751C17.1176 14.4906 17.2476 14.2396 17.4207 14.0288C17.5939 13.818 17.815 13.6483 18.0775 13.5241C18.3399 13.4001 18.6534 13.3374 19.0095 13.3374C19.3146 13.3374 19.5866 13.3901 19.8178 13.494C20.0495 13.5984 20.2464 13.7438 20.4027 13.9264ZM19.4173 14.1923C19.2971 14.1309 19.1512 14.0997 18.9841 14.0997C18.6543 14.0997 18.3989 14.2001 18.2249 14.3982C18.0565 14.59 17.9495 14.8583 17.9067 15.1963H19.9561C19.9525 15.0594 19.932 14.9265 19.895 14.801C19.8545 14.6632 19.7943 14.5411 19.7157 14.4381C19.6382 14.3367 19.5378 14.2538 19.4173 14.1923ZM24.3531 16.044C24.2974 15.9063 24.2229 15.7872 24.1318 15.6902C24.0409 15.5937 23.931 15.5118 23.8052 15.4475C23.682 15.3845 23.5499 15.3293 23.4129 15.2835L23.0391 15.1562C22.9389 15.1228 22.844 15.0888 22.7568 15.055C22.6731 15.0228 22.5979 14.983 22.5334 14.9373C22.471 14.8932 22.4211 14.8394 22.3851 14.7774C22.3499 14.7172 22.332 14.6421 22.332 14.5546C22.332 14.386 22.4024 14.272 22.5472 14.2059C22.7018 14.1354 22.8825 14.0997 23.0841 14.0997C23.2774 14.0997 23.4606 14.1207 23.629 14.162C23.7982 14.2037 23.9466 14.2474 24.0701 14.2922L24.1095 14.3064L24.1272 14.2685C24.1732 14.1709 24.2126 14.0627 24.2446 13.947C24.2761 13.8322 24.298 13.7154 24.3095 13.5999L24.3133 13.5644L24.2794 13.5522C24.1188 13.4949 23.9297 13.4443 23.717 13.4018C23.5028 13.359 23.2813 13.3374 23.0586 13.3374C22.5182 13.3374 22.1014 13.4551 21.8196 13.6874C21.5354 13.9218 21.3913 14.2421 21.3913 14.6395C21.3913 14.9391 21.4786 15.1812 21.6504 15.359C21.8184 15.5329 22.0899 15.6909 22.4569 15.8285L22.7561 15.9396C22.8617 15.9729 22.962 16.0083 23.0544 16.0447C23.1441 16.08 23.2235 16.1225 23.2906 16.1707C23.3556 16.2176 23.4083 16.2756 23.4474 16.3432C23.4856 16.4093 23.5049 16.4959 23.5049 16.6002C23.5049 16.6927 23.4804 16.777 23.4318 16.8509C23.3817 16.9274 23.3149 16.9929 23.2331 17.0456C23.15 17.0991 23.0507 17.1399 22.9375 17.1667C22.6625 17.2326 22.3436 17.2153 22.0362 17.1537C21.856 17.1178 21.689 17.0686 21.5395 17.0076L21.4967 16.9903L21.4796 17.033C21.4345 17.1456 21.3925 17.2623 21.3553 17.3802C21.3176 17.4987 21.2927 17.6174 21.2812 17.7332L21.2777 17.7689L21.3115 17.7811C21.488 17.8437 21.6817 17.8942 21.8875 17.9316C22.093 17.9685 22.3357 17.9874 22.6088 17.9874C22.8781 17.9874 23.1282 17.9524 23.3522 17.8835C23.5772 17.8141 23.7722 17.7159 23.9315 17.5914C24.0917 17.466 24.2174 17.3121 24.3051 17.1341C24.3926 16.9561 24.4371 16.7565 24.4371 16.5409C24.4371 16.349 24.4088 16.1818 24.3531 16.044ZM31.7337 14.7536C31.6499 14.4715 31.5198 14.2231 31.347 14.0157C31.1737 13.8079 30.9543 13.6411 30.6945 13.5198C30.435 13.3987 30.1286 13.3374 29.7839 13.3374C29.4393 13.3374 29.1328 13.3987 28.8731 13.5198C28.6136 13.6411 28.394 13.8079 28.2205 14.016C28.0476 14.2237 27.9175 14.4719 27.8342 14.7536C27.7513 15.034 27.7092 15.3411 27.7092 15.6666C27.7092 15.9922 27.7513 16.2994 27.8342 16.5793C27.9175 16.8611 28.0474 17.1094 28.2207 17.3174C28.3942 17.5255 28.614 17.6911 28.8736 17.8093C29.1332 17.9274 29.4396 17.9874 29.7839 17.9874C30.1283 17.9874 30.4345 17.9274 30.6941 17.8093C30.9537 17.6911 31.1733 17.5255 31.347 17.3174C31.5198 17.11 31.6499 16.8617 31.7337 16.5793C31.8165 16.2989 31.8585 15.9918 31.8585 15.6666C31.8585 15.3414 31.8165 15.0343 31.7337 14.7536ZM30.8838 15.6666C30.8838 16.1588 30.792 16.5474 30.6114 16.8212C30.4321 17.0929 30.1615 17.225 29.7839 17.225C29.4063 17.225 29.1371 17.093 28.9608 16.8215C28.7827 16.5474 28.6923 16.1588 28.6923 15.6666C28.6923 15.1745 28.7826 14.7874 28.9606 14.5161C29.137 14.2473 29.4063 14.1168 29.7839 14.1168C30.1615 14.1168 30.4321 14.2475 30.6115 14.5165C30.7922 14.7875 30.8838 15.1745 30.8838 15.6666ZM34.8532 13.5891L34.8532 13.5893C34.8543 13.6022 34.8554 13.6163 34.8571 13.6333C34.863 13.6924 34.8658 13.754 34.8658 13.8161C34.8658 13.8855 34.8614 13.9585 34.8528 14.0335C34.8441 14.1081 34.8341 14.1795 34.8228 14.248L34.8145 14.297L34.7663 14.2851C34.7247 14.2749 34.6813 14.2695 34.6373 14.2695H34.5228C34.3752 14.2695 34.2326 14.2903 34.099 14.3312C33.9683 14.3712 33.8487 14.4431 33.7441 14.5451C33.6393 14.6474 33.5546 14.79 33.4923 14.9687C33.4294 15.1494 33.3974 15.387 33.3974 15.6752V17.878L33.3596 17.8847C33.2958 17.8964 33.2241 17.9052 33.1468 17.9108C33.0684 17.9166 32.9973 17.9195 32.9354 17.9195C32.8728 17.9195 32.8038 17.9167 32.7241 17.9108C32.6468 17.9052 32.5727 17.8964 32.5035 17.885L32.4651 17.8786V13.4468L32.503 13.4399C32.5658 13.4285 32.6269 13.4198 32.6848 13.4138C32.8018 13.4024 32.9293 13.4024 33.0584 13.4138C33.1226 13.4198 33.1816 13.4286 33.2338 13.4403L33.2632 13.4467C33.276 13.5551 33.2773 13.609 33.2802 13.7521C33.2823 13.8571 33.2811 13.9777 33.2811 13.9777C33.3908 13.8294 33.5636 13.7219 33.738 13.6189C33.9849 13.4732 34.2921 13.4268 34.6755 13.4487C34.7249 13.4516 34.7678 13.4561 34.8033 13.4619L34.834 13.467L34.8406 13.4973C34.8488 13.5345 34.8507 13.558 34.8532 13.5891ZM38.5088 17.7441C38.5031 17.6164 38.4824 17.4901 38.4477 17.3687C38.4132 17.2471 38.3717 17.1437 38.3247 17.0612L38.3051 17.0272L38.2682 17.0412C38.1245 17.0966 37.9804 17.1358 37.8405 17.1576C37.6996 17.1799 37.5433 17.191 37.3764 17.191C36.9668 17.191 36.6409 17.0686 36.4079 16.8273C36.1741 16.5854 36.0557 16.195 36.0557 15.6666C36.0557 15.2036 36.1612 14.8272 36.3693 14.5481C36.5742 14.273 36.8902 14.1336 37.3087 14.1336C37.6582 14.1336 37.9729 14.1813 38.2442 14.2753L38.2833 14.2889L38.3009 14.2516C38.3475 14.1525 38.3843 14.036 38.4106 13.9057C38.4363 13.7765 38.4494 13.6606 38.4494 13.5614V13.5298L38.4198 13.5186C38.2538 13.4557 38.0765 13.4091 37.8928 13.3802C37.7097 13.3518 37.4961 13.3374 37.2574 13.3374C36.9018 13.3374 36.5844 13.3985 36.3135 13.5195C36.0429 13.6405 35.8134 13.8073 35.6315 14.015C35.4497 14.2227 35.311 14.4709 35.2193 14.7525C35.1276 15.0329 35.0812 15.3405 35.0812 15.6666C35.0812 16.3711 35.2707 16.9398 35.6445 17.3567C36.0197 17.7751 36.5824 17.9874 37.317 17.9874C37.7507 17.9874 38.1418 17.9206 38.4797 17.789L38.5104 17.7771L38.5088 17.7441ZM42.1781 13.9264C42.3341 14.1082 42.4542 14.3278 42.535 14.5787C42.6153 14.8286 42.656 15.1031 42.656 15.3949C42.656 15.4739 42.6531 15.559 42.6475 15.6482C42.6417 15.7367 42.636 15.8119 42.6303 15.8745L42.6267 15.9162H39.6696C39.6873 16.3527 39.8061 16.6772 40.0229 16.8809C40.2477 17.0923 40.587 17.1995 41.0313 17.1995C41.4255 17.1995 41.8055 17.1292 42.1605 16.9905L42.1986 16.9756L42.2178 17.0116C42.2646 17.0993 42.303 17.2073 42.3322 17.3326C42.361 17.4563 42.3784 17.5803 42.3844 17.7015L42.386 17.7335L42.3565 17.746C42.1683 17.826 41.9577 17.8869 41.7311 17.9273C41.5054 17.9672 41.2529 17.9874 40.9804 17.9874C40.5804 17.9874 40.2322 17.9306 39.9451 17.8187C39.6566 17.7062 39.4152 17.5452 39.2276 17.34C39.04 17.1355 38.901 16.8897 38.8144 16.6096C38.7286 16.3323 38.6851 16.0236 38.6851 15.6919C38.6851 15.3666 38.7271 15.058 38.8099 14.7751C38.8932 14.4906 39.0232 14.2396 39.1963 14.0288C39.3695 13.818 39.5906 13.6483 39.8531 13.5241C40.1155 13.4001 40.429 13.3374 40.7851 13.3374C41.0902 13.3374 41.3622 13.3901 41.5933 13.494C41.8251 13.5984 42.0218 13.7438 42.1781 13.9264ZM41.1929 14.1923C41.0725 14.1309 40.9267 14.0997 40.7597 14.0997C40.4298 14.0997 40.1744 14.2001 40.0005 14.3982C39.8319 14.59 39.725 14.8583 39.6823 15.1963H41.7318C41.728 15.0594 41.7075 14.9267 41.6706 14.801C41.63 14.6632 41.5697 14.5411 41.4912 14.4381C41.4138 14.3367 41.3133 14.2538 41.1929 14.1923ZM16.0374 17.8827L16.0752 17.8758V12.8046L16.0747 12.8048V11.5792L16.0369 11.5723C15.973 11.5607 15.9014 11.5519 15.824 11.5462C15.7456 11.5405 15.6746 11.5376 15.6128 11.5376C15.55 11.5376 15.481 11.5405 15.4014 11.5462C15.324 11.552 15.2524 11.5607 15.1888 11.5723L15.151 11.5792V16.7106L15.1516 16.7105V17.8758L15.1893 17.8827C15.2531 17.8943 15.3247 17.903 15.4022 17.9088C15.4805 17.9144 15.5515 17.9174 15.6133 17.9174C15.6761 17.9174 15.7453 17.9145 15.8248 17.9088C15.9021 17.903 15.9738 17.8943 16.0374 17.8827Z" fill="#7D7D7D"/>
</svg>
