<svg width="49" height="34" viewBox="0 0 49 34" fill="none" xmlns="http://www.w3.org/2000/svg">
<g clip-path="url(#clip0)">
<path fill-rule="evenodd" clip-rule="evenodd" d="M26.7005 1.06015C29.8596 1.06015 32.6163 2.82172 34.0839 5.43723C35.36 4.86714 36.7718 4.54987 38.2573 4.54987C43.9556 4.54987 48.5753 9.20996 48.5753 14.9586C48.5753 20.7074 43.9556 25.3674 38.2573 25.3674C37.5615 25.3674 36.8819 25.2976 36.2247 25.165C34.9323 27.4703 32.4685 29.0281 29.6415 29.0281C28.4581 29.0281 27.3385 28.755 26.3416 28.2686C25.0315 31.3511 21.978 33.5124 18.4203 33.5124C14.7146 33.5124 11.5562 31.168 10.3446 27.8797C9.81456 27.9916 9.26549 28.0506 8.70253 28.0506C4.29063 28.0506 0.714233 24.4369 0.714233 19.9791C0.714233 16.9915 2.32078 14.3831 4.70875 12.9874C4.21701 11.8559 3.94409 10.6078 3.94409 9.29562C3.94409 4.16851 8.10586 0.012207 13.2398 0.012207C16.254 0.012207 18.9326 1.44521 20.6311 3.66593C22.1748 2.0579 24.3236 1.06015 26.7005 1.06015Z" fill="#00A1E0"/>
<path fill-rule="evenodd" clip-rule="evenodd" d="M10.9566 16.044C10.901 15.9063 10.8265 15.7872 10.7354 15.6902C10.6446 15.5937 10.5347 15.5119 10.4088 15.4475C10.2854 15.3845 10.1533 15.3293 10.0165 15.2835L9.64271 15.1562C9.5426 15.1228 9.44758 15.0888 9.36044 15.055C9.27672 15.0228 9.20143 14.983 9.13679 14.9373C9.07465 14.8932 9.02474 14.8396 8.98872 14.7774C8.95352 14.7172 8.93565 14.6421 8.93565 14.5546C8.93565 14.386 9.00594 14.272 9.15069 14.2059C9.30543 14.1354 9.48611 14.0997 9.68753 14.0997C9.8808 14.0997 10.0642 14.1207 10.2326 14.162C10.4018 14.2037 10.5502 14.2474 10.6736 14.2922L10.713 14.3064L10.7308 14.2685C10.7767 14.1709 10.8162 14.0627 10.8481 13.947C10.8798 13.8318 10.9016 13.7151 10.9132 13.5999L10.9167 13.5642L10.8828 13.5522C10.7225 13.4949 10.5333 13.4445 10.3205 13.4018C10.1063 13.359 9.88478 13.3374 9.66216 13.3374C9.1217 13.3374 8.70487 13.4551 8.42326 13.6874C8.13904 13.9217 7.99495 14.242 7.99495 14.6395C7.99495 14.9391 8.08209 15.1812 8.25388 15.359C8.42196 15.5329 8.69339 15.6909 9.06039 15.8285L9.35961 15.9396C9.46499 15.9728 9.56529 16.0081 9.65799 16.0447C9.74763 16.08 9.82709 16.1225 9.89423 16.1707C9.95924 16.2176 10.0119 16.2756 10.0509 16.3432C10.0892 16.4093 10.1085 16.4959 10.1085 16.6002C10.1085 16.6927 10.0839 16.777 10.0354 16.8509C9.98517 16.9275 9.91831 16.9929 9.83672 17.0456C9.75356 17.0991 9.65419 17.1399 9.54112 17.1667C9.26589 17.2326 8.94713 17.2153 8.63968 17.1537C8.45956 17.1178 8.29249 17.0686 8.14312 17.0076L8.10033 16.9903L8.0832 17.033C8.03773 17.146 7.99597 17.2628 7.95883 17.3802C7.92123 17.4987 7.89623 17.6174 7.88474 17.7332L7.88123 17.7689L7.91512 17.7811C8.09144 17.8437 8.28527 17.8942 8.49095 17.9316C8.69654 17.9685 8.93926 17.9874 9.21227 17.9874C9.48166 17.9874 9.7318 17.9524 9.95572 17.8835C10.1809 17.8141 10.3758 17.7159 10.535 17.5914C10.6954 17.466 10.821 17.3121 10.9086 17.1341C10.9963 16.9562 11.0407 16.7565 11.0407 16.5409C11.0407 16.3491 11.0125 16.182 10.9566 16.044Z" fill="white"/>
<path fill-rule="evenodd" clip-rule="evenodd" d="M14.5523 13.7349C14.2506 13.471 13.8063 13.3374 13.2317 13.3374C13.0157 13.3374 12.7878 13.3545 12.5545 13.3886C12.321 13.4228 12.0389 13.4868 11.845 13.5497L11.8133 13.5598V13.593C11.8133 13.8604 11.8696 14.0937 11.9807 14.2867L11.9989 14.3185L12.034 14.3076C12.1958 14.2575 12.4292 14.2016 12.5989 14.171C12.7687 14.1406 12.9529 14.125 13.1469 14.125C13.4576 14.125 13.6967 14.1876 13.8574 14.3109C14.0144 14.4314 14.0941 14.6534 14.0941 14.9704V15.0793C14.0241 15.0706 13.9423 15.063 13.8505 15.0562C13.7336 15.0477 13.5826 15.0433 13.4016 15.0433C13.1553 15.0433 12.917 15.0739 12.6935 15.1342C12.4688 15.1946 12.2667 15.2885 12.093 15.4127C11.9184 15.538 11.778 15.6974 11.6761 15.8868C11.574 16.0765 11.5221 16.2995 11.5221 16.5495C11.5221 16.8043 11.5665 17.0254 11.654 17.206C11.7419 17.3876 11.8681 17.539 12.0289 17.656C12.1888 17.7724 12.4001 17.883 12.6263 17.9454C12.8636 18.0107 13.0972 18.0249 13.3758 18.0035C13.5947 17.9868 13.8997 17.9309 14.1052 17.7055C14.1052 17.7055 14.1466 17.9516 14.2334 17.9772C14.3145 18.0012 14.453 18.0035 14.5827 18.0035C14.9107 18.0035 15.0093 17.9133 15.0093 17.9133V15.0044C15.0093 14.4275 14.8556 14.0005 14.5523 13.7349ZM14.0941 15.8344V16.7097C14.0096 16.8681 13.8244 17.0511 13.6797 17.109C13.4531 17.1997 13.3014 17.2251 13.0496 17.1998C12.9431 17.189 12.8447 17.1596 12.7572 17.1117C12.671 17.0648 12.598 16.9957 12.5403 16.9064C12.4833 16.8183 12.4543 16.6927 12.4543 16.5324C12.4543 16.2799 12.5381 16.0979 12.7109 15.9757C12.8858 15.8517 13.1469 15.7888 13.4865 15.7888C13.5748 15.7888 13.6848 15.7945 13.8135 15.8058C13.9221 15.8151 14.0163 15.8247 14.0941 15.8344Z" fill="white"/>
<path fill-rule="evenodd" clip-rule="evenodd" d="M21.4569 14.5787C21.376 14.3278 21.2558 14.1082 21.1001 13.9264C20.9438 13.7438 20.7469 13.5984 20.5152 13.494C20.284 13.3901 20.012 13.3374 19.7069 13.3374C19.3508 13.3374 19.0373 13.4001 18.7749 13.5241C18.5124 13.6483 18.2913 13.818 18.1181 14.0288C17.9449 14.2396 17.815 14.4906 17.7318 14.7751C17.649 15.058 17.6069 15.3666 17.6069 15.6919C17.6069 16.0235 17.6504 16.3322 17.7363 16.6096C17.8229 16.8897 17.962 17.1355 18.1494 17.34C18.337 17.5452 18.5785 17.7062 18.8669 17.8187C19.1538 17.9306 19.5022 17.9874 19.9022 17.9874C20.1747 17.9874 20.4273 17.9672 20.653 17.9273C20.8798 17.8869 21.09 17.826 21.2783 17.746L21.3078 17.7335L21.3063 17.7015C21.3004 17.5803 21.2828 17.4563 21.2541 17.3326C21.225 17.2073 21.1864 17.0993 21.1396 17.0116L21.1205 16.9756L21.0824 16.9905C20.7273 17.1292 20.3475 17.1995 19.9531 17.1995C19.5089 17.1995 19.1697 17.0923 18.9447 16.8809C18.728 16.6772 18.6092 16.3527 18.5915 15.9162H21.5486L21.5522 15.8745C21.5578 15.8119 21.5635 15.7367 21.5693 15.6482C21.575 15.559 21.5779 15.4739 21.5779 15.3949C21.5779 15.1031 21.5371 14.8286 21.4569 14.5787ZM19.6815 14.0997C19.8486 14.0997 19.9944 14.1309 20.1147 14.1923C20.2352 14.2538 20.3356 14.3367 20.4131 14.4381C20.4916 14.5411 20.5519 14.6632 20.5924 14.801C20.6294 14.9265 20.6499 15.0594 20.6535 15.1963H18.6041C18.6469 14.8583 18.7539 14.59 18.9223 14.3982C19.0962 14.2001 19.3517 14.0997 19.6815 14.0997Z" fill="white"/>
<path fill-rule="evenodd" clip-rule="evenodd" d="M25.0505 16.044C24.9947 15.9063 24.9203 15.7872 24.8292 15.6902C24.7383 15.5937 24.6284 15.5118 24.5026 15.4475C24.3794 15.3845 24.2473 15.3293 24.1102 15.2835L23.7365 15.1562C23.6363 15.1228 23.5414 15.0888 23.4542 15.055C23.3705 15.0228 23.2953 14.983 23.2308 14.9373C23.1683 14.8932 23.1185 14.8394 23.0825 14.7774C23.0473 14.7172 23.0294 14.6421 23.0294 14.5546C23.0294 14.386 23.0998 14.272 23.2446 14.2059C23.3992 14.1354 23.5799 14.0997 23.7815 14.0997C23.9748 14.0997 24.158 14.1207 24.3264 14.162C24.4956 14.2037 24.6439 14.2474 24.7675 14.2922L24.8068 14.3064L24.8246 14.2685C24.8706 14.1709 24.91 14.0627 24.942 13.947C24.9734 13.8322 24.9954 13.7154 25.0069 13.5999L25.0107 13.5644L24.9768 13.5522C24.8162 13.4949 24.6271 13.4443 24.4144 13.4018C24.2002 13.359 23.9787 13.3374 23.756 13.3374C23.2156 13.3374 22.7987 13.4551 22.517 13.6874C22.2328 13.9218 22.0887 14.2421 22.0887 14.6395C22.0887 14.9391 22.176 15.1812 22.3477 15.359C22.5158 15.5329 22.7873 15.6909 23.1543 15.8285L23.4535 15.9396C23.5591 15.9729 23.6594 16.0083 23.7518 16.0447C23.8415 16.08 23.9209 16.1225 23.988 16.1707C24.053 16.2176 24.1057 16.2756 24.1448 16.3432C24.1829 16.4093 24.2023 16.4959 24.2023 16.6002C24.2023 16.6927 24.1778 16.777 24.1291 16.8509C24.079 16.9274 24.0123 16.9929 23.9305 17.0456C23.8474 17.0991 23.7481 17.1399 23.6349 17.1667C23.3599 17.2326 23.041 17.2153 22.7336 17.1537C22.5534 17.1178 22.3864 17.0686 22.2369 17.0076L22.1941 16.9903L22.177 17.033C22.1319 17.1456 22.0899 17.2623 22.0527 17.3802C22.015 17.4987 21.9901 17.6174 21.9786 17.7332L21.9751 17.7689L22.0089 17.7811C22.1854 17.8437 22.3791 17.8942 22.5849 17.9316C22.7904 17.9685 23.033 17.9874 23.3061 17.9874C23.5755 17.9874 23.8256 17.9524 24.0496 17.8835C24.2746 17.8141 24.4696 17.7159 24.6288 17.5914C24.7891 17.466 24.9148 17.3121 25.0025 17.1341C25.09 16.9561 25.1345 16.7565 25.1345 16.5409C25.1345 16.349 25.1061 16.1818 25.0505 16.044Z" fill="white"/>
<path fill-rule="evenodd" clip-rule="evenodd" d="M28.973 11.5906C28.8814 11.5621 28.7797 11.5375 28.6707 11.5172C28.5603 11.4971 28.429 11.4868 28.2804 11.4868C27.7608 11.4868 27.3514 11.6342 27.0636 11.9248C26.778 12.2134 26.5838 12.6529 26.4866 13.2311L26.4506 13.4392H25.7526L25.7417 13.4694C25.6954 13.5965 25.6644 13.7154 25.6501 13.8226C25.6358 13.9295 25.6284 14.0413 25.6284 14.1556V14.2016H26.3242L25.6801 17.8062C25.6298 18.0964 25.5719 18.3351 25.508 18.5161C25.4449 18.6946 25.3743 18.8346 25.2985 18.9319C25.2253 19.0259 25.14 19.0893 25.0447 19.1201C24.9453 19.1524 24.8315 19.1688 24.7068 19.1688C24.6372 19.1688 24.5673 19.162 24.4993 19.1484C24.4317 19.1349 24.3701 19.1172 24.3163 19.0957L24.2787 19.0807L24.2591 19.116C24.2013 19.2203 24.1543 19.3274 24.1197 19.434C24.0856 19.5393 24.0563 19.66 24.0332 19.7926L24.0269 19.8292L24.0615 19.843C24.1484 19.8778 24.2514 19.9057 24.3678 19.9263C24.4834 19.9465 24.606 19.9568 24.7322 19.9568C24.9965 19.9568 25.2316 19.92 25.4312 19.8479C25.6324 19.775 25.8114 19.6537 25.963 19.4875C26.1132 19.323 26.2404 19.1053 26.3412 18.8405C26.4408 18.578 26.5259 18.2525 26.5938 17.873L27.2409 14.2016H28.2785L28.2895 14.1713C28.3355 14.0445 28.3663 13.9274 28.3811 13.8224C28.3954 13.7185 28.4027 13.6048 28.4027 13.4851V13.4392H27.3718C27.3765 13.4183 27.3803 13.3977 27.3835 13.3773C27.3886 13.3428 27.3969 13.3064 27.4089 13.2635C27.4421 13.064 27.4868 12.8975 27.5417 12.7689C27.5954 12.6421 27.6595 12.5413 27.7314 12.4692C27.8022 12.3983 27.8831 12.3479 27.9719 12.319C28.0631 12.2895 28.167 12.2747 28.2804 12.2747C28.3668 12.2747 28.4429 12.2829 28.5068 12.2988C28.5722 12.315 28.6364 12.3346 28.6977 12.3569L28.7354 12.3705L28.7539 12.3349C28.811 12.2262 28.8591 12.1203 28.8963 12.0199C28.9338 11.919 28.9702 11.793 29.0042 11.6449L29.0138 11.6035L28.973 11.5906Z" fill="white"/>
<path fill-rule="evenodd" clip-rule="evenodd" d="M32.431 14.7536C32.3473 14.4715 32.2172 14.2231 32.0444 14.0158C31.8711 13.8079 31.6517 13.6411 31.3919 13.5198C31.1324 13.3987 30.826 13.3374 30.4813 13.3374C30.1367 13.3374 29.8302 13.3987 29.5705 13.5198C29.311 13.6411 29.0914 13.8079 28.9179 14.016C28.745 14.2237 28.6149 14.4719 28.5315 14.7536C28.4487 15.034 28.4066 15.3411 28.4066 15.6666C28.4066 15.9922 28.4487 16.2994 28.5315 16.5793C28.6149 16.8611 28.7448 17.1094 28.9181 17.3174C29.0916 17.5255 29.3114 17.6911 29.571 17.8093C29.8306 17.9274 30.137 17.9874 30.4813 17.9874C30.8257 17.9874 31.1319 17.9274 31.3914 17.8093C31.6511 17.6911 31.8707 17.5255 32.0444 17.3174C32.2172 17.11 32.3473 16.8617 32.431 16.5793C32.5139 16.2989 32.5559 15.9918 32.5559 15.6666C32.5559 15.3414 32.5139 15.0343 32.431 14.7536ZM31.5812 15.6666C31.5812 16.1588 31.4894 16.5474 31.3087 16.8212C31.1295 17.0929 30.8589 17.225 30.4813 17.225C30.1037 17.225 29.8345 17.093 29.6582 16.8215C29.4801 16.5474 29.3896 16.1588 29.3896 15.6666C29.3896 15.1745 29.48 14.7874 29.658 14.5161C29.8344 14.2473 30.1037 14.1168 30.4813 14.1168C30.8589 14.1168 31.1295 14.2475 31.3089 14.5165C31.4896 14.7875 31.5812 15.1745 31.5812 15.6666Z" fill="white"/>
<path fill-rule="evenodd" clip-rule="evenodd" d="M35.5544 13.6333C35.5485 13.5752 35.5495 13.5499 35.5379 13.4973L35.5312 13.467L35.5006 13.4619C35.465 13.4561 35.4222 13.4516 35.3728 13.4487C34.9894 13.4268 34.6821 13.4732 34.4352 13.6189C34.2609 13.7219 34.0881 13.8294 33.9783 13.9777C33.9783 13.9777 33.9796 13.8571 33.9775 13.7521C33.9745 13.609 33.9732 13.5551 33.9604 13.4467L33.9311 13.4403C33.8789 13.4286 33.8199 13.4198 33.7557 13.4138C33.6266 13.4024 33.4991 13.4024 33.382 13.4138C33.3241 13.4198 33.263 13.4285 33.2002 13.4399L33.1624 13.4468V17.8786L33.2008 17.885C33.27 17.8964 33.344 17.9052 33.4214 17.9108C33.501 17.9167 33.5701 17.9195 33.6327 17.9195C33.6946 17.9195 33.7657 17.9166 33.844 17.9108C33.9214 17.9052 33.993 17.8964 34.0568 17.8847L34.0946 17.878V15.6752C34.0946 15.387 34.1267 15.1494 34.1896 14.9687C34.2519 14.79 34.3365 14.6474 34.4414 14.5451C34.546 14.4431 34.6656 14.3712 34.7962 14.3312C34.9299 14.2903 35.0725 14.2695 35.2201 14.2695H35.3345C35.3785 14.2695 35.422 14.2749 35.4636 14.2851L35.5118 14.297L35.52 14.248C35.5313 14.1795 35.5413 14.1081 35.55 14.0335C35.5587 13.9585 35.5631 13.8855 35.5631 13.8161C35.5631 13.754 35.5602 13.6924 35.5544 13.6333Z" fill="white"/>
<path fill-rule="evenodd" clip-rule="evenodd" d="M39.2062 17.7441C39.2005 17.6164 39.1798 17.4901 39.1451 17.3687C39.1106 17.2471 39.0691 17.1437 39.0221 17.0612L39.0025 17.0272L38.9655 17.0412C38.8219 17.0966 38.6778 17.1358 38.5379 17.1576C38.3969 17.1799 38.2407 17.191 38.0738 17.191C37.6642 17.191 37.3383 17.0686 37.1053 16.8273C36.8715 16.5854 36.7531 16.195 36.7531 15.6666C36.7531 15.2036 36.8586 14.8272 37.0666 14.5481C37.2716 14.273 37.5876 14.1336 38.006 14.1336C38.3555 14.1336 38.6703 14.1813 38.9416 14.2753L38.9806 14.2889L38.9982 14.2516C39.0449 14.1525 39.0817 14.036 39.108 13.9057C39.1337 13.7765 39.1468 13.6606 39.1468 13.5614V13.5298L39.1171 13.5186C38.9512 13.4557 38.7739 13.4091 38.5902 13.3802C38.4071 13.3518 38.1935 13.3374 37.9548 13.3374C37.5992 13.3374 37.2818 13.3985 37.0109 13.5195C36.7403 13.6405 36.5108 13.8073 36.3288 14.015C36.1471 14.2227 36.0084 14.4709 35.9167 14.7525C35.825 15.0329 35.7786 15.3405 35.7786 15.6666C35.7786 16.3711 35.968 16.9398 36.3419 17.3567C36.717 17.7751 37.2798 17.9874 38.0144 17.9874C38.4481 17.9874 38.8392 17.9206 39.1771 17.789L39.2078 17.7771L39.2062 17.7441Z" fill="white"/>
<path fill-rule="evenodd" clip-rule="evenodd" d="M43.2324 14.5787C43.1516 14.3278 43.0315 14.1082 42.8755 13.9264C42.7192 13.7438 42.5225 13.5984 42.2907 13.494C42.0596 13.3901 41.7875 13.3374 41.4825 13.3374C41.1264 13.3374 40.8129 13.4001 40.5505 13.5241C40.288 13.6483 40.0669 13.818 39.8936 14.0288C39.7206 14.2396 39.5906 14.4906 39.5073 14.7751C39.4245 15.058 39.3824 15.3666 39.3824 15.6919C39.3824 16.0236 39.426 16.3323 39.5118 16.6096C39.5984 16.8897 39.7374 17.1355 39.925 17.34C40.1126 17.5452 40.354 17.7062 40.6425 17.8187C40.9295 17.9306 41.2777 17.9874 41.6778 17.9874C41.9503 17.9874 42.2028 17.9672 42.4285 17.9273C42.6551 17.8869 42.8657 17.826 43.0539 17.746L43.0834 17.7335L43.0818 17.7015C43.0758 17.5803 43.0584 17.4563 43.0296 17.3326C43.0004 17.2073 42.962 17.0993 42.9152 17.0116L42.896 16.9756L42.8579 16.9905C42.5029 17.1292 42.1229 17.1995 41.7287 17.1995C41.2844 17.1995 40.9451 17.0923 40.7203 16.8809C40.5035 16.6772 40.3847 16.3527 40.367 15.9162H43.3241L43.3277 15.8745C43.3334 15.8119 43.3391 15.7367 43.3449 15.6482C43.3505 15.559 43.3534 15.4739 43.3534 15.3949C43.3534 15.1031 43.3127 14.8286 43.2324 14.5787ZM41.4571 14.0997C41.6241 14.0997 41.7699 14.1309 41.8903 14.1923C42.0106 14.2538 42.1112 14.3367 42.1886 14.4381C42.2671 14.5411 42.3274 14.6632 42.368 14.801C42.4049 14.9267 42.4254 15.0594 42.4292 15.1963H40.3796C40.4224 14.8583 40.5293 14.59 40.6979 14.3982C40.8718 14.2001 41.1272 14.0997 41.4571 14.0997Z" fill="white"/>
<path fill-rule="evenodd" clip-rule="evenodd" d="M16.7348 17.8827L16.7726 17.8758V12.8046L16.7721 12.8048V11.5792L16.7343 11.5723C16.6704 11.5607 16.5988 11.5519 16.5214 11.5462C16.443 11.5405 16.372 11.5376 16.3102 11.5376C16.2474 11.5376 16.1783 11.5405 16.0988 11.5462C16.0214 11.552 15.9498 11.5607 15.8862 11.5723L15.8484 11.5792V16.7106L15.8489 16.7105V17.8758L15.8867 17.8827C15.9505 17.8943 16.0221 17.903 16.0995 17.9088C16.1779 17.9144 16.2489 17.9174 16.3107 17.9174C16.3735 17.9174 16.4427 17.9145 16.5222 17.9088C16.5995 17.903 16.6712 17.8943 16.7348 17.8827Z" fill="white"/>
</g>
<defs>
<clipPath id="clip0">
<rect width="48" height="34" fill="white" transform="translate(0.697388)"/>
</clipPath>
</defs>
</svg>
