<svg width="41" height="48" viewBox="0 0 41 48" fill="none" xmlns="http://www.w3.org/2000/svg">
<path d="M0 0V15.1493C0.760181 28.0181 6.24434 36.2715 10.6968 40.9412C15.2036 45.6652 19.6561 47.7285 20.2534 48C38.2805 36.543 40.2353 21.2308 40.2353 15.2036V0.0542937L0 0Z" fill="#7D7D7D"/>
<path d="M33.5941 6.45239C32.5609 7.28887 31.0847 6.89523 31.0847 6.89523C29.707 6.84603 29.2641 6.94444 29.2641 6.94444C28.9689 7.38728 28.4277 6.99364 28.4277 6.99364C28.3293 6.89524 27.9356 6.89523 27.9356 6.89523C25.1802 7.09205 24.4421 6.60001 24.4421 6.60001C24.3437 6.5016 23.8517 6.5016 23.8517 6.5016C23.8024 6.60001 23.5564 6.89523 23.5564 6.89523C23.458 6.99364 22.4739 6.94444 22.4739 6.94444C21.9327 6.89523 21.8835 7.23967 21.8835 7.23967L21.8343 8.46978C21.8835 9.20785 21.6867 9.06023 21.6867 9.06023C21.539 9.25705 20.7026 9.20785 20.7026 9.20785C20.0137 9.25705 20.1121 10.2903 20.1121 10.2903C20.2105 10.9792 21.2438 10.7332 21.2438 10.7332C21.9327 10.7824 21.8343 11.176 21.8343 11.176C21.7851 11.4713 21.8835 15.4076 21.8835 15.4076C21.8343 15.9981 21.3914 15.752 21.3914 15.752C19.9645 15.7028 20.1613 16.6869 20.1613 16.6869C20.2105 17.6218 21.2438 17.4742 21.2438 17.4742C21.9327 17.4742 21.8835 17.8678 21.8835 17.8678C21.9327 17.9662 21.8343 19.3932 21.8343 19.3932C21.9327 20.082 22.5723 19.8852 22.5723 19.8852L27.6896 20.0328C29.1657 21.1153 29.5102 20.082 29.5102 20.082C29.5594 19.9836 29.8054 19.9836 29.8054 19.9836C30.199 20.082 34.8243 20.0328 34.9227 20.0328C35.7591 20.2297 35.7591 19.4424 35.7591 19.4424L35.8083 17.917C35.8576 17.6218 36.3004 17.5726 36.3004 17.5726C37.6781 17.7694 37.5797 16.6377 37.5797 16.6377C37.5305 15.752 36.5956 15.8012 36.5956 15.8012C35.8576 15.8504 35.9068 15.3092 35.9068 15.3092C35.956 14.9156 35.956 11.4712 35.956 11.4712C35.9068 11.2744 36.1528 10.93 36.1528 10.93C37.8257 11.0776 37.5305 9.99511 37.5305 9.99511C37.6781 9.06023 36.6448 9.25705 36.6448 9.25705C35.7591 9.25705 35.956 8.765 35.956 8.765C36.1036 7.58409 35.8083 7.14125 35.8083 7.14125C35.6607 6.94443 34.7258 7.04284 34.7258 7.04284C34.4306 7.23966 33.9878 6.5508 33.9878 6.5508L33.5941 6.45239ZM15.4869 6.45239C14.4536 7.28887 12.9775 6.89523 12.9775 6.89523C11.5997 6.84603 11.1569 6.94444 11.1569 6.94444C10.8617 7.38728 10.3204 6.99364 10.3204 6.99364C10.222 6.89524 9.82837 6.89523 9.82837 6.89523C7.07292 7.09205 6.33485 6.60001 6.33485 6.60001C6.23644 6.5016 5.7444 6.5016 5.7444 6.5016C5.6952 6.60001 5.44917 6.89523 5.44917 6.89523C5.30156 6.99364 4.36667 6.94444 4.36667 6.94444C3.87463 6.89523 3.77622 7.23967 3.77622 7.23967L3.72702 8.46978C3.77622 9.20785 3.5794 9.06023 3.5794 9.06023C3.43179 9.25705 2.59531 9.20785 2.59531 9.20785C1.90645 9.25705 2.00486 10.2903 2.00486 10.2903C2.10327 10.9792 3.13656 10.7332 3.13656 10.7332C3.82542 10.7824 3.72702 11.176 3.72702 11.176C3.67781 11.4713 3.77622 15.4568 3.77622 15.4568C3.72702 16.0473 3.28418 15.8012 3.28418 15.8012C1.85725 15.752 2.05406 16.7361 2.05406 16.7361C2.10327 17.671 3.13656 17.5234 3.13656 17.5234C3.82542 17.5234 3.77622 17.917 3.77622 17.917C3.82543 18.0154 3.72702 19.4424 3.72702 19.4424C3.82543 20.1312 4.46508 19.9344 4.46508 19.9344L9.58235 20.0328C11.0585 21.1153 11.4029 20.082 11.4029 20.082C11.4521 19.9836 11.6981 19.9836 11.6981 19.9836C12.0918 20.082 16.717 20.0328 16.8154 20.0328C17.6519 20.2297 17.6519 19.4424 17.6519 19.4424L17.7011 17.917C17.7503 17.6218 18.1931 17.5726 18.1931 17.5726C19.5709 17.7694 19.4725 16.6377 19.4725 16.6377C19.4233 15.752 18.4884 15.8012 18.4884 15.8012C17.7503 15.8504 17.7995 15.3092 17.7995 15.3092C17.8487 14.9156 17.8487 11.4712 17.8487 11.4712C17.7995 11.2744 18.0455 10.93 18.0455 10.93C19.7185 11.0776 19.4232 9.99511 19.4232 9.99511C19.5217 9.06023 18.5376 9.25705 18.5376 9.25705C17.6519 9.25705 17.8487 8.765 17.8487 8.765C17.9963 7.58409 17.7011 7.14125 17.7011 7.14125C17.5535 6.94443 16.6186 7.04284 16.6186 7.04284C16.3234 7.23966 15.8805 6.5508 15.8805 6.5508L15.4869 6.45239ZM13.4203 24.2644C13.2235 24.2644 13.0267 24.6581 13.0267 24.6581C12.7314 25.1501 11.7473 24.8549 11.7473 24.8549C11.0093 25.0517 11.1077 25.4453 11.1077 25.4453L11.1569 26.9215C11.1077 27.3151 10.5664 27.1675 10.5664 27.1675C9.58235 26.9707 9.23792 27.6103 9.23792 27.6103C9.0411 27.9055 9.18871 28.2992 9.18871 28.2992C9.33633 28.8896 10.0744 28.8404 10.0744 28.8404C10.3696 29.0373 10.7633 28.8896 10.7633 28.8896C11.1569 28.8896 11.0585 29.3325 11.0585 29.3325C11.1077 29.5785 11.0093 33.1704 11.0093 33.1704C11.0093 33.4657 10.9601 33.6625 10.9601 33.6625C10.9601 33.9577 9.97599 33.7609 9.97599 33.7609C9.33633 33.8101 9.13951 34.4497 9.13951 34.4497C8.94269 34.8926 9.58235 35.3354 9.58235 35.3354C9.63155 35.4338 10.8125 35.5322 10.8125 35.5322C11.1077 35.5815 11.1077 36.0243 11.1077 36.0243C11.0585 36.2211 11.2061 37.7464 11.2061 37.7464C11.3045 38.1401 12.4854 38.0417 12.4854 38.0417C12.4854 38.0417 18.0947 37.9433 18.1931 37.9925C18.2915 38.0417 18.636 37.9433 18.636 37.9433L19.0788 38.2877C19.6201 38.7305 20.3089 38.1401 20.3089 38.1401L20.8994 38.0417C21.0962 38.0909 26.2627 37.9925 26.2627 37.9925C26.7055 38.0909 26.9023 37.9433 26.9023 37.9433L27.7388 37.8941C28.3293 37.8941 28.2801 37.156 28.2801 37.156V36.0735C28.3293 35.483 28.6245 35.483 28.6245 35.483L29.4118 35.3354L29.7562 35.1386C30.2482 34.991 30.0022 34.1053 30.0022 34.1053C29.707 33.5641 28.7721 33.6625 28.7721 33.6625C28.1324 33.7117 28.1816 33.318 28.1816 33.318L28.2801 29.3325C28.3293 28.988 28.5261 28.742 28.5261 28.742C28.7229 28.7912 29.3626 28.5944 29.3626 28.5944C30.0022 28.4468 29.953 27.8563 29.953 27.8563C30.0514 27.4135 29.3134 27.1183 29.3134 27.1183H28.4277C28.1324 27.0691 28.2309 25.9374 28.2309 25.9374V25.3961C28.2801 24.9533 27.6404 24.7565 27.6404 24.7565L26.5087 24.8057C26.4103 24.6089 25.9674 24.5104 25.9674 24.5104C25.7706 24.412 25.4262 24.412 25.4262 24.412C24.5897 25.0025 22.6215 24.8549 22.6215 24.8549L20.6042 24.7073L19.8661 24.8549C19.8169 25.0025 19.5709 25.1009 19.5709 25.1009L19.374 25.0517C19.1772 24.8549 18.5376 24.7565 18.5376 24.7565C18.4884 24.6581 15.7329 24.8549 15.7329 24.8549C14.1584 24.9041 13.5679 24.3628 13.5679 24.3628C13.5679 24.2644 13.5187 24.2644 13.4203 24.2644Z" fill="black"/>
<path d="M6.43322 6.99365C6.43322 6.99365 6.08879 7.04285 6.08879 7.28887L5.99038 17.0314C5.99038 17.0314 5.94118 17.4742 6.72845 17.5726C6.72845 17.5726 7.61413 17.671 7.81095 17.5726C7.81095 17.5726 8.4014 17.5234 9.87754 17.6218C9.87754 17.6218 10.222 17.9662 10.2712 17.5234C10.2712 17.5234 10.5172 9.60149 10.3696 7.97774C10.3696 7.97774 10.3204 7.28888 9.82833 7.23967C9.82833 7.23967 7.51572 7.43649 7.3189 7.23967L6.43322 6.99365ZM24.4913 6.99365C24.4913 6.99365 24.1468 7.04285 24.1468 7.28887L24.0484 17.0314C24.0484 17.0314 23.9992 17.4742 24.7865 17.5726C24.7865 17.5726 25.6722 17.671 25.869 17.5726C25.869 17.5726 26.4594 17.5234 27.9356 17.6218C27.9356 17.6218 28.28 17.9662 28.3292 17.5234C28.3292 17.5234 28.5752 9.60149 28.4276 7.97774C28.4276 7.97774 28.3784 7.28888 27.8864 7.23967C27.8864 7.23967 25.5738 7.43649 25.3769 7.23967L24.4913 6.99365ZM15.1916 6.99365C15.0932 6.99365 14.9948 7.04286 14.8964 7.09206C14.8964 7.09206 14.9456 7.33808 12.0917 7.23967C12.0917 7.23967 11.0092 7.19047 10.96 7.68251C10.96 7.68251 10.8616 12.2585 10.9108 12.4061L10.8616 16.2441L10.714 17.5726C10.714 17.5726 10.9108 17.8678 11.0584 17.671C11.0584 17.671 12.0425 17.425 12.633 17.5234C12.633 17.5234 14.6012 17.7202 14.9948 17.425C14.9948 17.425 15.29 17.5726 15.3884 17.0806C15.3884 17.0806 15.4868 8.56819 15.4376 8.42058C15.4376 8.42058 15.536 7.19047 15.4868 7.09206C15.4376 7.14126 15.3884 6.99365 15.1916 6.99365ZM33.2497 7.04285C33.1513 7.04285 33.0528 7.09206 32.9544 7.14126C32.9544 7.14126 33.0036 7.38728 30.1498 7.28887C30.1498 7.28887 29.0673 7.23967 29.0181 7.73172C29.0181 7.73172 28.9197 12.3077 28.9689 12.4553L28.9197 16.2933L28.7721 17.6218C28.7721 17.6218 28.9689 17.917 29.1165 17.7202C29.1165 17.7202 30.1006 17.4742 30.691 17.5726C30.691 17.5726 32.6592 17.7694 33.0528 17.425C33.0528 17.425 33.3481 17.5726 33.4465 17.0806C33.4465 17.0806 33.5449 8.56819 33.4957 8.42058C33.4957 8.42058 33.5941 7.19047 33.5449 7.09206C33.4957 7.19047 33.4957 6.99365 33.2497 7.04285ZM4.76027 7.28887C4.61266 7.28887 4.46504 7.38729 4.21902 7.5841L4.16981 8.81422C4.16981 8.81422 4.16982 9.50308 3.53016 9.50308C3.53016 9.50308 2.79209 9.45388 2.44766 9.79831C2.44766 9.79831 2.25084 10.4872 2.9397 10.3396C2.9397 10.3396 4.0222 10.3396 4.07141 10.7824L4.0222 15.3584C4.0222 15.3584 4.26822 16.0965 3.43175 16.0965C3.43175 16.0965 2.39845 16.0473 2.44766 16.6869C2.44766 16.6869 2.64448 17.2282 3.53016 17.0314C3.53016 17.0314 4.16981 17.1298 4.12061 17.7694V18.9503C4.12061 18.9503 4.0714 19.3932 4.66186 19.4424H9.38549C9.38549 19.4424 9.63151 19.4916 9.63151 19.1472C9.63151 19.1472 9.58231 18.9011 9.23788 18.9011L5.30152 18.8519C5.30152 18.8519 4.66186 19.0487 4.61265 18.1139C4.61265 18.1139 4.66186 9.55228 4.66186 9.40467C4.61265 9.25706 4.71107 9.50308 4.71107 9.50308C4.71107 9.50308 4.61266 8.02694 5.00629 7.38728C5.00629 7.48569 4.95709 7.28887 4.76027 7.28887ZM22.8183 7.28887C22.6707 7.28887 22.5231 7.38729 22.2279 7.5841L22.1787 8.81422C22.1787 8.81422 22.1787 9.50308 21.539 9.50308C21.539 9.50308 20.8009 9.45388 20.4565 9.79831C20.4565 9.79831 20.2597 10.4872 20.9485 10.3396C20.9485 10.3396 22.031 10.3396 22.0802 10.7824L22.031 15.3584C22.031 15.3584 22.2771 16.0965 21.4406 16.0965C21.4406 16.0965 20.4073 16.0473 20.4565 16.6869C20.4565 16.6869 20.6533 17.2282 21.539 17.0314C21.539 17.0314 22.1787 17.1298 22.1294 17.7694V18.9011C22.1294 18.9011 22.0802 19.344 22.6707 19.3932H27.3943C27.3943 19.3932 27.6404 19.4424 27.6404 19.098C27.6404 19.098 27.5911 18.8519 27.2467 18.8519L23.3104 18.8027C23.3104 18.8027 22.6707 18.9995 22.6215 18.0647C22.6215 18.0647 22.6707 9.50308 22.6707 9.35546C22.6215 9.20785 22.7199 9.50308 22.7199 9.50308C22.7199 9.50308 22.6215 8.02694 23.0151 7.38728C23.0643 7.48569 23.0151 7.28887 22.8183 7.28887ZM16.963 7.33808C16.6185 7.28888 16.6186 7.68251 16.6186 7.68251C16.717 7.78092 16.8154 8.22376 16.8154 8.22376C16.8646 9.25706 16.8154 10.438 16.8154 11.5205C16.8154 15.1616 16.6678 18.4583 16.6678 18.4583C16.6678 19.1964 16.2741 18.9995 16.2741 18.9995L11.9933 19.0488C11.5505 19.0488 11.5505 19.2948 11.5505 19.2948C11.5997 19.6392 12.0425 19.4916 12.0425 19.4916C12.4362 19.59 16.6678 19.5408 16.6678 19.5408C17.3074 19.6392 17.2582 18.8027 17.2582 18.8027C17.3566 17.3758 17.455 17.2282 17.455 17.2282C17.6026 17.1298 18.2915 17.1298 18.2915 17.1298C19.4232 17.179 18.882 16.4409 18.882 16.4409C18.7343 16.1949 17.9963 16.2441 17.9963 16.2441C17.2582 16.2933 17.3074 15.506 17.3074 15.506L17.4058 11.0776C17.3074 10.7332 17.6026 10.5364 17.6026 10.5364H18.2915C19.2756 10.5856 19.0296 9.99512 19.0296 9.99512C18.9804 9.69989 18.1931 9.55228 18.1931 9.55228C17.3566 9.65069 17.455 9.20785 17.455 9.20785L17.4058 8.12535C17.5042 7.43649 17.0614 7.38728 17.0614 7.38728L16.963 7.33808ZM35.021 7.33808C34.6766 7.28888 34.6766 7.68251 34.6766 7.68251C34.775 7.78092 34.8734 8.22376 34.8734 8.22376C34.9226 9.25706 34.8734 10.438 34.8734 11.5205C34.8734 15.1616 34.7258 18.4583 34.7258 18.4583C34.7258 19.1964 34.3322 18.9503 34.3322 18.9503L30.1006 18.9995C29.6577 18.9995 29.6577 19.2456 29.6577 19.2456C29.7069 19.59 30.1498 19.4424 30.1498 19.4424C30.5434 19.5408 34.775 19.4916 34.775 19.4916C35.4147 19.59 35.3655 18.7535 35.3655 18.7535C35.4639 17.3266 35.5623 17.179 35.5623 17.179C35.7099 17.0314 36.3988 17.0806 36.3988 17.0806C37.5305 17.1298 36.9892 16.3917 36.9892 16.3917C36.8416 16.1457 36.1035 16.1949 36.1035 16.1949C35.3655 16.2441 35.4147 15.4568 35.4147 15.4568L35.5131 11.0284C35.4147 10.684 35.7099 10.4872 35.7099 10.4872H36.3988C37.3828 10.5364 37.1368 9.94592 37.1368 9.94592C37.0876 9.65069 36.3003 9.50308 36.3003 9.50308C35.4639 9.65069 35.5623 9.15865 35.5623 9.15865L35.5131 8.07615C35.6115 7.38729 35.1686 7.33808 35.1686 7.33808H35.021ZM15.9789 7.43649C15.8805 7.43649 15.8313 7.48569 15.7329 7.6333L15.6837 17.2282C15.6837 17.2282 15.9297 18.0647 16.3233 17.9662C16.3233 17.9662 16.3725 17.7694 16.4217 17.4742L16.5201 8.32217C16.5201 8.37138 16.3233 7.38729 15.9789 7.43649ZM34.0861 7.43649C33.9877 7.43649 33.9385 7.48569 33.8401 7.6333L33.7909 17.2282C33.7909 17.2282 34.0369 18.0647 34.4306 18.0155C34.4306 18.0155 34.4798 17.8186 34.529 17.5234L34.6274 8.37137C34.6274 8.37137 34.4306 7.38729 34.0861 7.43649ZM23.704 7.5349C23.1135 7.48569 23.0643 8.61739 23.0643 8.61739L23.0151 17.7202C23.0643 18.1631 23.212 18.0647 23.212 18.0647C23.8024 17.7202 23.704 17.0806 23.704 17.0806C23.704 17.0806 23.8024 8.46979 23.8024 8.32217C23.7532 8.12535 23.704 7.5349 23.704 7.5349ZM5.64595 7.5349C5.05549 7.48569 5.00629 8.61739 5.00629 8.61739L4.95709 17.7202C5.00629 18.1631 5.1539 18.0647 5.1539 18.0647C5.74436 17.7202 5.64595 17.0806 5.64595 17.0806C5.64595 17.0806 5.74436 8.46979 5.74436 8.32217C5.69515 8.12535 5.64595 7.5349 5.64595 7.5349ZM24.1468 17.7694C24.0484 17.7694 23.8516 17.7694 23.6056 18.1631C23.6056 18.1631 23.5072 18.6059 23.95 18.5075H27.0991L27.9356 18.7043C27.9356 18.7043 28.8213 18.5075 27.9356 18.0155C27.9356 18.0155 25.1309 18.0647 24.8849 17.9662C24.8849 17.9662 24.2944 17.8186 24.196 17.7694H24.1468ZM5.99038 17.8186C5.89197 17.8186 5.64595 17.8186 5.44913 18.2123C5.44913 18.2123 5.35072 18.6551 5.79356 18.5567H8.94265L9.77913 18.7535C9.77913 18.7535 10.6648 18.5567 9.77913 18.0647C9.77913 18.0647 6.97447 18.1139 6.72845 18.0155C6.72845 18.0155 6.13799 17.8678 6.03959 17.8186H5.99038ZM33.6925 17.8678C33.4957 17.8678 33.2497 17.917 33.2497 17.917C32.7576 18.2615 29.7069 18.0155 29.7069 18.0155C29.5101 18.0155 29.2641 18.3107 29.2641 18.3107C29.1657 18.8519 30.1006 18.6551 30.1006 18.6551C30.2974 18.6551 33.6925 18.6059 33.6925 18.6059C34.2338 18.7535 34.283 18.5075 34.283 18.5075C34.283 18.3107 33.8401 17.917 33.8401 17.917L33.6925 17.8678ZM15.5361 17.917C15.3392 17.917 15.0932 17.9662 15.0932 17.9662C14.6012 18.3107 11.5505 18.0647 11.5505 18.0647C11.3537 18.0647 11.1076 18.3599 11.1076 18.3599C11.0092 18.9011 11.9441 18.7043 11.9441 18.7043C12.1409 18.7043 15.5853 18.6551 15.5853 18.6551C16.1265 18.8027 16.1757 18.5075 16.1757 18.5075C16.1757 18.3107 15.7329 17.917 15.7329 17.917H15.5361ZM28.9197 18.5567H28.8213C28.8213 18.5567 28.2308 18.5567 28.28 19.2948C28.28 19.2948 28.3292 19.8852 28.9689 19.8852C28.9689 19.8852 29.5101 19.7868 29.4609 19.1964C29.4117 19.2456 29.1657 18.6551 28.9197 18.5567ZM10.7632 18.6551H10.6648C10.6648 18.6551 10.0744 18.6551 10.1236 19.3932C10.1236 19.3932 10.1728 19.9836 10.8124 19.9836C10.8124 19.9836 11.3537 19.8852 11.3045 19.2948C11.2553 19.2948 11.0092 18.7043 10.7632 18.6551ZM25.4262 24.8549C24.0484 25.5437 23.95 25.1501 23.5072 25.2485C23.0643 25.3469 21.3914 25.2485 21.293 25.1993C21.1454 25.1501 20.4073 25.2485 20.4073 25.2485C19.9152 25.2977 19.8168 25.6914 19.8168 25.6914L19.7676 27.7087L19.6692 28.1516L19.4724 28.2992L19.2756 27.7087L19.3248 25.839C19.128 25.1501 18.5375 25.2977 18.5375 25.2977C18.1439 25.1993 16.5693 25.2977 16.5693 25.2977C15.8805 25.3961 15.1424 25.2485 15.1424 25.2485C14.1583 25.3961 13.9615 25.0517 13.9615 25.0517C13.4695 24.8549 13.4695 25.1501 13.4695 25.1501C13.5679 25.3961 13.5187 25.8882 13.5187 25.8882C13.5679 26.1342 13.4695 28.25 13.4695 28.25C13.4203 28.4468 13.4695 30.7594 13.4695 30.7594C13.5679 30.907 13.4203 35.0894 13.4203 35.0894C13.5187 35.6307 14.552 35.5815 14.552 35.5815C14.6504 35.6799 18.5375 35.6307 18.5375 35.6307C19.1772 35.9259 19.2264 35.5815 19.2264 35.5815C19.374 34.6466 19.2264 32.8752 19.2756 32.5308C19.374 31.8419 19.3248 31.1039 19.3248 31.1039L19.62 31.0546L19.6692 32.58C19.7676 33.9577 19.6692 35.3846 19.6692 35.3846C19.6692 35.7783 19.8168 35.8275 19.8168 35.8275C20.5549 35.4831 21.1946 35.5323 21.1946 35.5323C25.3769 35.6307 24.7373 35.5815 24.7373 35.5815C25.8198 35.5323 25.7214 34.8434 25.7214 34.8434L25.6722 33.3181C25.7706 32.9736 25.7706 28.25 25.7706 28.25C25.623 27.7579 25.7706 25.1993 25.7706 25.1993C25.7706 24.9041 25.4262 24.8549 25.4262 24.8549ZM27.4435 25.2485C27.2959 25.2485 27.1483 25.2977 27.1483 25.2977C27.1483 25.2977 27.1975 25.2977 27.0991 25.2485C27.0007 25.1993 27.0007 25.4453 27.0007 25.4453C27.3943 25.839 27.2959 26.4786 27.2959 26.4786C27.2467 34.5974 27.2959 34.8926 27.2959 34.8926L27.1975 35.1878C27.1975 35.1878 27.1483 36.0243 27.1483 36.2703C27.1483 36.5163 27.0007 36.7132 27.0007 36.7132L26.6563 36.8116C26.4102 37.0084 24.8849 36.91 24.8849 36.91C24.8849 36.91 21.3422 37.0084 21.0962 36.9592C20.8501 36.91 20.5057 37.0576 20.5057 37.0576C20.4073 37.5004 20.8501 37.5496 20.8501 37.5496C21.6866 37.5004 26.9023 37.5004 26.9023 37.5004C27.7388 37.5496 27.788 37.156 27.788 37.156C27.9356 37.0576 27.8372 36.3195 27.8372 36.3195C27.8864 36.1719 27.9848 35.3354 27.9848 35.3354C27.8864 34.991 29.1657 34.991 29.1657 34.991C29.8546 34.9418 29.6085 34.3514 29.6085 34.3514C29.6085 34.0561 28.6736 34.1053 28.6736 34.1053C27.9356 34.1545 27.9356 33.6625 27.9356 33.6625C27.9356 33.6625 28.034 29.5293 27.9848 28.9389C27.9356 28.3484 28.4276 28.25 28.4276 28.25L29.1657 28.2008C29.7069 28.2992 29.7069 27.7579 29.7069 27.7579C29.7069 27.5119 28.9197 27.4135 28.9197 27.4135C28.5752 27.5119 28.3784 27.3151 28.3784 27.3151C27.9356 27.3151 27.9848 26.4294 27.9848 26.4294C28.1816 25.9866 27.9356 25.2977 27.9356 25.2977C27.788 25.2485 27.5912 25.2485 27.4435 25.2485ZM11.8457 25.2977C11.5013 25.3469 11.5013 26.9215 11.5013 26.9215C11.4521 27.6595 10.8124 27.5611 10.8124 27.5611C9.92674 27.4627 9.63151 28.004 9.63151 28.004C9.58231 28.496 10.468 28.496 10.468 28.496C10.6156 28.4468 11.1076 28.4468 11.1076 28.4468C11.6489 28.496 11.5505 29.2833 11.5505 29.2833L11.4521 33.7609C11.5997 34.3513 10.8616 34.2529 10.8616 34.2529C9.82833 34.2037 9.68072 34.6466 9.68072 34.6466C9.72992 35.2862 10.7632 35.0894 10.7632 35.0894C11.5013 35.1878 11.4521 35.6307 11.4521 35.6307C11.5013 35.7783 11.5013 36.6147 11.5013 36.6147C11.5013 37.5004 11.7473 37.5496 11.7473 37.5496C11.8457 37.7465 13.3711 37.648 13.3711 37.648C15.6345 37.7465 18.1931 37.5004 18.1931 37.5004C18.5375 37.5496 18.5375 37.3528 18.5375 37.3528C18.7343 37.1068 18.2423 37.0084 18.2423 37.0084C17.8979 36.91 12.5838 37.0576 12.5838 37.0576C12.0425 37.2544 12.0917 36.5163 12.0917 36.5163V34.8926C12.0425 34.6466 12.0917 33.9085 12.0917 33.9085C12.0917 33.9085 12.1409 30.0706 12.1409 29.9229C12.0917 29.7753 12.1409 28.4468 12.1409 28.4468L12.1901 26.4294C12.1409 26.2818 12.5346 25.5929 12.5346 25.5929C12.633 25.2977 11.8457 25.2977 11.8457 25.2977ZM26.361 25.3961C26.2626 25.3961 26.1642 25.4453 26.1642 25.6914L26.115 35.0402L26.0658 35.237C26.0658 35.237 26.4102 35.9259 26.6071 36.0243C26.6071 36.0243 26.9515 36.4179 26.8531 35.7291L26.9023 26.9707C26.9023 26.9707 26.8039 26.6754 26.9023 26.1834L26.5579 25.4945L26.361 25.3961ZM12.879 25.4453C12.4362 25.7406 12.4362 26.4294 12.4362 26.4294L12.3378 35.7783C12.3378 36.2703 12.633 35.9751 12.633 35.9751C13.1742 35.5815 13.0758 34.991 13.0758 34.991L13.125 25.839C13.125 25.4453 12.879 25.4453 12.879 25.4453ZM13.3219 35.5815L13.0758 35.7783C12.4854 36.4671 12.879 36.5163 12.879 36.5163L13.4203 36.4671L18.3899 36.5163C18.9312 36.6148 18.9804 36.2703 18.9804 36.2703C19.0296 36.0243 18.5375 35.9751 18.5375 35.9751L14.4043 35.9259C13.7647 36.0243 13.3219 35.5815 13.3219 35.5815ZM25.869 35.6799H25.7706C25.5738 35.9751 24.8357 35.9751 24.8357 35.9751C24.8357 35.9751 25.3769 35.8767 24.4913 36.0243C23.6548 36.1719 20.8501 35.9751 20.8501 35.9751C20.6533 35.9259 20.1121 36.2703 20.1121 36.2703C20.0137 36.7624 20.9485 36.6147 20.9485 36.6147C21.0962 36.5655 26.0658 36.5656 26.0658 36.5656C26.6071 36.6148 26.5579 36.2703 26.5579 36.2703L26.115 35.7783L25.869 35.6799ZM19.4724 36.5163C19.0296 36.6148 18.882 37.1068 18.9804 37.5004C19.0788 37.8941 19.4232 37.9925 19.7184 37.9433C20.0137 37.8941 20.0137 37.5988 20.0137 37.1068C20.0137 36.5655 19.4724 36.5163 19.4724 36.5163Z" fill="#7D7D7D"/>
<path d="M30.5927 10.2412C30.5927 10.2412 30.0022 10.2904 30.0514 10.5364L30.3466 11.1269V14.1284C30.3466 14.1284 30.2482 14.6696 29.953 14.8172C29.953 14.8172 29.8546 15.1125 30.1498 15.1617L31.0355 15.1125C31.0355 15.1125 31.3799 15.1617 31.3799 14.9156C31.3799 14.9156 31.1339 14.6204 31.0847 14.4728C31.0847 14.4728 31.0355 11.5697 31.0847 11.2745L31.1831 10.8809C31.1831 10.8809 31.5275 10.6841 31.3307 10.3888C31.3307 10.3888 31.1339 10.2904 30.8879 10.3396L30.5927 10.2412ZM13.4695 10.2412H13.3711C13.3711 10.2412 12.3378 10.3888 12.1902 10.2904L11.3537 10.3888C11.3537 10.3888 11.2553 10.684 11.5997 10.8317C11.5997 10.8317 11.6981 10.8809 11.6981 11.0285L11.6489 14.2268L11.5505 14.4728C11.5505 14.4728 11.2553 14.8664 11.4521 14.9156C11.4521 14.9156 11.1569 15.1125 13.4203 15.1125C13.4203 15.1125 14.2568 15.2601 14.06 14.1776C14.06 14.1776 13.9615 13.7839 13.6663 14.3744C13.6663 14.3744 13.5679 14.8664 12.4854 14.7188C12.4854 14.7188 12.2394 14.522 12.2394 14.276V12.9475C12.2394 12.9475 12.1902 12.603 12.7314 12.6522C12.7314 12.6522 13.3219 12.9967 13.4203 12.8491C13.4203 12.8491 13.6171 12.357 13.4203 12.0618C13.4203 12.0618 13.1251 12.0126 13.1251 12.1602C13.1251 12.1602 12.9283 12.5046 12.4362 12.3078C12.4362 12.3078 12.1902 11.8158 12.3378 11.4221C12.3378 11.4221 12.2886 10.6841 12.7806 10.7333C12.7806 10.7333 13.3711 10.8317 13.4695 11.0285C13.4695 11.0285 13.6171 11.3729 13.7647 10.9793L13.6171 10.438L13.4695 10.2412ZM25.2786 10.2412C25.131 10.2412 24.9834 10.2412 24.9834 10.3396C24.9834 10.3396 24.9342 10.6348 25.131 10.6348C25.131 10.6348 25.377 10.9301 25.377 11.0777L25.3278 12.357L25.377 14.1284C25.377 14.1284 25.3278 14.522 25.0818 14.6696C25.0818 14.6696 24.8849 14.9648 25.0818 15.0633L26.0659 15.1617C26.0659 15.1617 26.3611 14.9648 26.2135 14.7188L25.9182 14.276L25.9674 13.3411C25.9674 13.3411 26.1643 13.1443 26.2627 13.2427L27.3452 14.9648C27.3452 14.9648 27.8372 15.3093 27.9356 14.9648C27.9356 14.9648 27.9848 14.8172 27.8372 14.7188L26.9515 13.3411L27.0007 12.8491C27.0007 12.8491 27.9356 12.5046 27.8372 11.6189C27.8372 11.6189 28.034 10.7333 26.8039 10.3396H25.5246C25.5246 10.2904 25.4262 10.2904 25.2786 10.2412ZM6.63008 10.2904C6.18724 10.3396 6.43326 10.6348 6.43326 10.6348L6.8269 10.9301C6.8761 11.0777 8.05701 14.768 8.05701 14.768C8.59826 15.2601 8.64747 14.6696 8.64747 14.6696C8.9919 14.0792 9.68076 11.1269 9.68076 11.1269L9.97599 10.5364C9.87758 10.2904 9.23792 10.3396 9.23792 10.3396C8.94269 10.3888 9.13951 10.6841 9.13951 10.6841L9.33633 11.3237L8.74587 13.4887C8.54906 13.9808 8.35224 13.2919 8.35224 13.2919C7.71258 11.4221 7.66338 10.9793 7.66338 10.9793C8.15542 10.6348 7.76178 10.3396 7.76178 10.3396L6.63008 10.2904ZM26.4103 10.6841C26.5579 10.6841 26.7547 10.6841 26.8039 10.7825C26.9023 10.9793 27.6896 11.6189 26.9023 12.357C26.9023 12.357 26.5579 12.9967 25.9674 12.5538C25.9674 12.5538 25.9674 11.6189 25.9182 10.9793L26.0166 10.7825C26.0659 10.7333 26.2627 10.6841 26.4103 10.6841ZM19.5217 27.3644C19.374 27.3152 19.3248 27.6104 19.2264 27.8072C19.2264 27.8072 18.2423 31.7436 18.0947 31.9896C18.0947 31.9896 17.9963 32.334 17.6519 32.4324C17.6519 32.4324 17.4551 32.6293 17.7503 32.7277C17.7503 32.7277 18.3407 32.9245 18.4884 32.6785C18.4884 32.6785 18.6852 32.8261 18.4884 32.0388C18.4884 32.0388 18.636 31.1531 18.9804 31.1531C18.9804 31.1531 19.1772 31.2515 19.2264 31.3991C19.2756 31.5468 19.5709 31.3991 19.5709 31.3991C19.5709 31.3991 19.7677 31.1039 19.9153 31.2023C19.9153 31.2023 20.2105 31.596 20.2105 31.842C20.2105 31.842 20.3089 32.4324 20.1613 32.5801C20.1613 32.5801 20.0137 32.6785 20.3581 32.7769C20.3581 32.7769 21.047 32.8753 21.293 32.8261C21.293 32.8261 21.8343 32.6785 21.293 32.4816C21.293 32.4816 20.9978 32.2356 20.8502 31.9404C20.8502 31.9404 20.3089 29.5786 19.7185 28.004C19.7185 28.004 19.6693 27.7088 19.4725 27.5612L19.5217 27.3644ZM15.0933 27.7088L14.8964 27.758L14.6012 28.4961V28.7421C14.798 29.2341 14.8964 28.7913 14.8964 28.7913L15.3393 28.3485L15.6837 28.2993C15.8805 28.3977 15.8313 28.7421 15.8313 28.7421C15.7821 28.8897 15.7821 31.4483 15.7821 31.4483C15.8313 31.9896 15.6837 32.1864 15.6837 32.1864C15.2409 32.7277 15.6837 32.7277 15.6837 32.7277C15.8805 32.6785 16.6186 32.7769 16.6186 32.7769C16.963 32.8261 16.8154 32.3832 16.8154 32.3832C16.6186 32.2848 16.5202 31.9404 16.5202 31.9404L16.5694 31.4483C16.6678 31.1531 16.5694 28.8897 16.5694 28.8897C16.6186 28.2009 17.0122 28.3977 17.0122 28.3977C17.1106 28.7421 17.3567 28.8405 17.3567 28.8405C17.7503 28.7421 17.6519 28.0532 17.6519 28.0532C17.7011 27.758 17.5043 27.758 17.5043 27.758L17.0122 28.004H15.5853C15.3393 27.9056 15.0933 27.7088 15.0933 27.7088ZM24.1469 27.9056C24.0977 27.9056 23.9501 27.9056 23.8024 28.0532C23.8024 28.0532 23.4088 28.2008 23.3104 28.0532C23.3104 28.0532 22.1787 27.9548 22.1295 29.1849C22.1295 29.1849 21.9819 30.0214 23.2612 30.5627C23.2612 30.5627 24.1961 31.0055 24.1469 31.596C24.1469 31.596 23.9993 32.6293 23.0152 32.1372C23.0152 32.1372 22.5231 31.8912 22.5723 31.596C22.5723 31.596 22.4247 31.2515 22.2279 31.3007C22.2279 31.3007 22.0311 31.3499 22.1295 32.3832C22.1295 32.3832 22.1295 32.7769 22.5723 32.3832L22.8184 32.4324C22.8184 32.4324 23.6548 33.1213 24.3437 32.2848C24.3437 32.2848 25.0818 31.596 24.5405 30.7595C24.5405 30.7595 24.1469 30.169 23.458 29.8738C23.458 29.8738 22.7692 29.5786 22.6215 29.0373C22.6215 29.0373 22.8184 28.1024 23.6548 28.5945C23.6548 28.5945 23.9501 28.9389 24.1469 29.0373C24.1469 29.0373 24.3929 29.0373 24.3437 28.4961L24.2945 28.0532C24.2945 28.0532 24.2453 27.9056 24.1469 27.9056ZM19.4725 29.1849L19.6201 29.3818C19.6201 29.3818 19.9645 30.3166 19.9645 30.4643C19.9645 30.6119 19.9153 30.7595 19.7677 30.7595C19.5709 30.7595 19.0788 30.7103 19.0788 30.7103L18.882 30.4151C18.882 30.4151 19.0788 29.5786 19.128 29.431L19.4725 29.1849Z" fill="black"/>
</svg>
