<svg width="41" height="48" viewBox="0 0 41 48" fill="none" xmlns="http://www.w3.org/2000/svg">
<path d="M11.756 40.596C7.36976 35.9958 1.95255 27.8541 1.19739 15.1345V0.500675L40.4327 0.553619V15.2036C40.4327 21.0946 38.5373 36.1105 20.913 47.4308C19.7967 46.8984 15.7997 44.8346 11.756 40.596Z" fill="#A51C30" stroke="black"/>
<path d="M34.2915 6.45239C33.2582 7.28887 31.7821 6.89523 31.7821 6.89523C30.4044 6.84603 29.9615 6.94444 29.9615 6.94444C29.6663 7.38728 29.1251 6.99364 29.1251 6.99364C29.0266 6.89524 28.633 6.89523 28.633 6.89523C25.8776 7.09205 25.1395 6.60001 25.1395 6.60001C25.0411 6.5016 24.549 6.5016 24.549 6.5016C24.4998 6.60001 24.2538 6.89523 24.2538 6.89523C24.1554 6.99364 23.1713 6.94444 23.1713 6.94444C22.6301 6.89523 22.5809 7.23967 22.5809 7.23967L22.5317 8.46978C22.5809 9.20785 22.384 9.06023 22.384 9.06023C22.2364 9.25705 21.4 9.20785 21.4 9.20785C20.7111 9.25705 20.8095 10.2903 20.8095 10.2903C20.9079 10.9792 21.9412 10.7332 21.9412 10.7332C22.6301 10.7824 22.5317 11.176 22.5317 11.176C22.4825 11.4713 22.5809 15.4076 22.5809 15.4076C22.5317 15.9981 22.0888 15.752 22.0888 15.752C20.6619 15.7028 20.8587 16.6869 20.8587 16.6869C20.9079 17.6218 21.9412 17.4742 21.9412 17.4742C22.6301 17.4742 22.5809 17.8678 22.5809 17.8678C22.6301 17.9662 22.5317 19.3932 22.5317 19.3932C22.6301 20.082 23.2697 19.8852 23.2697 19.8852L28.387 20.0328C29.8631 21.1153 30.2076 20.082 30.2076 20.082C30.2568 19.9836 30.5028 19.9836 30.5028 19.9836C30.8964 20.082 35.5216 20.0328 35.6201 20.0328C36.4565 20.2297 36.4565 19.4424 36.4565 19.4424L36.5057 17.917C36.5549 17.6218 36.9978 17.5726 36.9978 17.5726C38.3755 17.7694 38.2771 16.6377 38.2771 16.6377C38.2279 15.752 37.293 15.8012 37.293 15.8012C36.5549 15.8504 36.6041 15.3092 36.6041 15.3092C36.6533 14.9156 36.6533 11.4712 36.6533 11.4712C36.6041 11.2744 36.8502 10.93 36.8502 10.93C38.5231 11.0776 38.2279 9.99511 38.2279 9.99511C38.3755 9.06023 37.3422 9.25705 37.3422 9.25705C36.4565 9.25705 36.6533 8.765 36.6533 8.765C36.801 7.58409 36.5057 7.14125 36.5057 7.14125C36.3581 6.94443 35.4232 7.04284 35.4232 7.04284C35.128 7.23966 34.6852 6.5508 34.6852 6.5508L34.2915 6.45239ZM16.1843 6.45239C15.151 7.28887 13.6748 6.89523 13.6748 6.89523C12.2971 6.84603 11.8543 6.94444 11.8543 6.94444C11.5591 7.38728 11.0178 6.99364 11.0178 6.99364C10.9194 6.89524 10.5258 6.89523 10.5258 6.89523C7.77031 7.09205 7.03224 6.60001 7.03224 6.60001C6.93383 6.5016 6.44179 6.5016 6.44179 6.5016C6.39258 6.60001 6.14656 6.89523 6.14656 6.89523C5.99895 6.99364 5.06406 6.94444 5.06406 6.94444C4.57202 6.89523 4.47361 7.23967 4.47361 7.23967L4.4244 8.46978C4.47361 9.20785 4.27679 9.06023 4.27679 9.06023C4.12918 9.25705 3.2927 9.20785 3.2927 9.20785C2.60384 9.25705 2.70225 10.2903 2.70225 10.2903C2.80066 10.9792 3.83395 10.7332 3.83395 10.7332C4.52281 10.7824 4.4244 11.176 4.4244 11.176C4.3752 11.4713 4.47361 15.4568 4.47361 15.4568C4.4244 16.0473 3.98156 15.8012 3.98156 15.8012C2.55463 15.752 2.75145 16.7361 2.75145 16.7361C2.80066 17.671 3.83395 17.5234 3.83395 17.5234C4.52281 17.5234 4.47361 17.917 4.47361 17.917C4.52281 18.0154 4.4244 19.4424 4.4244 19.4424C4.52281 20.1312 5.16247 19.9344 5.16247 19.9344L10.2797 20.0328C11.7559 21.1153 12.1003 20.082 12.1003 20.082C12.1495 19.9836 12.3955 19.9836 12.3955 19.9836C12.7892 20.082 17.4144 20.0328 17.5128 20.0328C18.3493 20.2297 18.3493 19.4424 18.3493 19.4424L18.3985 17.917C18.4477 17.6218 18.8905 17.5726 18.8905 17.5726C20.2682 17.7694 20.1698 16.6377 20.1698 16.6377C20.1206 15.752 19.1858 15.8012 19.1858 15.8012C18.4477 15.8504 18.4969 15.3092 18.4969 15.3092C18.5461 14.9156 18.5461 11.4712 18.5461 11.4712C18.4969 11.2744 18.7429 10.93 18.7429 10.93C20.4159 11.0776 20.1206 9.99511 20.1206 9.99511C20.219 9.06023 19.235 9.25705 19.235 9.25705C18.3493 9.25705 18.5461 8.765 18.5461 8.765C18.6937 7.58409 18.3985 7.14125 18.3985 7.14125C18.2509 6.94443 17.316 7.04284 17.316 7.04284C17.0208 7.23966 16.5779 6.5508 16.5779 6.5508L16.1843 6.45239ZM14.1177 24.2644C13.9209 24.2644 13.7241 24.6581 13.7241 24.6581C13.4288 25.1501 12.4447 24.8549 12.4447 24.8549C11.7067 25.0517 11.8051 25.4453 11.8051 25.4453L11.8543 26.9215C11.8051 27.3151 11.2638 27.1675 11.2638 27.1675C10.2797 26.9707 9.93531 27.6103 9.93531 27.6103C9.73849 27.9055 9.8861 28.2992 9.8861 28.2992C10.0337 28.8896 10.7718 28.8404 10.7718 28.8404C11.067 29.0373 11.4606 28.8896 11.4606 28.8896C11.8543 28.8896 11.7559 29.3325 11.7559 29.3325C11.8051 29.5785 11.7067 33.1704 11.7067 33.1704C11.7067 33.4656 11.6575 33.6625 11.6575 33.6625C11.6575 33.9577 10.6734 33.7609 10.6734 33.7609C10.0337 33.8101 9.8369 34.4497 9.8369 34.4497C9.64008 34.8926 10.2797 35.3354 10.2797 35.3354C10.3289 35.4338 11.5098 35.5322 11.5098 35.5322C11.8051 35.5815 11.8051 36.0243 11.8051 36.0243C11.7559 36.2211 11.9035 37.7464 11.9035 37.7464C12.0019 38.1401 13.1828 38.0417 13.1828 38.0417C13.1828 38.0417 18.7921 37.9433 18.8905 37.9925C18.9889 38.0417 19.3334 37.9433 19.3334 37.9433L19.7762 38.2877C20.3175 38.7305 21.0063 38.1401 21.0063 38.1401L21.5968 38.0417C21.7936 38.0909 26.9601 37.9925 26.9601 37.9925C27.4029 38.0909 27.5997 37.9433 27.5997 37.9433L28.4362 37.8941C29.0266 37.8941 28.9774 37.156 28.9774 37.156V36.0735C29.0266 35.483 29.3219 35.483 29.3219 35.483L30.1091 35.3354L30.4536 35.1386C30.9456 34.991 30.6996 34.1053 30.6996 34.1053C30.4044 33.5641 29.4695 33.6625 29.4695 33.6625C28.8298 33.7117 28.879 33.318 28.879 33.318L28.9774 29.3325C29.0266 28.988 29.2235 28.742 29.2235 28.742C29.4203 28.7912 30.0599 28.5944 30.0599 28.5944C30.6996 28.4468 30.6504 27.8563 30.6504 27.8563C30.7488 27.4135 30.0107 27.1183 30.0107 27.1183H29.1251C28.8298 27.0691 28.9282 25.9374 28.9282 25.9374V25.3961C28.9774 24.9533 28.3378 24.7565 28.3378 24.7565L27.2061 24.8057C27.1077 24.6088 26.6648 24.5104 26.6648 24.5104C26.468 24.412 26.1236 24.412 26.1236 24.412C25.2871 25.0025 23.3189 24.8549 23.3189 24.8549L21.3015 24.7073L20.5635 24.8549C20.5143 25.0025 20.2682 25.1009 20.2682 25.1009L20.0714 25.0517C19.8746 24.8549 19.235 24.7565 19.235 24.7565C19.1858 24.6581 16.4303 24.8549 16.4303 24.8549C14.8558 24.9041 14.2653 24.3628 14.2653 24.3628C14.2653 24.2644 14.2161 24.2644 14.1177 24.2644Z" fill="black"/>
<path d="M7.13061 6.99365C7.13061 6.99365 6.78618 7.04285 6.78618 7.28887L6.68777 17.0314C6.68777 17.0314 6.63856 17.4742 7.42584 17.5726C7.42584 17.5726 8.31152 17.671 8.50833 17.5726C8.50833 17.5726 9.09879 17.5234 10.5749 17.6218C10.5749 17.6218 10.9194 17.9662 10.9686 17.5234C10.9686 17.5234 11.2146 9.60149 11.067 7.97774C11.067 7.97774 11.0178 7.28888 10.5257 7.23967C10.5257 7.23967 8.21311 7.43649 8.01629 7.23967L7.13061 6.99365ZM25.1887 6.99365C25.1887 6.99365 24.8442 7.04285 24.8442 7.28887L24.7458 17.0314C24.7458 17.0314 24.6966 17.4742 25.4839 17.5726C25.4839 17.5726 26.3696 17.671 26.5664 17.5726C26.5664 17.5726 27.1568 17.5234 28.633 17.6218C28.633 17.6218 28.9774 17.9662 29.0266 17.5234C29.0266 17.5234 29.2726 9.60149 29.125 7.97774C29.125 7.97774 29.0758 7.28888 28.5838 7.23967C28.5838 7.23967 26.2712 7.43649 26.0743 7.23967L25.1887 6.99365ZM15.889 6.99365C15.7906 6.99365 15.6922 7.04286 15.5938 7.09206C15.5938 7.09206 15.643 7.33808 12.7891 7.23967C12.7891 7.23967 11.7066 7.19047 11.6574 7.68251C11.6574 7.68251 11.559 12.2585 11.6082 12.4061L11.559 16.2441L11.4114 17.5726C11.4114 17.5726 11.6082 17.8678 11.7558 17.671C11.7558 17.671 12.7399 17.425 13.3304 17.5234C13.3304 17.5234 15.2986 17.7202 15.6922 17.425C15.6922 17.425 15.9874 17.5726 16.0858 17.0806C16.0858 17.0806 16.1842 8.56819 16.135 8.42058C16.135 8.42058 16.2334 7.19047 16.1842 7.09206C16.135 7.14126 16.0858 6.99365 15.889 6.99365ZM33.9471 7.04285C33.8486 7.04285 33.7502 7.09206 33.6518 7.14126C33.6518 7.14126 33.701 7.38728 30.8472 7.28887C30.8472 7.28887 29.7647 7.23967 29.7155 7.73172C29.7155 7.73172 29.6171 12.3077 29.6663 12.4553L29.6171 16.2933L29.4694 17.6218C29.4694 17.6218 29.6663 17.917 29.8139 17.7202C29.8139 17.7202 30.798 17.4742 31.3884 17.5726C31.3884 17.5726 33.3566 17.7694 33.7502 17.425C33.7502 17.425 34.0455 17.5726 34.1439 17.0806C34.1439 17.0806 34.2423 8.56819 34.1931 8.42058C34.1931 8.42058 34.2915 7.19047 34.2423 7.09206C34.1931 7.19047 34.1931 6.99365 33.9471 7.04285ZM5.45766 7.28887C5.31004 7.28887 5.16243 7.38729 4.91641 7.5841L4.8672 8.81422C4.8672 8.81422 4.8672 9.50308 4.22754 9.50308C4.22754 9.50308 3.48948 9.45388 3.14504 9.79831C3.14504 9.79831 2.94823 10.4872 3.63709 10.3396C3.63709 10.3396 4.71959 10.3396 4.76879 10.7824L4.71959 15.3584C4.71959 15.3584 4.96561 16.0965 4.12913 16.0965C4.12913 16.0965 3.09584 16.0473 3.14504 16.6869C3.14504 16.6869 3.34186 17.2282 4.22754 17.0314C4.22754 17.0314 4.8672 17.1298 4.818 17.7694V18.9503C4.818 18.9503 4.76879 19.3932 5.35925 19.4424H10.0829C10.0829 19.4424 10.3289 19.4916 10.3289 19.1472C10.3289 19.1472 10.2797 18.9011 9.93526 18.9011L5.99891 18.8519C5.99891 18.8519 5.35925 19.0487 5.31004 18.1139C5.31004 18.1139 5.35925 9.55228 5.35925 9.40467C5.31004 9.25706 5.40845 9.50308 5.40845 9.50308C5.40845 9.50308 5.31004 8.02694 5.70368 7.38728C5.70368 7.48569 5.65448 7.28887 5.45766 7.28887ZM23.5157 7.28887C23.3681 7.28887 23.2205 7.38729 22.9252 7.5841L22.876 8.81422C22.876 8.81422 22.876 9.50308 22.2364 9.50308C22.2364 9.50308 21.4983 9.45388 21.1539 9.79831C21.1539 9.79831 20.9571 10.4872 21.6459 10.3396C21.6459 10.3396 22.7284 10.3396 22.7776 10.7824L22.7284 15.3584C22.7284 15.3584 22.9745 16.0965 22.138 16.0965C22.138 16.0965 21.1047 16.0473 21.1539 16.6869C21.1539 16.6869 21.3507 17.2282 22.2364 17.0314C22.2364 17.0314 22.876 17.1298 22.8268 17.7694V18.9011C22.8268 18.9011 22.7776 19.344 23.3681 19.3932H28.0917C28.0917 19.3932 28.3377 19.4424 28.3377 19.098C28.3377 19.098 28.2885 18.8519 27.9441 18.8519L24.0077 18.8027C24.0077 18.8027 23.3681 18.9995 23.3189 18.0647C23.3189 18.0647 23.3681 9.50308 23.3681 9.35546C23.3189 9.20785 23.4173 9.50308 23.4173 9.50308C23.4173 9.50308 23.3189 8.02694 23.7125 7.38728C23.7617 7.48569 23.7125 7.28887 23.5157 7.28887ZM17.6604 7.33808C17.3159 7.28888 17.3159 7.68251 17.3159 7.68251C17.4143 7.78092 17.5128 8.22376 17.5128 8.22376C17.562 9.25706 17.5128 10.438 17.5128 11.5205C17.5128 15.1616 17.3651 18.4583 17.3651 18.4583C17.3651 19.1964 16.9715 18.9995 16.9715 18.9995L12.6907 19.0488C12.2479 19.0488 12.2479 19.2948 12.2479 19.2948C12.2971 19.6392 12.7399 19.4916 12.7399 19.4916C13.1336 19.59 17.3651 19.5408 17.3651 19.5408C18.0048 19.6392 17.9556 18.8027 17.9556 18.8027C18.054 17.3758 18.1524 17.2282 18.1524 17.2282C18.3 17.1298 18.9889 17.1298 18.9889 17.1298C20.1206 17.179 19.5793 16.4409 19.5793 16.4409C19.4317 16.1949 18.6937 16.2441 18.6937 16.2441C17.9556 16.2933 18.0048 15.506 18.0048 15.506L18.1032 11.0776C18.0048 10.7332 18.3 10.5364 18.3 10.5364H18.9889C19.973 10.5856 19.727 9.99512 19.727 9.99512C19.6778 9.69989 18.8905 9.55228 18.8905 9.55228C18.054 9.65069 18.1524 9.20785 18.1524 9.20785L18.1032 8.12535C18.2016 7.43649 17.7588 7.38728 17.7588 7.38728L17.6604 7.33808ZM35.7184 7.33808C35.374 7.28888 35.374 7.68251 35.374 7.68251C35.4724 7.78092 35.5708 8.22376 35.5708 8.22376C35.62 9.25706 35.5708 10.438 35.5708 11.5205C35.5708 15.1616 35.4232 18.4583 35.4232 18.4583C35.4232 19.1964 35.0296 18.9503 35.0296 18.9503L30.798 18.9995C30.3551 18.9995 30.3551 19.2456 30.3551 19.2456C30.4043 19.59 30.8472 19.4424 30.8472 19.4424C31.2408 19.5408 35.4724 19.4916 35.4724 19.4916C36.112 19.59 36.0629 18.7535 36.0629 18.7535C36.1613 17.3266 36.2597 17.179 36.2597 17.179C36.4073 17.0314 37.0961 17.0806 37.0961 17.0806C38.2278 17.1298 37.6866 16.3917 37.6866 16.3917C37.539 16.1457 36.8009 16.1949 36.8009 16.1949C36.0629 16.2441 36.1121 15.4568 36.1121 15.4568L36.2105 11.0284C36.112 10.684 36.4073 10.4872 36.4073 10.4872H37.0961C38.0802 10.5364 37.8342 9.94592 37.8342 9.94592C37.785 9.65069 36.9977 9.50308 36.9977 9.50308C36.1613 9.65069 36.2597 9.15865 36.2597 9.15865L36.2105 8.07615C36.3089 7.38729 35.866 7.33808 35.866 7.33808H35.7184ZM16.6763 7.43649C16.5779 7.43649 16.5287 7.48569 16.4303 7.6333L16.3811 17.2282C16.3811 17.2282 16.6271 18.0647 17.0207 17.9662C17.0207 17.9662 17.0699 17.7694 17.1191 17.4742L17.2175 8.32217C17.2175 8.37138 17.0207 7.38729 16.6763 7.43649ZM34.7835 7.43649C34.6851 7.43649 34.6359 7.48569 34.5375 7.6333L34.4883 17.2282C34.4883 17.2282 34.7343 18.0647 35.128 18.0155C35.128 18.0155 35.1772 17.8186 35.2264 17.5234L35.3248 8.37137C35.3248 8.37137 35.128 7.38729 34.7835 7.43649ZM24.4014 7.5349C23.8109 7.48569 23.7617 8.61739 23.7617 8.61739L23.7125 17.7202C23.7617 18.1631 23.9093 18.0647 23.9093 18.0647C24.4998 17.7202 24.4014 17.0806 24.4014 17.0806C24.4014 17.0806 24.4998 8.46979 24.4998 8.32217C24.4506 8.12535 24.4014 7.5349 24.4014 7.5349ZM6.34334 7.5349C5.75288 7.48569 5.70368 8.61739 5.70368 8.61739L5.65448 17.7202C5.70368 18.1631 5.85129 18.0647 5.85129 18.0647C6.44174 17.7202 6.34334 17.0806 6.34334 17.0806C6.34334 17.0806 6.44175 8.46979 6.44175 8.32217C6.39254 8.12535 6.34334 7.5349 6.34334 7.5349ZM24.8442 17.7694C24.7458 17.7694 24.549 17.7694 24.303 18.1631C24.303 18.1631 24.2046 18.6059 24.6474 18.5075H27.7965L28.633 18.7043C28.633 18.7043 29.5186 18.5075 28.633 18.0155C28.633 18.0155 25.8283 18.0647 25.5823 17.9662C25.5823 17.9662 24.9918 17.8186 24.8934 17.7694H24.8442ZM6.68777 17.8186C6.58936 17.8186 6.34334 17.8186 6.14652 18.2123C6.14652 18.2123 6.04811 18.6551 6.49095 18.5567H9.64004L10.4765 18.7535C10.4765 18.7535 11.3622 18.5567 10.4765 18.0647C10.4765 18.0647 7.67186 18.1139 7.42584 18.0155C7.42584 18.0155 6.83538 17.8678 6.73697 17.8186H6.68777ZM34.3899 17.8678C34.1931 17.8678 33.9471 17.917 33.9471 17.917C33.455 18.2615 30.4043 18.0155 30.4043 18.0155C30.2075 18.0155 29.9615 18.3107 29.9615 18.3107C29.8631 18.8519 30.798 18.6551 30.798 18.6551C30.9948 18.6551 34.3899 18.6059 34.3899 18.6059C34.9311 18.7535 34.9803 18.5075 34.9803 18.5075C34.9803 18.3107 34.5375 17.917 34.5375 17.917L34.3899 17.8678ZM16.2334 17.917C16.0366 17.917 15.7906 17.9662 15.7906 17.9662C15.2986 18.3107 12.2479 18.0647 12.2479 18.0647C12.0511 18.0647 11.805 18.3599 11.805 18.3599C11.7066 18.9011 12.6415 18.7043 12.6415 18.7043C12.8383 18.7043 16.2826 18.6551 16.2826 18.6551C16.8239 18.8027 16.8731 18.5075 16.8731 18.5075C16.8731 18.3107 16.4303 17.917 16.4303 17.917H16.2334ZM29.6171 18.5567H29.5187C29.5187 18.5567 28.9282 18.5567 28.9774 19.2948C28.9774 19.2948 29.0266 19.8852 29.6663 19.8852C29.6663 19.8852 30.2075 19.7868 30.1583 19.1964C30.1091 19.2456 29.8631 18.6551 29.6171 18.5567ZM11.4606 18.6551H11.3622C11.3622 18.6551 10.7717 18.6551 10.8209 19.3932C10.8209 19.3932 10.8701 19.9836 11.5098 19.9836C11.5098 19.9836 12.0511 19.8852 12.0019 19.2948C11.9526 19.2948 11.7066 18.7043 11.4606 18.6551ZM26.1235 24.8549C24.7458 25.5437 24.6474 25.1501 24.2046 25.2485C23.7617 25.3469 22.0888 25.2485 21.9904 25.1993C21.8427 25.1501 21.1047 25.2485 21.1047 25.2485C20.6126 25.2977 20.5142 25.6914 20.5142 25.6914L20.465 27.7087L20.3666 28.1516L20.1698 28.2992L19.973 27.7087L20.0222 25.839C19.8254 25.1501 19.2349 25.2977 19.2349 25.2977C18.8413 25.1993 17.2667 25.2977 17.2667 25.2977C16.5779 25.3961 15.8398 25.2485 15.8398 25.2485C14.8557 25.3961 14.6589 25.0517 14.6589 25.0517C14.1668 24.8549 14.1668 25.1501 14.1668 25.1501C14.2653 25.3961 14.2161 25.8882 14.2161 25.8882C14.2653 26.1342 14.1668 28.25 14.1668 28.25C14.1176 28.4468 14.1668 30.7594 14.1668 30.7594C14.2653 30.907 14.1176 35.0894 14.1176 35.0894C14.2161 35.6307 15.2494 35.5815 15.2494 35.5815C15.3478 35.6799 19.2349 35.6307 19.2349 35.6307C19.8746 35.9259 19.9238 35.5815 19.9238 35.5815C20.0714 34.6466 19.9238 32.8752 19.973 32.5308C20.0714 31.8419 20.0222 31.1039 20.0222 31.1039L20.3174 31.0546L20.3666 32.58C20.465 33.9577 20.3666 35.3846 20.3666 35.3846C20.3666 35.7783 20.5142 35.8275 20.5142 35.8275C21.2523 35.4831 21.892 35.5323 21.892 35.5323C26.0743 35.6307 25.4347 35.5815 25.4347 35.5815C26.5172 35.5323 26.4188 34.8434 26.4188 34.8434L26.3696 33.3181C26.468 32.9736 26.468 28.25 26.468 28.25C26.3204 27.7579 26.468 25.1993 26.468 25.1993C26.468 24.9041 26.1235 24.8549 26.1235 24.8549ZM28.1409 25.2485C27.9933 25.2485 27.8457 25.2977 27.8457 25.2977C27.8457 25.2977 27.8949 25.2977 27.7965 25.2485C27.6981 25.1993 27.6981 25.4453 27.6981 25.4453C28.0917 25.839 27.9933 26.4786 27.9933 26.4786C27.9441 34.5974 27.9933 34.8926 27.9933 34.8926L27.8949 35.1878C27.8949 35.1878 27.8457 36.0243 27.8457 36.2703C27.8457 36.5163 27.6981 36.7132 27.6981 36.7132L27.3537 36.8116C27.1076 37.0084 25.5823 36.91 25.5823 36.91C25.5823 36.91 22.0396 37.0084 21.7935 36.9592C21.5475 36.91 21.2031 37.0576 21.2031 37.0576C21.1047 37.5004 21.5475 37.5496 21.5475 37.5496C22.384 37.5004 27.5997 37.5004 27.5997 37.5004C28.4362 37.5496 28.4854 37.156 28.4854 37.156C28.633 37.0576 28.5346 36.3195 28.5346 36.3195C28.5838 36.1719 28.6822 35.3354 28.6822 35.3354C28.5838 34.991 29.8631 34.991 29.8631 34.991C30.5519 34.9418 30.3059 34.3513 30.3059 34.3513C30.3059 34.0561 29.371 34.1053 29.371 34.1053C28.633 34.1545 28.633 33.6625 28.633 33.6625C28.633 33.6625 28.7314 29.5293 28.6822 28.9389C28.633 28.3484 29.125 28.25 29.125 28.25L29.8631 28.2008C30.4043 28.2992 30.4043 27.7579 30.4043 27.7579C30.4043 27.5119 29.6171 27.4135 29.6171 27.4135C29.2726 27.5119 29.0758 27.3151 29.0758 27.3151C28.633 27.3151 28.6822 26.4294 28.6822 26.4294C28.879 25.9866 28.633 25.2977 28.633 25.2977C28.4854 25.2485 28.2885 25.2485 28.1409 25.2485ZM12.5431 25.2977C12.1987 25.3469 12.1987 26.9215 12.1987 26.9215C12.1495 27.6595 11.5098 27.5611 11.5098 27.5611C10.6241 27.4627 10.3289 28.004 10.3289 28.004C10.2797 28.496 11.1654 28.496 11.1654 28.496C11.313 28.4468 11.805 28.4468 11.805 28.4468C12.3463 28.496 12.2479 29.2833 12.2479 29.2833L12.1495 33.7609C12.2971 34.3513 11.559 34.2529 11.559 34.2529C10.5257 34.2037 10.3781 34.6466 10.3781 34.6466C10.4273 35.2862 11.4606 35.0894 11.4606 35.0894C12.1987 35.1878 12.1495 35.6307 12.1495 35.6307C12.1987 35.7783 12.1987 36.6147 12.1987 36.6147C12.1987 37.5004 12.4447 37.5496 12.4447 37.5496C12.5431 37.7465 14.0684 37.648 14.0684 37.648C16.3318 37.7465 18.8905 37.5004 18.8905 37.5004C19.2349 37.5496 19.2349 37.3528 19.2349 37.3528C19.4317 37.1068 18.9397 37.0084 18.9397 37.0084C18.5953 36.91 13.2812 37.0576 13.2812 37.0576C12.7399 37.2544 12.7891 36.5163 12.7891 36.5163V34.8926C12.7399 34.6466 12.7891 33.9085 12.7891 33.9085C12.7891 33.9085 12.8383 30.0706 12.8383 29.9229C12.7891 29.7753 12.8383 28.4468 12.8383 28.4468L12.8875 26.4294C12.8383 26.2818 13.232 25.5929 13.232 25.5929C13.3304 25.2977 12.5431 25.2977 12.5431 25.2977ZM27.0584 25.3961C26.96 25.3961 26.8616 25.4453 26.8616 25.6914L26.8124 35.0402L26.7632 35.237C26.7632 35.237 27.1076 35.9259 27.3044 36.0243C27.3044 36.0243 27.6489 36.4179 27.5505 35.7291L27.5997 26.9707C27.5997 26.9707 27.5013 26.6754 27.5997 26.1834L27.2552 25.4945L27.0584 25.3961ZM13.5764 25.4453C13.1336 25.7406 13.1336 26.4294 13.1336 26.4294L13.0351 35.7783C13.0351 36.2703 13.3304 35.9751 13.3304 35.9751C13.8716 35.5815 13.7732 34.991 13.7732 34.991L13.8224 25.839C13.8224 25.4453 13.5764 25.4453 13.5764 25.4453ZM14.0192 35.5815L13.7732 35.7783C13.1828 36.4671 13.5764 36.5163 13.5764 36.5163L14.1176 36.4671L19.0873 36.5163C19.6285 36.6148 19.6778 36.2703 19.6778 36.2703C19.727 36.0243 19.2349 35.9751 19.2349 35.9751L15.1017 35.9259C14.4621 36.0243 14.0192 35.5815 14.0192 35.5815ZM26.5664 35.6799H26.468C26.2712 35.9751 25.5331 35.9751 25.5331 35.9751C25.5331 35.9751 26.0743 35.8767 25.1887 36.0243C24.3522 36.1719 21.5475 35.9751 21.5475 35.9751C21.3507 35.9259 20.8095 36.2703 20.8095 36.2703C20.711 36.7624 21.6459 36.6147 21.6459 36.6147C21.7935 36.5655 26.7632 36.5656 26.7632 36.5656C27.3044 36.6148 27.2552 36.2703 27.2552 36.2703L26.8124 35.7783L26.5664 35.6799ZM20.1698 36.5163C19.727 36.6148 19.5793 37.1068 19.6778 37.5004C19.7762 37.8941 20.1206 37.9925 20.4158 37.9433C20.711 37.8941 20.711 37.5988 20.711 37.1068C20.711 36.5655 20.1698 36.5163 20.1698 36.5163Z" fill="white"/>
<path d="M31.2901 10.2412C31.2901 10.2412 30.6996 10.2904 30.7488 10.5364L31.044 11.1269V14.1284C31.044 14.1284 30.9456 14.6696 30.6504 14.8172C30.6504 14.8172 30.552 15.1125 30.8472 15.1617L31.7329 15.1125C31.7329 15.1125 32.0773 15.1617 32.0773 14.9156C32.0773 14.9156 31.8313 14.6204 31.7821 14.4728C31.7821 14.4728 31.7329 11.5697 31.7821 11.2745L31.8805 10.8809C31.8805 10.8809 32.2249 10.6841 32.0281 10.3888C32.0281 10.3888 31.8313 10.2904 31.5853 10.3396L31.2901 10.2412ZM14.1669 10.2412H14.0685C14.0685 10.2412 13.0352 10.3888 12.8876 10.2904L12.0511 10.3888C12.0511 10.3888 11.9527 10.684 12.2971 10.8317C12.2971 10.8317 12.3955 10.8809 12.3955 11.0285L12.3463 14.2268L12.2479 14.4728C12.2479 14.4728 11.9527 14.8664 12.1495 14.9156C12.1495 14.9156 11.8543 15.1125 14.1177 15.1125C14.1177 15.1125 14.9542 15.2601 14.7573 14.1776C14.7573 14.1776 14.6589 13.7839 14.3637 14.3744C14.3637 14.3744 14.2653 14.8664 13.1828 14.7188C13.1828 14.7188 12.9368 14.522 12.9368 14.276V12.9475C12.9368 12.9475 12.8876 12.603 13.4288 12.6522C13.4288 12.6522 14.0193 12.9967 14.1177 12.8491C14.1177 12.8491 14.3145 12.357 14.1177 12.0618C14.1177 12.0618 13.8225 12.0126 13.8225 12.1602C13.8225 12.1602 13.6256 12.5046 13.1336 12.3078C13.1336 12.3078 12.8876 11.8158 13.0352 11.4221C13.0352 11.4221 12.986 10.6841 13.478 10.7333C13.478 10.7333 14.0685 10.8317 14.1669 11.0285C14.1669 11.0285 14.3145 11.3729 14.4621 10.9793L14.3145 10.438L14.1669 10.2412ZM25.976 10.2412C25.8284 10.2412 25.6807 10.2412 25.6807 10.3396C25.6807 10.3396 25.6315 10.6348 25.8284 10.6348C25.8284 10.6348 26.0744 10.9301 26.0744 11.0777L26.0252 12.357L26.0744 14.1284C26.0744 14.1284 26.0252 14.522 25.7791 14.6696C25.7791 14.6696 25.5823 14.9648 25.7791 15.0633L26.7632 15.1617C26.7632 15.1617 27.0585 14.9648 26.9109 14.7188L26.6156 14.276L26.6648 13.3411C26.6648 13.3411 26.8616 13.1443 26.9601 13.2427L28.0426 14.9648C28.0426 14.9648 28.5346 15.3093 28.633 14.9648C28.633 14.9648 28.6822 14.8172 28.5346 14.7188L27.6489 13.3411L27.6981 12.8491C27.6981 12.8491 28.633 12.5046 28.5346 11.6189C28.5346 11.6189 28.7314 10.7333 27.5013 10.3396H26.222C26.222 10.2904 26.1236 10.2904 25.976 10.2412ZM7.32747 10.2904C6.88463 10.3396 7.13065 10.6348 7.13065 10.6348L7.52429 10.9301C7.57349 11.0777 8.7544 14.768 8.7544 14.768C9.29565 15.2601 9.34485 14.6696 9.34485 14.6696C9.68929 14.0792 10.3781 11.1269 10.3781 11.1269L10.6734 10.5364C10.575 10.2904 9.93531 10.3396 9.93531 10.3396C9.64008 10.3888 9.8369 10.6841 9.8369 10.6841L10.0337 11.3237L9.44326 13.4887C9.24644 13.9808 9.04962 13.2919 9.04962 13.2919C8.40997 11.4221 8.36076 10.9793 8.36076 10.9793C8.85281 10.6348 8.45917 10.3396 8.45917 10.3396L7.32747 10.2904ZM27.1077 10.6841C27.2553 10.6841 27.4521 10.6841 27.5013 10.7825C27.5997 10.9793 28.387 11.6189 27.5997 12.357C27.5997 12.357 27.2553 12.9967 26.6648 12.5538C26.6648 12.5538 26.6648 11.6189 26.6156 10.9793L26.714 10.7825C26.7632 10.7333 26.9601 10.6841 27.1077 10.6841ZM20.219 27.3644C20.0714 27.3152 20.0222 27.6104 19.9238 27.8072C19.9238 27.8072 18.9397 31.7436 18.7921 31.9896C18.7921 31.9896 18.6937 32.334 18.3493 32.4324C18.3493 32.4324 18.1525 32.6293 18.4477 32.7277C18.4477 32.7277 19.0381 32.9245 19.1858 32.6785C19.1858 32.6785 19.3826 32.8261 19.1858 32.0388C19.1858 32.0388 19.3334 31.1531 19.6778 31.1531C19.6778 31.1531 19.8746 31.2515 19.9238 31.3991C19.973 31.5468 20.2682 31.3991 20.2682 31.3991C20.2682 31.3991 20.4651 31.1039 20.6127 31.2023C20.6127 31.2023 20.9079 31.596 20.9079 31.842C20.9079 31.842 21.0063 32.4324 20.8587 32.5801C20.8587 32.5801 20.7111 32.6785 21.0555 32.7769C21.0555 32.7769 21.7444 32.8753 21.9904 32.8261C21.9904 32.8261 22.5317 32.6785 21.9904 32.4816C21.9904 32.4816 21.6952 32.2356 21.5476 31.9404C21.5476 31.9404 21.0063 29.5786 20.4159 28.004C20.4159 28.004 20.3667 27.7088 20.1698 27.5612L20.219 27.3644ZM15.7906 27.7088L15.5938 27.758L15.2986 28.4961V28.7421C15.4954 29.2341 15.5938 28.7913 15.5938 28.7913L16.0367 28.3485L16.3811 28.2993C16.5779 28.3977 16.5287 28.7421 16.5287 28.7421C16.4795 28.8897 16.4795 31.4483 16.4795 31.4483C16.5287 31.9896 16.3811 32.1864 16.3811 32.1864C15.9383 32.7277 16.3811 32.7277 16.3811 32.7277C16.5779 32.6785 17.316 32.7769 17.316 32.7769C17.6604 32.8261 17.5128 32.3832 17.5128 32.3832C17.316 32.2848 17.2176 31.9404 17.2176 31.9404L17.2668 31.4483C17.3652 31.1531 17.2668 28.8897 17.2668 28.8897C17.316 28.2009 17.7096 28.3977 17.7096 28.3977C17.808 28.7421 18.054 28.8405 18.054 28.8405C18.4477 28.7421 18.3493 28.0532 18.3493 28.0532C18.3985 27.758 18.2017 27.758 18.2017 27.758L17.7096 28.004H16.2827C16.0367 27.9056 15.7906 27.7088 15.7906 27.7088ZM24.8443 27.9056C24.7951 27.9056 24.6474 27.9056 24.4998 28.0532C24.4998 28.0532 24.1062 28.2008 24.0078 28.0532C24.0078 28.0532 22.8761 27.9548 22.8269 29.1849C22.8269 29.1849 22.6793 30.0214 23.9586 30.5627C23.9586 30.5627 24.8935 31.0055 24.8443 31.596C24.8443 31.596 24.6967 32.6293 23.7126 32.1372C23.7126 32.1372 23.2205 31.8912 23.2697 31.596C23.2697 31.596 23.1221 31.2515 22.9253 31.3007C22.9253 31.3007 22.7285 31.3499 22.8269 32.3832C22.8269 32.3832 22.8269 32.7769 23.2697 32.3832L23.5157 32.4324C23.5157 32.4324 24.3522 33.1213 25.0411 32.2848C25.0411 32.2848 25.7792 31.596 25.2379 30.7595C25.2379 30.7595 24.8443 30.169 24.1554 29.8738C24.1554 29.8738 23.4665 29.5786 23.3189 29.0373C23.3189 29.0373 23.5157 28.1024 24.3522 28.5945C24.3522 28.5945 24.6474 28.9389 24.8443 29.0373C24.8443 29.0373 25.0903 29.0373 25.0411 28.4961L24.9919 28.0532C24.9919 28.0532 24.9427 27.9056 24.8443 27.9056ZM20.1698 29.1849L20.3175 29.3818C20.3175 29.3818 20.6619 30.3166 20.6619 30.4643C20.6619 30.6119 20.6127 30.7595 20.4651 30.7595C20.2682 30.7595 19.7762 30.7103 19.7762 30.7103L19.5794 30.4151C19.5794 30.4151 19.7762 29.5786 19.8254 29.431L20.1698 29.1849Z" fill="black"/>
</svg>
